<svg width="280" height="65" viewBox="0 0 280 65" fill="none" xmlns="http://www.w3.org/2000/svg">
<path d="M95.2261 4.0568H280V0H95.2261V4.0568Z" fill="white"/>
<path fill-rule="evenodd" clip-rule="evenodd" d="M87.0364 64.7371H0V0H4.44736V16.5599C4.44736 26.4229 9.70816 31.8748 19.0908 31.8748C28.4735 31.8748 33.7452 26.4229 33.7452 16.5599V0H87.0364V64.7371ZM13.4721 17.0321V0H24.7204V17.0321C24.7204 22.0119 22.833 23.9222 19.0908 23.9222C15.3486 23.9222 13.4721 22.0119 13.4721 17.0321ZM65.733 28.9453V20.8317C65.733 10.9794 60.4505 5.52744 51.0787 5.52744C41.7069 5.52744 36.4352 10.9794 36.4352 20.8317V28.9453C36.4352 38.8082 41.696 44.2602 51.0787 44.2602C60.4613 44.2602 65.733 38.8082 65.733 28.9453ZM56.7083 20.3702V29.4175C56.7083 34.3973 54.8209 36.3076 51.0787 36.3076C47.3365 36.3076 45.4599 34.3973 45.4599 29.4175V20.3702C45.4599 15.3797 47.3256 13.4693 51.0787 13.4693C54.8318 13.4693 56.7083 15.3797 56.7083 20.3702ZM83.1096 48.6913C84.5146 48.7906 85.9045 48.3527 86.9928 47.4679V56.2791C85.7132 56.5223 84.4125 56.6409 83.1096 56.6332C73.7377 56.6332 68.4661 51.192 68.4661 41.329V33.2154C68.4661 23.3632 73.7377 17.9112 83.1096 17.9112C84.4125 17.9035 85.7132 18.0221 86.9928 18.2653V27.0873C85.91 26.1916 84.517 25.7489 83.1096 25.8531C79.3673 25.8531 77.4908 27.7634 77.4908 32.7539V41.8012C77.4908 46.781 79.3673 48.6913 83.1096 48.6913Z" fill="white"/>
<path d="M95.2256 64.7467H280V60.6899H95.2256V64.7467Z" fill="white"/>
<path d="M101.268 41.898C99.3696 41.898 98.4042 40.3954 98.4042 37.487C98.4042 34.5785 99.2828 32.8936 100.932 32.8936C102.277 32.8936 103.101 34.0312 103.101 35.7269V40.7603C102.918 41.0999 102.647 41.3846 102.315 41.5848C101.983 41.7849 101.602 41.8931 101.214 41.898H101.268ZM100.411 43.2395C101.033 43.2136 101.634 43.0118 102.144 42.658C102.653 42.3042 103.049 41.8132 103.285 41.2433V43.1536H103.741L106.995 42.7458V42.3272L105.91 42.0053C105.357 41.8336 105.227 41.6511 105.227 41.0286V27.6348H104.197L101.474 28.0104V28.4182L102.559 28.9012C103.025 29.0944 103.155 29.309 103.155 29.8563V32.5931C102.499 32.3875 101.815 32.286 101.127 32.2926C98.2089 32.2926 96.1914 34.5463 96.1914 37.8519C96.1914 41.1574 97.7534 43.218 100.411 43.218V43.2395ZM112.95 43.2395C113.611 43.2377 114.264 43.0904 114.86 42.8082C115.457 42.5261 115.983 42.1162 116.399 41.6082V41.0716C115.573 41.7093 114.551 42.0465 113.503 42.0267C111.334 42.0267 110.184 40.3096 110.184 37.2831H116.519C116.534 37.0007 116.534 36.7176 116.519 36.4352C116.519 33.7414 115.174 32.2496 112.787 32.2496C109.967 32.2496 108.015 34.4605 108.015 37.6802C108.015 41.2004 109.815 43.2395 112.917 43.2395H112.95ZM110.227 36.6606C110.358 34.4176 111.312 32.8507 112.69 32.8507C113.85 32.8507 114.534 33.8487 114.534 35.5874C114.534 36.1777 114.534 36.4352 114.534 36.6606H110.227ZM128.32 43.261C129.816 43.3228 131.305 43.0245 132.659 42.3916V38.7856H132.312L132.052 39.5261C131.368 41.415 130.045 42.5634 128.494 42.5634C126.075 42.5634 124.73 40.2023 124.73 35.9845C124.73 31.7667 126.01 29.3519 128.461 29.3519C129.85 29.3519 131.01 30.3286 131.846 32.0887L132.204 32.8292H132.551V29.3949C131.275 28.8909 129.911 28.6393 128.537 28.6543C124.773 28.6543 122.159 31.6808 122.159 35.9845C122.159 40.4598 124.513 43.261 128.288 43.261H128.32ZM138.451 42.1877C137.367 42.1877 136.759 41.5116 136.759 40.2988C136.759 39.0861 137.594 38.0773 139.504 37.648L140.404 37.4333V39.5798C140.404 41.0394 139.525 42.2307 138.451 42.2307V42.1877ZM137.681 43.261C138.297 43.2425 138.893 43.0483 139.4 42.7017C139.906 42.3551 140.3 41.871 140.534 41.3077C140.599 42.5204 141.239 43.2395 142.248 43.2395C142.803 43.2107 143.351 43.1023 143.875 42.9175L144.07 42.8531V42.5204L143.17 42.2843C142.946 42.2524 142.744 42.134 142.607 41.955C142.471 41.7761 142.412 41.5511 142.443 41.3291V36.0703C142.443 33.5268 141.152 32.2496 138.538 32.2496C137.379 32.263 136.24 32.5539 135.219 33.0975V35.4157H135.512C136.163 33.8702 137.171 32.9794 138.365 32.9794C139.786 32.9794 140.404 33.7844 140.404 35.523V36.8967L139.221 37.1543C135.967 37.8519 134.72 38.7856 134.72 40.5457C134.704 40.9242 134.772 41.3015 134.919 41.6513C135.066 42.0012 135.288 42.3152 135.57 42.5716C135.851 42.828 136.186 43.0205 136.551 43.1359C136.916 43.2512 137.301 43.2866 137.681 43.2395V43.261ZM149.038 43.261C149.515 43.2547 149.985 43.1447 150.414 42.9388C150.843 42.733 151.222 42.4362 151.522 42.0697V41.6511C151.101 41.9145 150.609 42.0455 150.112 42.0267C148.843 42.0267 148.225 41.4794 148.225 40.0949V33.4195H151.229V32.636H148.246V30.1783H146.706L146.424 31.6164C146.294 32.3355 146.164 32.4858 145.589 32.6897L144.949 32.9258V33.4087H146.207V40.2988C146.207 42.2307 147.194 43.2288 149.06 43.2288L149.038 43.261ZM156.457 42.1877C155.373 42.1877 154.765 41.5116 154.765 40.2988C154.765 39.0861 155.6 38.0773 157.51 37.648L158.41 37.4333V39.5798C158.41 41.0394 157.542 42.2307 156.457 42.2307V42.1877ZM155.687 43.261C156.304 43.2446 156.904 43.0513 157.412 42.7046C157.92 42.3579 158.316 41.8726 158.551 41.3077C158.616 42.5204 159.245 43.2395 160.265 43.2395C160.816 43.2105 161.361 43.102 161.881 42.9175L162.087 42.8531V42.5204L161.187 42.2843C161.075 42.2699 160.968 42.2335 160.87 42.1775C160.773 42.1214 160.688 42.0467 160.621 41.9578C160.553 41.8688 160.504 41.7674 160.476 41.6595C160.449 41.5515 160.443 41.4392 160.46 41.3291V36.0703C160.46 33.5304 159.155 32.2568 156.544 32.2496C155.407 32.2716 154.291 32.5623 153.29 33.0975V35.4157H153.572C154.234 33.8702 155.243 32.9794 156.425 32.9794C157.857 32.9794 158.464 33.7844 158.464 35.523V36.8967L157.282 37.1543C154.028 37.8519 152.78 38.7856 152.78 40.5457C152.765 40.9242 152.833 41.3015 152.979 41.6513C153.126 42.0012 153.348 42.3152 153.63 42.5716C153.912 42.828 154.247 43.0205 154.611 43.1359C154.976 43.2512 155.362 43.2866 155.741 43.2395L155.687 43.261ZM162.586 43.0034H168.009V42.5634L166.849 42.2414C166.393 42.1126 166.252 41.898 166.252 41.3935V27.6348H165.168L162.51 28.0104V28.4397L163.595 28.9012C163.798 28.9581 163.974 29.0838 164.093 29.2565C164.212 29.4291 164.266 29.6377 164.246 29.8456V41.3399C164.246 41.8443 164.115 42.0375 163.649 42.1877L162.64 42.5097V42.9497L162.586 43.0034ZM172.891 43.261C174.138 43.261 175.353 42.4131 176.448 40.7174V43.1751H176.904L180.158 42.7673V42.3487L179.073 42.0267C178.499 41.855 178.39 41.6511 178.39 41.0716V32.5501H177.305L175.017 32.7863V33.0653L175.765 33.4946C176.188 33.7307 176.297 33.9346 176.297 34.4927V40.0842C176.039 40.5368 175.67 40.9183 175.225 41.1939C174.78 41.4694 174.272 41.6303 173.748 41.6618C172.468 41.6618 171.99 40.9535 171.99 39.0324V32.5501H170.96L168.91 32.8721V33.2048L169.463 33.677C169.648 33.8087 169.792 33.9892 169.878 34.198C169.965 34.4067 169.99 34.6353 169.951 34.8576V39.7408C169.951 42.0911 170.916 43.2395 172.869 43.2395L172.891 43.261ZM180.82 43.0034H186.005V42.5634L185.061 42.2843C184.616 42.1555 184.464 41.9624 184.464 41.4365V35.3942C184.745 34.9301 185.135 34.5409 185.602 34.2603C186.069 33.9797 186.598 33.8163 187.144 33.7844C188.445 33.7844 188.901 34.5249 188.901 36.3708V41.4365C188.901 41.9409 188.771 42.1555 188.304 42.2843L187.361 42.5634V43.0034H192.611V42.5634L191.526 42.2414C191.07 42.1126 190.929 41.898 190.929 41.3935V36.0274C190.929 33.5697 189.942 32.2711 187.968 32.2711C186.699 32.2711 185.441 33.1404 184.388 34.8576V32.5501H183.423L181.384 33.0975V33.4195L181.926 33.8917C182.11 34.0242 182.254 34.2048 182.34 34.4133C182.426 34.6218 182.452 34.85 182.414 35.0722V41.3721C182.414 41.8765 182.284 42.0697 181.818 42.2199L180.809 42.5419V42.9819L180.82 43.0034ZM193.836 47.5431C196.114 47.4358 197.416 46.2231 198.533 43.1751L201.787 34.3961C201.948 33.9475 202.229 33.5506 202.601 33.2477L202.774 33.0975V32.636H199.455V33.119L200.182 33.3336C200.551 33.4409 200.659 33.5912 200.659 33.8273C200.663 34.0712 200.626 34.3141 200.55 34.5463L198.815 40.5886L195.789 34.3317C195.716 34.1722 195.672 34.0016 195.659 33.8273C195.659 33.5912 195.745 33.4624 196.136 33.3551L197.079 33.119V32.636H192.556V33.0653C192.933 33.3775 193.233 33.7701 193.435 34.2136L197.774 42.9712C197.561 43.8168 197.061 44.5646 196.359 45.09C195.656 45.6153 194.792 45.8865 193.912 45.8582V47.5109L193.836 47.5431ZM207.449 42.2414C206.365 42.2414 205.757 41.5653 205.757 40.3525C205.757 39.1398 206.592 38.1309 208.512 37.7016L209.413 37.487V39.6334C209.413 41.093 208.534 42.2843 207.449 42.2843V42.2414ZM206.679 43.3146C207.296 43.2983 207.895 43.105 208.404 42.7582C208.912 42.4115 209.308 41.9263 209.543 41.3613C209.608 42.5741 210.237 43.2931 211.257 43.2931C211.808 43.2641 212.353 43.1557 212.873 42.9712L213.079 42.9068V42.5741L212.179 42.338C212.067 42.3235 211.959 42.2872 211.862 42.2311C211.765 42.1751 211.68 42.1004 211.612 42.0114C211.545 41.9225 211.496 41.8211 211.468 41.7131C211.44 41.6052 211.435 41.4929 211.452 41.3828V36.0703C211.452 33.5304 210.146 32.2568 207.536 32.2496C206.398 32.2716 205.283 32.5623 204.282 33.0975V35.4157H204.564C205.226 33.8702 206.234 32.9794 207.417 32.9794C208.848 32.9794 209.467 33.7844 209.467 35.523V36.8967L208.274 37.1543C205.02 37.8519 203.772 38.7856 203.772 40.5457C203.757 40.9242 203.824 41.3015 203.971 41.6513C204.118 42.0012 204.34 42.3152 204.622 42.5716C204.904 42.828 205.238 43.0205 205.603 43.1359C205.968 43.2512 206.353 43.2866 206.733 43.2395L206.679 43.3146Z" fill="white"/>
<path d="M102.689 22.0661C105.769 22.0661 107.635 20.0055 107.635 16.0883V9.80987C107.635 9.02642 107.765 8.73664 108.297 8.59712L109.479 8.22149V7.74928H104.446V8.22149L105.726 8.61859C106.355 8.81177 106.518 9.06935 106.518 9.9172V16.5497C106.518 19.6728 105.064 21.3685 102.884 21.3685C100.704 21.3685 99.63 19.6514 99.63 16.378V9.93866C99.63 9.09081 99.7819 8.86543 100.422 8.64005L101.691 8.24296V7.77074H95.519V8.24296L96.658 8.61859C97.1895 8.79031 97.3196 9.04788 97.3196 9.83134V15.8521C97.3196 20.0055 99.207 22.0876 102.678 22.0876L102.689 22.0661ZM110.076 21.7871H115.261V21.3471L114.306 21.068C113.872 20.9392 113.72 20.7461 113.72 20.2202V14.1779C114 13.7139 114.391 13.3246 114.858 13.044C115.325 12.7634 115.854 12.6 116.4 12.5681C117.69 12.5681 118.157 13.3086 118.157 15.1545V20.188C118.157 20.6924 118.027 20.907 117.56 21.0358L116.616 21.3149V21.7549H121.866V21.3149L120.782 20.9929C120.315 20.8641 120.185 20.6495 120.185 20.145V14.8218C120.185 12.3642 119.198 11.0655 117.224 11.0655C115.944 11.0655 114.697 11.9349 113.644 13.652V11.3553H112.679L110.629 11.9027V12.2246L111.182 12.6968C111.363 12.8315 111.504 13.0128 111.588 13.221C111.672 13.4292 111.697 13.6562 111.659 13.8774V20.188C111.659 20.6924 111.529 20.8856 111.074 21.0358L110.065 21.3578V21.7978L110.076 21.7871ZM125.034 9.24107C125.284 9.23895 125.529 9.1635 125.736 9.02424C125.943 8.88499 126.104 8.68815 126.198 8.45852C126.293 8.2289 126.316 7.97677 126.266 7.7339C126.216 7.49104 126.094 7.2683 125.916 7.09377C125.739 6.91923 125.512 6.8007 125.267 6.75311C125.021 6.70552 124.766 6.73101 124.535 6.82635C124.303 6.9217 124.106 7.08264 123.967 7.2889C123.828 7.49515 123.754 7.73749 123.754 7.98538C123.748 8.15284 123.777 8.31974 123.839 8.47556C123.901 8.63138 123.995 8.77274 124.116 8.89072C124.236 9.0087 124.38 9.10074 124.538 9.16104C124.696 9.22134 124.865 9.24859 125.034 9.24107ZM122.571 21.7871H127.995V21.3471L126.834 21.0251C126.368 20.8963 126.238 20.6817 126.238 20.1772V11.3553H125.153L123.103 11.9027V12.2246L123.656 12.6968C123.839 12.8302 123.982 13.0109 124.068 13.2192C124.154 13.4275 124.181 13.6552 124.144 13.8774V20.188C124.162 20.2824 124.16 20.3793 124.139 20.473C124.118 20.5668 124.079 20.6556 124.024 20.7343C123.968 20.8131 123.898 20.8802 123.816 20.932C123.734 20.9837 123.643 21.019 123.548 21.0358L122.539 21.3578V21.7978L122.571 21.7871ZM132.985 21.7871H133.874L137.367 13.3301C137.597 12.7572 137.97 12.2513 138.451 11.8597V11.3982H135.197V11.8597L135.837 12.01C136.206 12.0958 136.412 12.2676 136.412 12.5466C136.39 12.8501 136.328 13.1496 136.228 13.4374L134.145 19.4153L131.705 13.4374C131.583 13.1923 131.509 12.9264 131.488 12.6539C131.488 12.4178 131.618 12.2676 132.008 12.1388L132.909 11.8597V11.3982H128.342V11.8061C128.686 12.0582 128.953 12.4001 129.112 12.7934L132.985 21.7871ZM144.005 22.0017C144.667 22.0015 145.32 21.8548 145.917 21.5726C146.513 21.2903 147.039 20.8796 147.455 20.3704V19.8338C146.628 20.4715 145.606 20.8087 144.558 20.789C142.389 20.789 141.239 19.0718 141.239 16.0453H147.563C147.578 15.7629 147.578 15.4799 147.563 15.1975C147.563 12.5037 146.229 11.0119 143.832 11.0119C141.022 11.0119 139.07 13.2227 139.07 16.4424C139.07 19.9626 140.87 22.0017 143.962 22.0017H144.005ZM141.283 15.4228C141.413 13.1798 142.367 11.6129 143.745 11.6129C144.905 11.6129 145.589 12.611 145.589 14.3496C145.589 14.9399 145.589 15.1975 145.589 15.4228H141.283ZM148.778 21.7442H154.614V21.2612L153.008 20.9178C152.574 20.8105 152.422 20.5958 152.422 20.0699V15.0258C153.117 13.7272 154.028 13.2442 155.915 13.1369V11.0977C154.31 11.248 153.323 12.171 152.357 14.5321V11.3124H151.392L149.342 11.8597V12.1817L149.895 12.6539C150.076 12.7885 150.217 12.9698 150.301 13.178C150.385 13.3862 150.41 13.6133 150.372 13.8345V20.188C150.372 20.6924 150.242 20.8856 149.787 21.0358L148.778 21.3578V21.7978V21.7442ZM160.395 21.9803C162.792 21.9803 164.322 20.6817 164.322 18.6533C164.316 18.0106 164.091 17.3886 163.683 16.888C163.276 16.3875 162.71 16.0376 162.076 15.8951L160.796 15.4872C159.592 15.0902 159.083 14.5321 159.083 13.4803C159.064 13.2443 159.096 13.0071 159.177 12.7844C159.258 12.5616 159.385 12.3583 159.551 12.1879C159.717 12.0176 159.918 11.8839 160.14 11.7959C160.362 11.7079 160.601 11.6675 160.84 11.6773C161.924 11.6773 162.619 12.2461 163.302 13.5018L163.541 13.9633H163.812V11.4841C162.895 11.1885 161.935 11.0435 160.97 11.0548C158.8 11.0548 157.26 12.332 157.26 14.1135C157.26 15.8951 158.074 16.7215 159.961 17.3332L161.046 17.6552C162.131 18.0093 162.608 18.5674 162.608 19.5011C162.626 19.768 162.585 20.0356 162.486 20.2845C162.387 20.5334 162.233 20.7575 162.036 20.9403C161.838 21.1232 161.602 21.2604 161.345 21.3419C161.087 21.4233 160.815 21.4471 160.547 21.4115C159.365 21.4115 158.551 20.7246 157.824 19.265L157.651 18.9001H157.38V21.4329C158.361 21.8678 159.428 22.084 160.503 22.0661L160.395 21.9803ZM167.923 9.19813C168.174 9.19813 168.419 9.12449 168.628 8.98651C168.837 8.84854 168.999 8.65243 169.095 8.42299C169.191 8.19354 169.217 7.94107 169.168 7.69749C169.119 7.45391 168.998 7.23017 168.82 7.05456C168.643 6.87895 168.417 6.75936 168.17 6.71091C167.924 6.66246 167.669 6.68733 167.437 6.78237C167.205 6.87741 167.007 7.03834 166.868 7.24484C166.728 7.45133 166.654 7.6941 166.654 7.94245C166.649 8.10856 166.679 8.27383 166.741 8.42818C166.803 8.58253 166.897 8.72272 167.015 8.84022C167.134 8.95771 167.276 9.05004 167.432 9.11158C167.588 9.17311 167.755 9.20257 167.923 9.19813ZM165.461 21.7442H170.884V21.3041L169.713 20.9822C169.257 20.8534 169.127 20.6387 169.127 20.1343V11.3553H168.042L166.003 11.9027V12.2246L166.556 12.6968C166.737 12.8315 166.878 13.0128 166.962 13.221C167.046 13.4292 167.071 13.6562 167.033 13.8774V20.188C167.033 20.6924 166.903 20.8856 166.448 21.0358L165.428 21.3578V21.7978L165.461 21.7442ZM175.874 22.0017C176.345 21.9991 176.811 21.8951 177.238 21.6968C177.665 21.4985 178.043 21.2107 178.347 20.8534V20.4563C177.93 20.7201 177.442 20.8512 176.948 20.8319C175.668 20.8319 175.049 20.2846 175.049 18.9001V12.2246H178.043V11.4412H175.093V8.98348H173.563L173.27 10.4216C173.14 11.1407 173.01 11.2909 172.435 11.4948L171.806 11.731V12.2139H173.053V19.1148C173.053 21.0466 174.041 22.0447 175.906 22.0447L175.874 22.0017ZM183.304 20.9285C182.219 20.9285 181.612 20.2524 181.612 19.0396C181.612 17.8269 182.447 16.818 184.356 16.3888L185.256 16.1741V18.3206C185.256 19.7802 184.378 20.9714 183.304 20.9714V20.9285ZM182.534 22.0017C183.149 21.9833 183.746 21.7891 184.252 21.4425C184.758 21.0959 185.152 20.6117 185.387 20.0485C185.452 21.2612 186.092 21.9803 187.1 21.9803C187.656 21.9515 188.204 21.8431 188.727 21.6583L188.923 21.5939V21.2612L188.022 21.0251C187.798 20.9932 187.596 20.8748 187.46 20.6958C187.324 20.5169 187.265 20.2918 187.296 20.0699V14.8755C187.296 12.332 186.005 11.0548 183.391 11.0548C182.231 11.0682 181.093 11.3591 180.072 11.9027V14.2208H180.354C181.015 12.6754 182.024 11.7846 183.217 11.7846C184.638 11.7846 185.256 12.5895 185.256 14.3282V15.7019L184.074 15.9595C180.82 16.6571 179.562 17.5908 179.562 19.3509C179.548 19.7299 179.617 20.1073 179.765 20.4572C179.913 20.807 180.136 21.1209 180.419 21.377C180.701 21.6332 181.037 21.8256 181.402 21.9408C181.767 22.0561 182.153 22.0915 182.534 22.0447V22.0017ZM193.891 22.0017C194.368 21.9954 194.837 21.8855 195.267 21.6796C195.696 21.4737 196.074 21.177 196.375 20.8105V20.4134C195.954 20.6768 195.462 20.8077 194.964 20.789C193.695 20.789 193.077 20.2416 193.077 18.8572V12.2246H196.06V11.4412H193.077V8.98348H191.537L191.255 10.4216C191.125 11.1407 190.994 11.2909 190.42 11.4948L189.78 11.731V12.2139H191.038V19.1148C191.038 21.0466 192.025 22.0447 193.891 22.0447V22.0017ZM207.688 22.0017C211.333 22.0017 213.849 19.0289 213.849 14.7038C213.849 10.3787 211.398 7.39511 207.688 7.39511C203.978 7.39511 201.505 10.3787 201.505 14.7038C201.505 19.0289 203.967 22.0017 207.688 22.0017ZM207.688 8.04978C209.944 8.04978 211.311 10.5075 211.311 14.6609C211.311 18.9538 210.096 21.2612 207.775 21.2612C205.454 21.2612 204.141 18.8142 204.141 14.6609C204.141 10.3679 205.356 8.04978 207.688 8.04978ZM220.813 21.3685C219.587 21.3685 218.73 20.2953 218.73 18.6103V13.5662C218.954 13.2396 219.255 12.9714 219.606 12.7845C219.957 12.5976 220.349 12.4976 220.748 12.4929C222.483 12.4929 223.47 14.0384 223.47 16.7859C223.47 19.6514 222.505 21.4544 220.813 21.4544V21.3685ZM216.691 22.1305H217.19L217.613 21.1753C218.535 21.7354 219.601 22.0222 220.683 22.0017C223.807 22.0017 225.781 19.8553 225.781 16.3566C225.781 13.1369 224.262 11.0548 221.811 11.0548C221.164 11.0216 220.522 11.1846 219.972 11.5222C219.421 11.8598 218.988 12.3558 218.73 12.9437V6.43994H217.646L214.988 6.81557V7.22339L216.073 7.68488C216.266 7.76005 216.427 7.89731 216.531 8.0745C216.636 8.25169 216.677 8.45849 216.648 8.66152V22.1305H216.691ZM232.484 22.0447C233.145 22.0429 233.798 21.8956 234.395 21.6134C234.991 21.3313 235.517 20.9214 235.934 20.4134V19.8767C235.104 20.516 234.078 20.8533 233.027 20.8319C230.857 20.8319 229.707 19.1148 229.707 16.0883H236.042C236.057 15.8058 236.057 15.5228 236.042 15.2404C236.042 12.5466 234.697 11.0548 232.3 11.0548C229.49 11.0548 227.538 13.2657 227.538 16.4853C227.538 20.0055 229.339 22.0447 232.441 22.0447H232.484ZM229.762 15.4658C229.892 13.2227 230.901 11.6558 232.213 11.6558C233.526 11.6558 234.057 12.6539 234.057 14.3926C234.057 14.9828 234.057 15.2404 234.057 15.4658H229.762ZM237.246 21.7871H243.093V21.2612L241.487 20.9178C241.043 20.8105 240.891 20.5958 240.891 20.0699V15.0258C241.596 13.7272 242.496 13.2442 244.383 13.1369V11.0977C242.778 11.248 241.791 12.171 240.826 14.5321V11.3124H239.86L237.821 11.8597V12.1817L238.363 12.6539C238.548 12.7864 238.691 12.9671 238.777 13.1756C238.863 13.3841 238.889 13.6123 238.852 13.8345V20.188C238.852 20.6924 238.721 20.8856 238.255 21.0358L237.246 21.3578V21.7978V21.7871ZM249.568 22.0447C250.054 22.0463 250.535 21.9401 250.974 21.734C251.413 21.5278 251.8 21.2269 252.107 20.8534V20.4563C251.686 20.7197 251.194 20.8507 250.696 20.8319C249.427 20.8319 248.809 20.2846 248.809 18.9001V12.2246H251.803V11.4412H248.809V8.98348H247.269L246.987 10.4216C246.857 11.1407 246.726 11.2909 246.152 11.4948L245.512 11.731V12.2139H246.683V19.1148C246.683 21.0466 247.67 22.0447 249.536 22.0447H249.568ZM256.999 20.9714C255.914 20.9714 255.306 20.2953 255.306 19.0826C255.306 17.8698 256.142 16.861 258.051 16.4317L258.951 16.217V18.3635C258.951 19.8231 258.072 21.0144 256.999 21.0144V20.9714ZM256.228 22.0447C256.844 22.0263 257.441 21.832 257.947 21.4854C258.453 21.1388 258.847 20.6547 259.081 20.0914C259.146 21.3041 259.786 22.0232 260.795 22.0232C261.35 21.9934 261.898 21.885 262.422 21.7012L262.617 21.6368V21.2612L261.717 21.0251C261.605 21.0106 261.498 20.9743 261.401 20.9182C261.303 20.8622 261.219 20.7875 261.151 20.6985C261.083 20.6096 261.034 20.5082 261.007 20.4002C260.979 20.2923 260.973 20.18 260.99 20.0699V14.8755C260.99 12.332 259.699 11.0548 257.085 11.0548C255.926 11.0669 254.787 11.3579 253.766 11.9027V14.2208H254.048C254.71 12.6754 255.719 11.7846 256.901 11.7846C258.333 11.7846 258.951 12.5895 258.951 14.3282V15.7019L257.758 15.9595C254.504 16.6571 253.256 17.5908 253.256 19.3509C253.242 19.7299 253.312 20.1073 253.46 20.4572C253.608 20.807 253.831 21.1209 254.113 21.377C254.396 21.6332 254.732 21.8256 255.097 21.9408C255.462 22.0561 255.848 22.0915 256.228 22.0447Z" fill="white"/>
</svg>
