<?xml version="1.0" standalone="no"?><!DOCTYPE svg PUBLIC "-//W3C//DTD SVG 1.1//EN" "http://www.w3.org/Graphics/SVG/1.1/DTD/svg11.dtd" ><svg version="1.1" xmlns="http://www.w3.org/2000/svg"><defs><font horiz-adv-x="0" id="font"><font-face ascent="910" bbox="-123 -250 991 890" cap-height="646" descent="-240" font-family="UOC Serif" font-stretch="normal" font-style="normal" font-weight="400" units-per-em="1000" x-height="478" /><missing-glyph d="M529 0H71V646H529ZM171 559V87H429V559Z" horiz-adv-x="600" /><glyph d="M266 483 153 235H308ZM134 0H-41L-38 21Q-17 45 -4.5 62.5Q8 80 19 102L307 651H363L484 90Q489 63 497 49.5Q505 36 521 23L517 0H265L269 23L309 38Q320 43 327 51Q334 59 334 68Q334 75 333 84.5Q332 94 330 106L315 195H134L93 104Q86 89 83 80Q80 71 80 65Q80 56 84.5 50Q89 44 99 40L138 23Z" glyph-name="A" horiz-adv-x="563" unicode="A" /><glyph d="M311 255 353 523 181 255ZM74 35 113 24 109 0H-53L-49 21Q-24 47 -9.5 64.5Q5 82 23 109L318 551Q326 564 328.5 571Q331 578 331 583Q331 593 327.5 598.5Q324 604 316 607L274 620L278 646H779L751 468H729L703 543Q690 579 672.5 592.5Q655 606 621 606H498L458 353H547Q564 353 575 360.5Q586 368 601 390L634 440H656L622 224H601L582 278Q575 298 566 305Q557 312 541 312H452L426 147Q423 132 421.5 117Q420 102 420 95Q420 67 437 53.5Q454 40 488 40H533Q569 40 594 57Q619 74 646 118L694 196H717L686 0H198L202 24L242 40Q265 49 273.5 61Q282 73 286 100L305 217H156L80 98Q70 83 65 72.5Q60 62 60 57Q60 47 63.5 42Q67 37 74 35Z" glyph-name="AE" horiz-adv-x="773" unicode="&#198;" /><glyph d="M645 800 479 696H436L486 807H646ZM311 256 353 524 181 256ZM74 36 113 25 109 1H-53L-49 22Q-24 48 -9.5 65.5Q5 83 23 110L318 552Q326 565 328.5 572Q331 579 331 584Q331 594 327.5 599.5Q324 605 316 608L274 621L278 647H779L751 469H729L703 544Q690 580 672.5 593.5Q655 607 621 607H498L458 354H547Q564 354 575 361.5Q586 369 601 391L634 441H656L622 225H601L582 279Q575 299 566 306Q557 313 541 313H452L426 148Q423 133 421.5 118Q420 103 420 96Q420 68 437 54.5Q454 41 488 41H533Q569 41 594 58Q619 75 646 119L694 197H717L686 1H198L202 25L242 41Q265 50 273.5 62Q282 74 286 101L305 218H156L80 99Q70 84 65 73.5Q60 63 60 58Q60 48 63.5 43Q67 38 74 36Z" glyph-name="AEacute" horiz-adv-x="773" unicode="&#508;" /><glyph d="M266 483 153 235H308ZM134 0H-41L-38 21Q-17 45 -4.5 62.5Q8 80 19 102L307 651H363L484 90Q489 63 497 49.5Q505 36 521 23L517 0H265L269 23L309 38Q320 43 327 51Q334 59 334 68Q334 75 333 84.5Q332 94 330 106L315 195H134L93 104Q86 89 83 80Q80 71 80 65Q80 56 84.5 50Q89 44 99 40L138 23ZM522 800 356 696H313L363 807H523Z" glyph-name="Aacute" horiz-adv-x="563" unicode="&#193;" /><glyph d="M266 483 153 235H308ZM134 0H-41L-38 21Q-17 45 -4.5 62.5Q8 80 19 102L307 651H363L484 90Q489 63 497 49.5Q505 36 521 23L517 0H265L269 23L309 38Q320 43 327 51Q334 59 334 68Q334 75 333 84.5Q332 94 330 106L315 195H134L93 104Q86 89 83 80Q80 71 80 65Q80 56 84.5 50Q89 44 99 40L138 23ZM444 830H468Q456 758 425.5 724.5Q395 691 342 691Q299 691 277.5 714Q256 737 256 782Q256 790 257 801.5Q258 813 261 830H285Q288 801 304.5 787.5Q321 774 355 774Q388 774 409 787.5Q430 801 444 830Z" glyph-name="Abreve" horiz-adv-x="563" unicode="&#258;" /><glyph d="M266 483 153 235H308ZM134 0H-41L-38 21Q-17 45 -4.5 62.5Q8 80 19 102L307 651H363L484 90Q489 63 497 49.5Q505 36 521 23L517 0H265L269 23L309 38Q320 43 327 51Q334 59 334 68Q334 75 333 84.5Q332 94 330 106L315 195H134L93 104Q86 89 83 80Q80 71 80 65Q80 56 84.5 50Q89 44 99 40L138 23ZM233 688V691L307 820H420L449 691V688H420L353 758L261 688Z" glyph-name="Acircumflex" horiz-adv-x="563" unicode="&#194;" /><glyph d="M266 483 153 235H308ZM134 0H-41L-38 21Q-17 45 -4.5 62.5Q8 80 19 102L307 651H363L484 90Q489 63 497 49.5Q505 36 521 23L517 0H265L269 23L309 38Q320 43 327 51Q334 59 334 68Q334 75 333 84.5Q332 94 330 106L315 195H134L93 104Q86 89 83 80Q80 71 80 65Q80 56 84.5 50Q89 44 99 40L138 23ZM510 782Q510 750 488.5 728.5Q467 707 435 707Q409 707 393.5 721.5Q378 736 378 761Q378 793 399.5 814Q421 835 454 835Q479 835 494.5 820.5Q510 806 510 782ZM333 782Q333 750 311.5 728.5Q290 707 258 707Q232 707 216.5 721.5Q201 736 201 761Q201 793 222.5 814Q244 835 277 835Q302 835 317.5 820.5Q333 806 333 782Z" glyph-name="Adieresis" horiz-adv-x="563" unicode="&#196;" /><glyph d="M266 483 153 235H308ZM134 0H-41L-38 21Q-17 45 -4.5 62.5Q8 80 19 102L307 651H363L484 90Q489 63 497 49.5Q505 36 521 23L517 0H265L269 23L309 38Q320 43 327 51Q334 59 334 68Q334 75 333 84.5Q332 94 330 106L315 195H134L93 104Q86 89 83 80Q80 71 80 65Q80 56 84.5 50Q89 44 99 40L138 23ZM356 696H313L181 800L182 807H340Z" glyph-name="Agrave" horiz-adv-x="563" unicode="&#192;" /><glyph d="M266 483 153 235H308ZM134 0H-41L-38 21Q-17 45 -4.5 62.5Q8 80 19 102L307 651H363L484 90Q489 63 497 49.5Q505 36 521 23L517 0H265L269 23L309 38Q320 43 327 51Q334 59 334 68Q334 75 333 84.5Q332 94 330 106L315 195H134L93 104Q86 89 83 80Q80 71 80 65Q80 56 84.5 50Q89 44 99 40L138 23ZM460 729H237L246 787H469Z" glyph-name="Amacron" horiz-adv-x="563" unicode="&#256;" /><glyph d="M322 -217Q283 -217 262 -199.5Q241 -182 241 -149Q241 -105 280 -64.5Q319 -24 383 0H265L269 23L309 38Q320 43 327 51Q334 59 334 68Q334 75 333 84.5Q332 94 330 106L315 195H134L93 104Q86 89 83 80Q80 71 80 65Q80 56 84.5 50Q89 44 99 40L138 23L134 0H-41L-38 21Q-17 45 -4.5 62.5Q8 80 19 102L307 651H363L484 90Q489 63 497 49.5Q505 36 521 23L517 0H424Q380 -29 358.5 -59.5Q337 -90 337 -122Q337 -141 348 -151.5Q359 -162 378 -162Q393 -162 407 -157.5Q421 -153 437 -143L432 -171Q407 -195 381 -206Q355 -217 322 -217ZM266 483 153 235H308Z" glyph-name="Aogonek" horiz-adv-x="563" unicode="&#260;" /><glyph d="M266 483 153 235H308ZM134 0H-41L-38 21Q-17 45 -4.5 62.5Q8 80 19 102L307 651H363L484 90Q489 63 497 49.5Q505 36 521 23L517 0H265L269 23L309 38Q320 43 327 51Q334 59 334 68Q334 75 333 84.5Q332 94 330 106L315 195H134L93 104Q86 89 83 80Q80 71 80 65Q80 56 84.5 50Q89 44 99 40L138 23ZM457 792Q457 744 425 714Q393 684 341 684Q300 684 278 705Q256 726 256 764Q256 812 287.5 842Q319 872 371 872Q412 872 434.5 851Q457 830 457 792ZM313 768Q313 749 323 738.5Q333 728 350 728Q373 728 386 744Q399 760 399 788Q399 807 389.5 817.5Q380 828 363 828Q339 828 326 812Q313 796 313 768Z" glyph-name="Aring" horiz-adv-x="563" unicode="&#197;" /><glyph d="M266 483 153 235H308ZM134 0H-41L-38 21Q-17 45 -4.5 62.5Q8 80 19 102L307 651H363L484 90Q489 63 497 49.5Q505 36 521 23L517 0H265L269 23L309 38Q320 43 327 51Q334 59 334 68Q334 75 333 84.5Q332 94 330 106L315 195H134L93 104Q86 89 83 80Q80 71 80 65Q80 56 84.5 50Q89 44 99 40L138 23ZM249 706H229Q237 762 260.5 791.5Q284 821 321 821Q329 821 338 818Q347 815 364 806Q381 797 390.5 794Q400 791 409 791Q426 791 437.5 800Q449 809 457 827H480Q470 768 445 737.5Q420 707 380 707Q366 707 354.5 710.5Q343 714 326 725Q314 733 307.5 735.5Q301 738 294 738Q280 738 268.5 730Q257 722 249 706Z" glyph-name="Atilde" horiz-adv-x="563" unicode="&#195;" /><glyph d="M257 0H-21L-17 23L30 43Q53 53 61.5 64Q70 75 74 101L140 517Q143 533 144.5 547Q146 561 146 566Q146 581 140 589.5Q134 598 119 604L76 622L80 646H319Q414 646 471.5 605Q529 564 529 497Q529 428 477.5 385.5Q426 343 333 335Q412 329 461 288Q510 247 510 188Q510 99 443 49.5Q376 0 257 0ZM286 607 245 353H262Q323 353 359 392.5Q395 432 395 498Q395 546 367.5 576.5Q340 607 296 607ZM257 313H239L214 156Q211 135 209 118.5Q207 102 207 93Q207 63 219 49.5Q231 36 258 36Q308 36 339.5 81Q371 126 371 196Q371 250 340 281.5Q309 313 257 313Z" glyph-name="B" horiz-adv-x="562" unicode="B" /><glyph d="M275 -14Q163 -14 100 56Q37 126 37 249Q37 427 133.5 543.5Q230 660 378 660Q425 660 478 651Q531 642 560 629L533 461H511L499 496Q477 562 449.5 591Q422 620 382 620Q299 620 241.5 503Q184 386 184 217Q184 123 211.5 74.5Q239 26 292 26Q334 26 370 58Q406 90 454 168L473 199H495L467 25Q429 5 381.5 -4.5Q334 -14 275 -14Z" glyph-name="C" horiz-adv-x="563" unicode="C" /><glyph d="M275 -14Q163 -14 100 56Q37 126 37 249Q37 427 133.5 543.5Q230 660 378 660Q425 660 478 651Q531 642 560 629L533 461H511L499 496Q477 562 449.5 591Q422 620 382 620Q299 620 241.5 503Q184 386 184 217Q184 123 211.5 74.5Q239 26 292 26Q334 26 370 58Q406 90 454 168L473 199H495L467 25Q429 5 381.5 -4.5Q334 -14 275 -14ZM560 800 394 696H351L401 807H561Z" glyph-name="Cacute" horiz-adv-x="563" unicode="&#262;" /><glyph d="M275 -14Q163 -14 100 56Q37 126 37 249Q37 427 133.5 543.5Q230 660 378 660Q425 660 478 651Q531 642 560 629L533 461H511L499 496Q477 562 449.5 591Q422 620 382 620Q299 620 241.5 503Q184 386 184 217Q184 123 211.5 74.5Q239 26 292 26Q334 26 370 58Q406 90 454 168L473 199H495L467 25Q429 5 381.5 -4.5Q334 -14 275 -14ZM434 694H321L285 823L286 826H321L388 756L479 826H512L511 823Z" glyph-name="Ccaron" horiz-adv-x="563" unicode="&#268;" /><glyph d="M361 -133Q361 -173 333 -196Q305 -219 254 -219Q229 -219 206 -208.5Q183 -198 169 -181L171 -163Q185 -170 196.5 -173Q208 -176 220 -176Q244 -176 257.5 -164.5Q271 -153 271 -132Q271 -115 258.5 -102Q246 -89 226 -85L252 -13Q151 -5 94 64Q37 133 37 249Q37 427 133.5 543.5Q230 660 378 660Q425 660 478 651Q531 642 560 629L533 461H511L499 496Q477 562 449.5 591Q422 620 382 620Q299 620 241.5 503Q184 386 184 217Q184 123 211.5 74.5Q239 26 292 26Q334 26 370 58Q406 90 454 168L473 199H495L467 25Q432 7 389.5 -3Q347 -13 294 -14L273 -57Q312 -57 336.5 -78.5Q361 -100 361 -133Z" glyph-name="Ccedilla" horiz-adv-x="563" unicode="&#199;" /><glyph d="M275 -14Q163 -14 100 56Q37 126 37 249Q37 427 133.5 543.5Q230 660 378 660Q425 660 478 651Q531 642 560 629L533 461H511L499 496Q477 562 449.5 591Q422 620 382 620Q299 620 241.5 503Q184 386 184 217Q184 123 211.5 74.5Q239 26 292 26Q334 26 370 58Q406 90 454 168L473 199H495L467 25Q429 5 381.5 -4.5Q334 -14 275 -14ZM268 688V691L342 820H455L484 691V688H455L388 758L296 688Z" glyph-name="Ccircumflex" horiz-adv-x="563" unicode="&#264;" /><glyph d="M275 -14Q163 -14 100 56Q37 126 37 249Q37 427 133.5 543.5Q230 660 378 660Q425 660 478 651Q531 642 560 629L533 461H511L499 496Q477 562 449.5 591Q422 620 382 620Q299 620 241.5 503Q184 386 184 217Q184 123 211.5 74.5Q239 26 292 26Q334 26 370 58Q406 90 454 168L473 199H495L467 25Q429 5 381.5 -4.5Q334 -14 275 -14ZM460 783Q460 749 437.5 726.5Q415 704 380 704Q353 704 336.5 719Q320 734 320 760Q320 795 342.5 817Q365 839 400 839Q427 839 443.5 823.5Q460 808 460 783Z" glyph-name="Cdotaccent" horiz-adv-x="563" unicode="&#266;" /><glyph d="M76 622 80 646H282Q430 646 517.5 568.5Q605 491 605 360Q605 190 509 95Q413 0 241 0H-21L-17 23L30 43Q53 53 61 63.5Q69 74 74 101L140 517Q143 536 144.5 549Q146 562 146 566Q146 581 140 589Q134 597 119 604ZM297 604 286 605 216 164Q213 148 211.5 131Q210 114 210 104Q210 74 230 56.5Q250 39 285 39Q362 39 410.5 128.5Q459 218 459 360Q459 461 413 529.5Q367 598 297 604Z" glyph-name="D" horiz-adv-x="633" unicode="D" /><glyph d="M76 622 80 646H282Q430 646 517.5 568.5Q605 491 605 360Q605 190 509 95Q413 0 241 0H-21L-17 23L30 43Q53 53 61 63.5Q69 74 74 101L140 517Q143 536 144.5 549Q146 562 146 566Q146 581 140 589Q134 597 119 604ZM297 604 286 605 216 164Q213 148 211.5 131Q210 114 210 104Q210 74 230 56.5Q250 39 285 39Q362 39 410.5 128.5Q459 218 459 360Q459 461 413 529.5Q367 598 297 604ZM416 694H303L267 823L268 826H303L370 756L461 826H494L493 823Z" glyph-name="Dcaron" horiz-adv-x="633" unicode="&#270;" /><glyph d="M605 360Q605 190 509 95Q413 0 241 0H-21L-17 23L30 43Q53 53 61 63.5Q69 74 74 101L107 312H50L56 352H114L140 517Q143 536 144.5 549Q146 562 146 566Q146 581 140 589Q134 597 119 604L76 622L80 646H282Q430 646 517.5 568.5Q605 491 605 360ZM210 104Q210 74 230 56.5Q250 39 285 39Q365 39 412 126.5Q459 214 459 360Q459 461 413 529.5Q367 598 297 604L286 605L246 352H339L333 312H239L216 164Q213 148 211.5 131Q210 114 210 104Z" glyph-name="Dcroat" horiz-adv-x="633" unicode="&#272;" /><glyph d="M463 0H10L16 33L312 652H369L469 33ZM285 511 76 52H341Z" glyph-name="Delta" horiz-adv-x="566" unicode="&#8710;" /><glyph d="M76 622 80 646H562L534 468H512L486 543Q473 579 455.5 592.5Q438 606 404 606H286L245 353H331Q348 353 359 360.5Q370 368 385 390L418 440H440L406 224H385L366 279Q359 299 350 306Q341 313 325 313H240L213 147Q210 132 208.5 117Q207 102 207 95Q207 67 223 53.5Q239 40 273 40H316Q352 40 377 57Q402 74 429 118L477 196H500L469 0H-21L-17 23L30 43Q53 53 61.5 64Q70 75 74 101L140 517Q143 533 144.5 547Q146 561 146 566Q146 581 140 589.5Q134 598 119 604Z" glyph-name="E" horiz-adv-x="557" unicode="E" /><glyph d="M76 622 80 646H562L534 468H512L486 543Q473 579 455.5 592.5Q438 606 404 606H286L245 353H331Q348 353 359 360.5Q370 368 385 390L418 440H440L406 224H385L366 279Q359 299 350 306Q341 313 325 313H240L213 147Q210 132 208.5 117Q207 102 207 95Q207 67 223 53.5Q239 40 273 40H316Q352 40 377 57Q402 74 429 118L477 196H500L469 0H-21L-17 23L30 43Q53 53 61.5 64Q70 75 74 101L140 517Q143 533 144.5 547Q146 561 146 566Q146 581 140 589.5Q134 598 119 604ZM534 800 368 696H325L375 807H535Z" glyph-name="Eacute" horiz-adv-x="557" unicode="&#201;" /><glyph d="M76 622 80 646H562L534 468H512L486 543Q473 579 455.5 592.5Q438 606 404 606H286L245 353H331Q348 353 359 360.5Q370 368 385 390L418 440H440L406 224H385L366 279Q359 299 350 306Q341 313 325 313H240L213 147Q210 132 208.5 117Q207 102 207 95Q207 67 223 53.5Q239 40 273 40H316Q352 40 377 57Q402 74 429 118L477 196H500L469 0H-21L-17 23L30 43Q53 53 61.5 64Q70 75 74 101L140 517Q143 533 144.5 547Q146 561 146 566Q146 581 140 589.5Q134 598 119 604ZM453 830H477Q465 758 434.5 724.5Q404 691 351 691Q308 691 286.5 714Q265 737 265 782Q265 790 266 801.5Q267 813 270 830H294Q297 801 313.5 787.5Q330 774 364 774Q397 774 418 787.5Q439 801 453 830Z" glyph-name="Ebreve" horiz-adv-x="557" unicode="&#276;" /><glyph d="M76 622 80 646H562L534 468H512L486 543Q473 579 455.5 592.5Q438 606 404 606H286L245 353H331Q348 353 359 360.5Q370 368 385 390L418 440H440L406 224H385L366 279Q359 299 350 306Q341 313 325 313H240L213 147Q210 132 208.5 117Q207 102 207 95Q207 67 223 53.5Q239 40 273 40H316Q352 40 377 57Q402 74 429 118L477 196H500L469 0H-21L-17 23L30 43Q53 53 61.5 64Q70 75 74 101L140 517Q143 533 144.5 547Q146 561 146 566Q146 581 140 589.5Q134 598 119 604ZM408 694H295L259 823L260 826H295L362 756L453 826H486L485 823Z" glyph-name="Ecaron" horiz-adv-x="557" unicode="&#282;" /><glyph d="M76 622 80 646H562L534 468H512L486 543Q473 579 455.5 592.5Q438 606 404 606H286L245 353H331Q348 353 359 360.5Q370 368 385 390L418 440H440L406 224H385L366 279Q359 299 350 306Q341 313 325 313H240L213 147Q210 132 208.5 117Q207 102 207 95Q207 67 223 53.5Q239 40 273 40H316Q352 40 377 57Q402 74 429 118L477 196H500L469 0H-21L-17 23L30 43Q53 53 61.5 64Q70 75 74 101L140 517Q143 533 144.5 547Q146 561 146 566Q146 581 140 589.5Q134 598 119 604ZM242 688V691L316 820H429L458 691V688H429L362 758L270 688Z" glyph-name="Ecircumflex" horiz-adv-x="557" unicode="&#202;" /><glyph d="M76 622 80 646H562L534 468H512L486 543Q473 579 455.5 592.5Q438 606 404 606H286L245 353H331Q348 353 359 360.5Q370 368 385 390L418 440H440L406 224H385L366 279Q359 299 350 306Q341 313 325 313H240L213 147Q210 132 208.5 117Q207 102 207 95Q207 67 223 53.5Q239 40 273 40H316Q352 40 377 57Q402 74 429 118L477 196H500L469 0H-21L-17 23L30 43Q53 53 61.5 64Q70 75 74 101L140 517Q143 533 144.5 547Q146 561 146 566Q146 581 140 589.5Q134 598 119 604ZM519 782Q519 750 497.5 728.5Q476 707 444 707Q418 707 402.5 721.5Q387 736 387 761Q387 793 408.5 814Q430 835 463 835Q488 835 503.5 820.5Q519 806 519 782ZM342 782Q342 750 320.5 728.5Q299 707 267 707Q241 707 225.5 721.5Q210 736 210 761Q210 793 231.5 814Q253 835 286 835Q311 835 326.5 820.5Q342 806 342 782Z" glyph-name="Edieresis" horiz-adv-x="557" unicode="&#203;" /><glyph d="M76 622 80 646H562L534 468H512L486 543Q473 579 455.5 592.5Q438 606 404 606H286L245 353H331Q348 353 359 360.5Q370 368 385 390L418 440H440L406 224H385L366 279Q359 299 350 306Q341 313 325 313H240L213 147Q210 132 208.5 117Q207 102 207 95Q207 67 223 53.5Q239 40 273 40H316Q352 40 377 57Q402 74 429 118L477 196H500L469 0H-21L-17 23L30 43Q53 53 61.5 64Q70 75 74 101L140 517Q143 533 144.5 547Q146 561 146 566Q146 581 140 589.5Q134 598 119 604ZM434 783Q434 749 411.5 726.5Q389 704 354 704Q327 704 310.5 719Q294 734 294 760Q294 795 316.5 817Q339 839 374 839Q401 839 417.5 823.5Q434 808 434 783Z" glyph-name="Edotaccent" horiz-adv-x="557" unicode="&#278;" /><glyph d="M76 622 80 646H562L534 468H512L486 543Q473 579 455.5 592.5Q438 606 404 606H286L245 353H331Q348 353 359 360.5Q370 368 385 390L418 440H440L406 224H385L366 279Q359 299 350 306Q341 313 325 313H240L213 147Q210 132 208.5 117Q207 102 207 95Q207 67 223 53.5Q239 40 273 40H316Q352 40 377 57Q402 74 429 118L477 196H500L469 0H-21L-17 23L30 43Q53 53 61.5 64Q70 75 74 101L140 517Q143 533 144.5 547Q146 561 146 566Q146 581 140 589.5Q134 598 119 604ZM379 696H336L204 800L205 807H363Z" glyph-name="Egrave" horiz-adv-x="557" unicode="&#200;" /><glyph d="M76 622 80 646H562L534 468H512L486 543Q473 579 455.5 592.5Q438 606 404 606H286L245 353H331Q348 353 359 360.5Q370 368 385 390L418 440H440L406 224H385L366 279Q359 299 350 306Q341 313 325 313H240L213 147Q210 132 208.5 117Q207 102 207 95Q207 67 223 53.5Q239 40 273 40H316Q352 40 377 57Q402 74 429 118L477 196H500L469 0H-21L-17 23L30 43Q53 53 61.5 64Q70 75 74 101L140 517Q143 533 144.5 547Q146 561 146 566Q146 581 140 589.5Q134 598 119 604ZM469 729H246L255 787H478Z" glyph-name="Emacron" horiz-adv-x="557" unicode="&#274;" /><glyph d="M298 -204H260Q312 -152 333 -110Q354 -68 365 5L382 115L180 506L123 135Q121 118 120 108.5Q119 99 119 95Q119 79 125 70Q131 61 147 54L216 23L212 0H-32L-29 23L24 51Q49 65 58 79Q67 93 72 119L135 468Q140 495 142 510Q144 525 144 531Q144 547 137 559Q130 571 112 585L65 621L68 646H268L495 197L540 504Q542 516 543.5 529.5Q545 543 545 549Q545 565 538.5 574.5Q532 584 516 591L448 623L452 646H695L691 622L640 595Q616 582 606.5 568Q597 554 592 526L501 21Q486 -63 438 -116Q390 -169 298 -204Z" glyph-name="Eng" horiz-adv-x="646" unicode="&#330;" /><glyph d="M449 -143 444 -171Q419 -195 393 -206Q367 -217 334 -217Q296 -217 275 -197Q254 -177 254 -143Q254 -100 292 -62Q330 -24 395 0H-21L-17 23L30 43Q53 53 61.5 64Q70 75 74 101L140 517Q143 533 144.5 547Q146 561 146 566Q146 581 140 589.5Q134 598 119 604L76 622L80 646H562L534 468H512L486 543Q473 579 455.5 592.5Q438 606 404 606H286L245 353H331Q348 353 359 360.5Q370 368 385 390L418 440H440L406 224H385L366 279Q359 299 350 306Q341 313 325 313H240L213 147Q210 132 208.5 117Q207 102 207 95Q207 67 223.5 53.5Q240 40 274 40H316Q352 40 377 57Q402 74 429 118L477 196H500L469 0H436Q392 -29 370.5 -59.5Q349 -90 349 -122Q349 -141 360 -151.5Q371 -162 390 -162Q405 -162 419 -157.5Q433 -153 449 -143Z" glyph-name="Eogonek" horiz-adv-x="557" unicode="&#280;" /><glyph d="M605 360Q605 190 509 95Q413 0 241 0H-21L-17 23L30 43Q53 53 61 63.5Q69 74 74 101L107 312H50L56 352H114L140 517Q143 536 144.5 549Q146 562 146 566Q146 581 140 589Q134 597 119 604L76 622L80 646H282Q430 646 517.5 568.5Q605 491 605 360ZM210 104Q210 74 230 56.5Q250 39 285 39Q365 39 412 126.5Q459 214 459 360Q459 461 413 529.5Q367 598 297 604L286 605L246 352H339L333 312H239L216 164Q213 148 211.5 131Q210 114 210 104Z" glyph-name="Eth" horiz-adv-x="633" unicode="&#208;" /><glyph d="M459 185 434 25Q394 4 352.5 -5Q311 -14 255 -14Q152 -14 101.5 47.5Q51 109 51 234V255H-10L1 301H54Q56 324 58 336Q60 348 62 359H14L25 405H72Q105 525 180 592.5Q255 660 356 660Q401 660 442 652Q483 644 519 629L496 473H476L465 510Q446 568 419 594Q392 620 350 620Q301 620 263 563.5Q225 507 205 405H400L390 359H197Q196 348 194.5 334Q193 320 191 301H376L365 255H189Q188 247 188 237Q188 227 188 206Q188 116 210.5 71Q233 26 278 26Q319 26 349 52Q379 78 420 150L440 185Z" glyph-name="Euro" horiz-adv-x="500" unicode="&#8364;" /><glyph d="M305 0H-21L-17 23L30 43Q53 53 61.5 64Q70 75 74 101L140 517Q143 533 144.5 547Q146 561 146 566Q146 581 140 589.5Q134 598 119 604L76 622L80 646H554L526 468H504L478 543Q466 579 447.5 592.5Q429 606 396 606H287L245 341H326Q343 341 354.5 349Q366 357 380 378L414 429H436L402 209H381L362 266Q356 286 347 293.5Q338 301 322 301H238L212 134Q209 116 207.5 105.5Q206 95 206 90Q206 74 212.5 65Q219 56 234 51L309 26Z" glyph-name="F" horiz-adv-x="530" unicode="F" /><glyph d="M509 49Q468 21 405 3.5Q342 -14 280 -14Q166 -14 101.5 57.5Q37 129 37 253Q37 431 135.5 545.5Q234 660 388 660Q446 660 490.5 651.5Q535 643 572 626L546 461H523L509 500Q486 565 456 592.5Q426 620 379 620Q293 620 238.5 506.5Q184 393 184 216Q184 121 211.5 73.5Q239 26 294 26Q313 26 328.5 32Q344 38 371 59L388 174Q391 191 392 201.5Q393 212 393 219Q393 234 387.5 243Q382 252 368 258L337 273L341 298H583L579 271L561 264Q541 256 533 246Q525 236 522 215L508 125Q506 113 505.5 103Q505 93 505 85Q505 77 506 68Q507 59 509 49Z" glyph-name="G" horiz-adv-x="607" unicode="G" /><glyph d="M509 49Q468 21 405 3.5Q342 -14 280 -14Q166 -14 101.5 57.5Q37 129 37 253Q37 431 135.5 545.5Q234 660 388 660Q446 660 490.5 651.5Q535 643 572 626L546 461H523L509 500Q486 565 456 592.5Q426 620 379 620Q293 620 238.5 506.5Q184 393 184 216Q184 121 211.5 73.5Q239 26 294 26Q313 26 328.5 32Q344 38 371 59L388 174Q391 191 392 201.5Q393 212 393 219Q393 234 387.5 243Q382 252 368 258L337 273L341 298H583L579 271L561 264Q541 256 533 246Q525 236 522 215L508 125Q506 113 505.5 103Q505 93 505 85Q505 77 506 68Q507 59 509 49ZM495 830H519Q507 758 476.5 724.5Q446 691 393 691Q350 691 328.5 714Q307 737 307 782Q307 790 308 801.5Q309 813 312 830H336Q339 801 355.5 787.5Q372 774 406 774Q439 774 460 787.5Q481 801 495 830Z" glyph-name="Gbreve" horiz-adv-x="607" unicode="&#286;" /><glyph d="M509 49Q468 21 405 3.5Q342 -14 280 -14Q166 -14 101.5 57.5Q37 129 37 253Q37 431 135.5 545.5Q234 660 388 660Q446 660 490.5 651.5Q535 643 572 626L546 461H523L509 500Q486 565 456 592.5Q426 620 379 620Q293 620 238.5 506.5Q184 393 184 216Q184 121 211.5 73.5Q239 26 294 26Q313 26 328.5 32Q344 38 371 59L388 174Q391 191 392 201.5Q393 212 393 219Q393 234 387.5 243Q382 252 368 258L337 273L341 298H583L579 271L561 264Q541 256 533 246Q525 236 522 215L508 125Q506 113 505.5 103Q505 93 505 85Q505 77 506 68Q507 59 509 49ZM284 688V691L358 820H471L500 691V688H471L404 758L312 688Z" glyph-name="Gcircumflex" horiz-adv-x="607" unicode="&#284;" /><glyph d="M509 49Q468 21 405 3.5Q342 -14 280 -14Q166 -14 101.5 57.5Q37 129 37 253Q37 431 135.5 545.5Q234 660 388 660Q446 660 490.5 651.5Q535 643 572 626L546 461H523L509 500Q486 565 456 592.5Q426 620 379 620Q293 620 238.5 506.5Q184 393 184 216Q184 121 211.5 73.5Q239 26 294 26Q313 26 328.5 32Q344 38 371 59L388 174Q391 191 392 201.5Q393 212 393 219Q393 234 387.5 243Q382 252 368 258L337 273L341 298H583L579 271L561 264Q541 256 533 246Q525 236 522 215L508 125Q506 113 505.5 103Q505 93 505 85Q505 77 506 68Q507 59 509 49ZM341 -116Q341 -164 294.5 -200.5Q248 -237 181 -243L191 -184Q234 -182 252 -176Q270 -170 282 -156Q255 -156 237.5 -143.5Q220 -131 220 -111Q220 -88 236 -74Q252 -60 280 -60Q306 -60 323.5 -75.5Q341 -91 341 -116Z" glyph-name="Gcommaaccent" horiz-adv-x="607" unicode="&#290;" /><glyph d="M509 49Q468 21 405 3.5Q342 -14 280 -14Q166 -14 101.5 57.5Q37 129 37 253Q37 431 135.5 545.5Q234 660 388 660Q446 660 490.5 651.5Q535 643 572 626L546 461H523L509 500Q486 565 456 592.5Q426 620 379 620Q293 620 238.5 506.5Q184 393 184 216Q184 121 211.5 73.5Q239 26 294 26Q313 26 328.5 32Q344 38 371 59L388 174Q391 191 392 201.5Q393 212 393 219Q393 234 387.5 243Q382 252 368 258L337 273L341 298H583L579 271L561 264Q541 256 533 246Q525 236 522 215L508 125Q506 113 505.5 103Q505 93 505 85Q505 77 506 68Q507 59 509 49ZM476 783Q476 749 453.5 726.5Q431 704 396 704Q369 704 352.5 719Q336 734 336 760Q336 795 358.5 817Q381 839 416 839Q443 839 459.5 823.5Q476 808 476 783Z" glyph-name="Gdotaccent" horiz-adv-x="607" unicode="&#288;" /><glyph d="M269 0H-21L-17 23L30 43Q53 53 61.5 64Q70 75 74 101L140 517Q143 533 144.5 547Q146 561 146 566Q146 581 140 589.5Q134 598 119 604L76 622L80 646H362L358 621L320 604Q297 593 289 582Q281 571 277 546L247 359H468L493 519Q496 535 497.5 547.5Q499 560 499 566Q499 580 493.5 588Q488 596 474 603L435 622L438 646H725L721 620L678 604Q655 596 644 581.5Q633 567 629 539L564 130Q561 111 559 98Q557 85 557 80Q557 66 563 57.5Q569 49 585 43L633 24L629 0H342L346 25L385 42Q406 51 414.5 62.5Q423 74 427 101L461 317H241L210 124Q208 107 206.5 95.5Q205 84 205 80Q205 66 210.5 58Q216 50 231 43L272 24Z" glyph-name="H" horiz-adv-x="693" unicode="H" /><glyph d="M264 467 247 359H468L485 467ZM231 43 272 24 269 0H-21L-17 23L30 43Q53 53 61.5 64Q70 75 74 101L132 467H62L68 507H138L140 517Q143 533 144.5 547Q146 561 146 566Q146 581 140 589.5Q134 598 119 604L76 622L80 646H362L358 621L320 604Q297 593 289 582Q281 571 277 546L271 507H491L493 519Q496 535 497.5 547.5Q499 560 499 566Q499 580 493.5 588Q488 596 474 603L435 622L438 646H725L721 620L678 604Q655 596 644 581.5Q633 567 629 539L624 507H696L690 467H618L564 130Q561 111 559 98Q557 85 557 80Q557 66 563 57.5Q569 49 585 43L633 24L629 0H342L346 25L385 42Q406 51 414.5 62.5Q423 74 427 101L461 317H241L210 124Q208 107 206.5 95.5Q205 84 205 80Q205 66 210.5 58Q216 50 231 43Z" glyph-name="Hbar" horiz-adv-x="693" unicode="&#294;" /><glyph d="M269 0H-21L-17 23L30 43Q53 53 61.5 64Q70 75 74 101L140 517Q143 533 144.5 547Q146 561 146 566Q146 581 140 589.5Q134 598 119 604L76 622L80 646H362L358 621L320 604Q297 593 289 582Q281 571 277 546L247 359H468L493 519Q496 535 497.5 547.5Q499 560 499 566Q499 580 493.5 588Q488 596 474 603L435 622L438 646H725L721 620L678 604Q655 596 644 581.5Q633 567 629 539L564 130Q561 111 559 98Q557 85 557 80Q557 66 563 57.5Q569 49 585 43L633 24L629 0H342L346 25L385 42Q406 51 414.5 62.5Q423 74 427 101L461 317H241L210 124Q208 107 206.5 95.5Q205 84 205 80Q205 66 210.5 58Q216 50 231 43L272 24ZM301 688V691L375 820H488L517 691V688H488L421 758L329 688Z" glyph-name="Hcircumflex" horiz-adv-x="693" unicode="&#292;" /><glyph d="M276 0H-21L-17 23L30 43Q53 53 61.5 64Q70 75 74 101L140 517Q143 533 144.5 547Q146 561 146 566Q146 581 140 589.5Q134 598 119 604L76 622L80 646H372L368 620L325 604Q302 596 291 581.5Q280 567 276 539L211 130Q208 111 206 98Q204 85 204 80Q204 66 210 57.5Q216 49 232 43L280 24Z" glyph-name="I" horiz-adv-x="340" unicode="I" /><glyph d="M276 0H-21L-17 23L30 43Q53 53 61.5 64Q70 75 74 101L140 517Q143 533 144.5 547Q146 561 146 566Q146 581 140 589.5Q134 598 119 604L76 622L80 646H372L368 620L325 604Q302 596 291 581.5Q280 567 276 539L211 130Q208 111 206 98Q204 85 204 80Q204 66 210 57.5Q216 49 232 43L280 24ZM283 -148 288 -122Q351 -81 380 -36.5Q409 8 420 78L487 517Q490 543 491 552.5Q492 562 492 566Q492 580 486 588Q480 596 464 603L419 622L423 646H717L713 618L668 600Q645 591 636 579Q627 567 623 540L558 112Q541 -2 480 -60Q419 -118 283 -148Z" glyph-name="IJ" horiz-adv-x="678" unicode="&#306;" /><glyph d="M276 0H-21L-17 23L30 43Q53 53 61.5 64Q70 75 74 101L140 517Q143 533 144.5 547Q146 561 146 566Q146 581 140 589.5Q134 598 119 604L76 622L80 646H372L368 620L325 604Q302 596 291 581.5Q280 567 276 539L211 130Q208 111 206 98Q204 85 204 80Q204 66 210 57.5Q216 49 232 43L280 24ZM283 -148 288 -122Q351 -81 380 -36.5Q409 8 420 78L487 517Q490 543 491 552.5Q492 562 492 566Q492 580 486 588Q480 596 464 603L419 622L423 646H717L713 618L668 600Q645 591 636 579Q627 567 623 540L558 112Q541 -2 480 -60Q419 -118 283 -148ZM418 800 252 696H209L259 807H419ZM751 800 585 696H542L592 807H752Z" glyph-name="IJacute" horiz-adv-x="678" /><glyph d="M276 0H-21L-17 23L30 43Q53 53 61.5 64Q70 75 74 101L140 517Q143 533 144.5 547Q146 561 146 566Q146 581 140 589.5Q134 598 119 604L76 622L80 646H372L368 620L325 604Q302 596 291 581.5Q280 567 276 539L211 130Q208 111 206 98Q204 85 204 80Q204 66 210 57.5Q216 49 232 43L280 24ZM414 800 248 696H205L255 807H415Z" glyph-name="Iacute" horiz-adv-x="340" unicode="&#205;" /><glyph d="M276 0H-21L-17 23L30 43Q53 53 61.5 64Q70 75 74 101L140 517Q143 533 144.5 547Q146 561 146 566Q146 581 140 589.5Q134 598 119 604L76 622L80 646H372L368 620L325 604Q302 596 291 581.5Q280 567 276 539L211 130Q208 111 206 98Q204 85 204 80Q204 66 210 57.5Q216 49 232 43L280 24ZM333 830H357Q345 758 314.5 724.5Q284 691 231 691Q188 691 166.5 714Q145 737 145 782Q145 790 146 801.5Q147 813 150 830H174Q177 801 193.5 787.5Q210 774 244 774Q277 774 298 787.5Q319 801 333 830Z" glyph-name="Ibreve" horiz-adv-x="340" unicode="&#300;" /><glyph d="M276 0H-21L-17 23L30 43Q53 53 61.5 64Q70 75 74 101L140 517Q143 533 144.5 547Q146 561 146 566Q146 581 140 589.5Q134 598 119 604L76 622L80 646H372L368 620L325 604Q302 596 291 581.5Q280 567 276 539L211 130Q208 111 206 98Q204 85 204 80Q204 66 210 57.5Q216 49 232 43L280 24ZM122 688V691L196 820H309L338 691V688H309L242 758L150 688Z" glyph-name="Icircumflex" horiz-adv-x="340" unicode="&#206;" /><glyph d="M276 0H-21L-17 23L30 43Q53 53 61.5 64Q70 75 74 101L140 517Q143 533 144.5 547Q146 561 146 566Q146 581 140 589.5Q134 598 119 604L76 622L80 646H372L368 620L325 604Q302 596 291 581.5Q280 567 276 539L211 130Q208 111 206 98Q204 85 204 80Q204 66 210 57.5Q216 49 232 43L280 24ZM399 782Q399 750 377.5 728.5Q356 707 324 707Q298 707 282.5 721.5Q267 736 267 761Q267 793 288.5 814Q310 835 343 835Q368 835 383.5 820.5Q399 806 399 782ZM222 782Q222 750 200.5 728.5Q179 707 147 707Q121 707 105.5 721.5Q90 736 90 761Q90 793 111.5 814Q133 835 166 835Q191 835 206.5 820.5Q222 806 222 782Z" glyph-name="Idieresis" horiz-adv-x="340" unicode="&#207;" /><glyph d="M276 0H-21L-17 23L30 43Q53 53 61.5 64Q70 75 74 101L140 517Q143 533 144.5 547Q146 561 146 566Q146 581 140 589.5Q134 598 119 604L76 622L80 646H372L368 620L325 604Q302 596 291 581.5Q280 567 276 539L211 130Q208 111 206 98Q204 85 204 80Q204 66 210 57.5Q216 49 232 43L280 24ZM314 783Q314 749 291.5 726.5Q269 704 234 704Q207 704 190.5 719Q174 734 174 760Q174 795 196.5 817Q219 839 254 839Q281 839 297.5 823.5Q314 808 314 783Z" glyph-name="Idotaccent" horiz-adv-x="340" unicode="&#304;" /><glyph d="M276 0H-21L-17 23L30 43Q53 53 61.5 64Q70 75 74 101L140 517Q143 533 144.5 547Q146 561 146 566Q146 581 140 589.5Q134 598 119 604L76 622L80 646H372L368 620L325 604Q302 596 291 581.5Q280 567 276 539L211 130Q208 111 206 98Q204 85 204 80Q204 66 210 57.5Q216 49 232 43L280 24ZM259 696H216L84 800L85 807H243Z" glyph-name="Igrave" horiz-adv-x="340" unicode="&#204;" /><glyph d="M276 0H-21L-17 23L30 43Q53 53 61.5 64Q70 75 74 101L140 517Q143 533 144.5 547Q146 561 146 566Q146 581 140 589.5Q134 598 119 604L76 622L80 646H372L368 620L325 604Q302 596 291 581.5Q280 567 276 539L211 130Q208 111 206 98Q204 85 204 80Q204 66 210 57.5Q216 49 232 43L280 24ZM349 729H126L135 787H358Z" glyph-name="Imacron" horiz-adv-x="340" unicode="&#298;" /><glyph d="M169 -143 164 -171Q139 -195 113 -206Q87 -217 54 -217Q16 -217 -5 -197Q-26 -177 -26 -143Q-26 -100 12 -62Q50 -24 115 0H-21L-17 23L30 43Q53 53 61.5 64Q70 75 74 101L140 517Q143 533 144.5 547Q146 561 146 566Q146 581 140 589.5Q134 598 119 604L76 622L80 646H372L368 620L325 604Q302 596 291 581.5Q280 567 276 539L211 130Q208 111 206 98Q204 85 204 80Q204 66 210 57.5Q216 49 232 43L280 24L276 0H156Q112 -29 90.5 -59.5Q69 -90 69 -122Q69 -141 80 -151.5Q91 -162 110 -162Q125 -162 139 -157.5Q153 -153 169 -143Z" glyph-name="Iogonek" horiz-adv-x="340" unicode="&#302;" /><glyph d="M276 0H-21L-17 23L30 43Q53 53 61.5 64Q70 75 74 101L140 517Q143 533 144.5 547Q146 561 146 566Q146 581 140 589.5Q134 598 119 604L76 622L80 646H372L368 620L325 604Q302 596 291 581.5Q280 567 276 539L211 130Q208 111 206 98Q204 85 204 80Q204 66 210 57.5Q216 49 232 43L280 24ZM138 706H118Q126 762 149.5 791.5Q173 821 210 821Q218 821 227 818Q236 815 253 806Q270 797 279.5 794Q289 791 298 791Q315 791 326.5 800Q338 809 346 827H369Q359 768 334 737.5Q309 707 269 707Q255 707 243.5 710.5Q232 714 215 725Q203 733 196.5 735.5Q190 738 183 738Q169 738 157.5 730Q146 722 138 706Z" glyph-name="Itilde" horiz-adv-x="340" unicode="&#296;" /><glyph d="M-77 -148 -72 -122Q-9 -81 20 -36.5Q49 8 60 78L127 517Q130 543 131 552.5Q132 562 132 566Q132 580 126 588Q120 596 104 603L59 622L63 646H357L353 618L308 600Q285 591 276 579Q267 567 263 540L198 112Q181 -2 120 -60Q59 -118 -77 -148Z" glyph-name="J" horiz-adv-x="318" unicode="J" /><glyph d="M-77 -148 -72 -122Q-9 -81 20 -36.5Q49 8 60 78L127 517Q130 543 131 552.5Q132 562 132 566Q132 580 126 588Q120 596 104 603L59 622L63 646H357L353 618L308 600Q285 591 276 579Q267 567 263 540L198 112Q181 -2 120 -60Q59 -118 -77 -148ZM108 688V691L182 820H295L324 691V688H295L228 758L136 688Z" glyph-name="Jcircumflex" horiz-adv-x="318" unicode="&#308;" /><glyph d="M269 0H-21L-17 23L30 43Q53 53 61.5 64Q70 75 74 101L140 517Q143 533 144.5 547Q146 561 146 566Q146 581 140 589.5Q134 598 119 604L76 622L80 646H362L358 621L320 604Q297 593 289 582Q281 571 277 546L210 124Q208 107 206.5 95.5Q205 84 205 80Q205 66 210.5 58Q216 50 231 43L272 24ZM253 306 257 330Q292 359 352.5 421.5Q413 484 475 555Q484 566 488.5 574Q493 582 493 588Q493 596 488.5 601Q484 606 474 610L445 622L449 646H668L665 624Q629 603 603.5 584.5Q578 566 553 544L367 375Q431 246 482 160Q533 74 574 23L570 0H414Q384 41 344 116.5Q304 192 253 306Z" glyph-name="K" horiz-adv-x="615" unicode="K" /><glyph d="M269 0H-21L-17 23L30 43Q53 53 61.5 64Q70 75 74 101L140 517Q143 533 144.5 547Q146 561 146 566Q146 581 140 589.5Q134 598 119 604L76 622L80 646H362L358 621L320 604Q297 593 289 582Q281 571 277 546L210 124Q208 107 206.5 95.5Q205 84 205 80Q205 66 210.5 58Q216 50 231 43L272 24ZM253 306 257 330Q292 359 352.5 421.5Q413 484 475 555Q484 566 488.5 574Q493 582 493 588Q493 596 488.5 601Q484 606 474 610L445 622L449 646H668L665 624Q629 603 603.5 584.5Q578 566 553 544L367 375Q431 246 482 160Q533 74 574 23L570 0H414Q384 41 344 116.5Q304 192 253 306ZM340 -116Q340 -164 293.5 -200.5Q247 -237 180 -243L190 -184Q233 -182 251 -176Q269 -170 281 -156Q254 -156 236.5 -143.5Q219 -131 219 -111Q219 -88 235 -74Q251 -60 279 -60Q305 -60 322.5 -75.5Q340 -91 340 -116Z" glyph-name="Kcommaaccent" horiz-adv-x="615" unicode="&#310;" /><glyph d="M446 0H-21L-17 23L30 43Q53 53 61.5 64Q70 75 74 101L140 517Q143 533 144.5 547Q146 561 146 566Q146 581 140 589.5Q134 598 119 604L76 622L80 646H381L377 619L323 599Q299 591 289.5 578.5Q280 566 276 539L214 147Q211 126 209.5 112.5Q208 99 208 93Q208 66 223 52Q238 38 268 38H280Q320 38 347.5 59.5Q375 81 410 138L454 209H481Z" glyph-name="L" horiz-adv-x="514" unicode="L" /><glyph d="M446 0H-21L-17 23L30 43Q53 53 61.5 64Q70 75 74 101L140 517Q143 533 144.5 547Q146 561 146 566Q146 581 140 589.5Q134 598 119 604L76 622L80 646H381L377 619L323 599Q299 591 289.5 578.5Q280 566 276 539L214 147Q211 126 209.5 112.5Q208 99 208 93Q208 66 223 52Q238 38 268 38H280Q320 38 347.5 59.5Q375 81 410 138L454 209H481ZM416 800 250 696H207L257 807H417Z" glyph-name="Lacute" horiz-adv-x="514" unicode="&#313;" /><glyph d="M446 0H-21L-17 23L30 43Q53 53 61.5 64Q70 75 74 101L140 517Q143 533 144.5 547Q146 561 146 566Q146 581 140 589.5Q134 598 119 604L76 622L80 646H381L377 619L323 599Q299 591 289.5 578.5Q280 566 276 539L214 147Q211 126 209.5 112.5Q208 99 208 93Q208 66 223 52Q238 38 268 38H280Q320 38 347.5 59.5Q375 81 410 138L454 209H481ZM415 457H385L433 646H552L551 642Z" glyph-name="Lcaron" horiz-adv-x="514" unicode="&#317;" /><glyph d="M446 0H-21L-17 23L30 43Q53 53 61.5 64Q70 75 74 101L140 517Q143 533 144.5 547Q146 561 146 566Q146 581 140 589.5Q134 598 119 604L76 622L80 646H381L377 619L323 599Q299 591 289.5 578.5Q280 566 276 539L214 147Q211 126 209.5 112.5Q208 99 208 93Q208 66 223 52Q238 38 268 38H280Q320 38 347.5 59.5Q375 81 410 138L454 209H481ZM302 -116Q302 -164 255.5 -200.5Q209 -237 142 -243L152 -184Q195 -182 213 -176Q231 -170 243 -156Q216 -156 198.5 -143.5Q181 -131 181 -111Q181 -88 197 -74Q213 -60 241 -60Q267 -60 284.5 -75.5Q302 -91 302 -116Z" glyph-name="Lcommaaccent" horiz-adv-x="514" unicode="&#315;" /><glyph d="M956 0H489L493 23L540 43Q563 53 571.5 64Q580 75 584 101L650 517Q653 533 654.5 547Q656 561 656 566Q656 581 650 589.5Q644 598 629 604L586 622L590 646H891L887 619L833 599Q809 591 799.5 578.5Q790 566 786 539L724 147Q721 126 719.5 112.5Q718 99 718 93Q718 66 733 52Q748 38 778 38H790Q830 38 857.5 59.5Q885 81 920 138L964 209H991ZM446 0H-21L-17 23L30 43Q53 53 61.5 64Q70 75 74 101L140 517Q143 533 144.5 547Q146 561 146 566Q146 581 140 589.5Q134 598 119 604L76 622L80 646H381L377 619L323 599Q299 591 289.5 578.5Q280 566 276 539L214 147Q211 126 209.5 112.5Q208 99 208 93Q208 66 223 52Q238 38 268 38H280Q320 38 347.5 59.5Q375 81 410 138L454 209H481ZM509 389Q509 353 486.5 329.5Q464 306 429 306Q402 306 385.5 321.5Q369 337 369 364Q369 399 392 423Q415 447 449 447Q477 447 493 431.5Q509 416 509 389Z" glyph-name="Ldot" horiz-adv-x="1024" unicode="&#319;" /><glyph d="M481 209 446 0H-21L-17 23L30 43Q53 53 61.5 64Q70 75 74 101L99 262L40 230L47 276L107 308L140 517Q143 533 144.5 547Q146 561 146 566Q146 581 140 589.5Q134 598 119 604L76 622L80 646H381L377 619L323 599Q299 591 289.5 578.5Q280 566 276 539L252 387L336 432L327 383L244 339L214 147Q211 126 209.5 112.5Q208 99 208 93Q208 66 223 52Q238 38 268 38H280Q320 38 347.5 59.5Q375 81 410 138L454 209Z" glyph-name="Lslash" horiz-adv-x="514" unicode="&#321;" /><glyph d="M753 24 749 0H452L456 23L503 43Q526 53 534.5 64Q543 75 547 101L614 522L333 -2H299L186 522L125 140Q123 128 121 112Q119 96 119 90Q119 75 124.5 66.5Q130 58 148 49L202 23L198 0H-30L-27 23L26 47Q48 57 58 71Q68 85 73 114L142 493Q146 514 148.5 531Q151 548 151 553Q151 565 145 574Q139 583 126 592L78 622L82 646H299L392 198L617 646H845L841 620L798 604Q775 596 764 581.5Q753 567 749 539L684 130Q681 111 679 98Q677 85 677 80Q677 66 683 57.5Q689 49 705 43Z" glyph-name="M" horiz-adv-x="814" unicode="M" /><glyph d="M592 526 497 -3H443L180 506L123 135Q121 118 120 108.5Q119 99 119 95Q119 79 125 70Q131 61 147 54L216 23L212 0H-32L-29 23L24 51Q49 65 58 79Q67 93 72 119L135 468Q140 495 142 510Q144 525 144 531Q144 547 137 559Q130 571 112 585L65 621L68 646H268L495 197L540 504Q542 516 543.5 529.5Q545 543 545 549Q545 565 538.5 574.5Q532 584 516 591L448 623L452 646H695L691 622L640 595Q616 582 606.5 568Q597 554 592 526Z" glyph-name="N" horiz-adv-x="646" unicode="N" /><glyph glyph-name="NULL" horiz-adv-x="0" /><glyph d="M592 526 497 -3H443L180 506L123 135Q121 118 120 108.5Q119 99 119 95Q119 79 125 70Q131 61 147 54L216 23L212 0H-32L-29 23L24 51Q49 65 58 79Q67 93 72 119L135 468Q140 495 142 510Q144 525 144 531Q144 547 137 559Q130 571 112 585L65 621L68 646H268L495 197L540 504Q542 516 543.5 529.5Q545 543 545 549Q545 565 538.5 574.5Q532 584 516 591L448 623L452 646H695L691 622L640 595Q616 582 606.5 568Q597 554 592 526ZM581 800 415 696H372L422 807H582Z" glyph-name="Nacute" horiz-adv-x="646" unicode="&#323;" /><glyph d="M592 526 497 -3H443L180 506L123 135Q121 118 120 108.5Q119 99 119 95Q119 79 125 70Q131 61 147 54L216 23L212 0H-32L-29 23L24 51Q49 65 58 79Q67 93 72 119L135 468Q140 495 142 510Q144 525 144 531Q144 547 137 559Q130 571 112 585L65 621L68 646H268L495 197L540 504Q542 516 543.5 529.5Q545 543 545 549Q545 565 538.5 574.5Q532 584 516 591L448 623L452 646H695L691 622L640 595Q616 582 606.5 568Q597 554 592 526ZM453 694H340L304 823L305 826H340L407 756L498 826H531L530 823Z" glyph-name="Ncaron" horiz-adv-x="646" unicode="&#327;" /><glyph d="M592 526 497 -3H443L180 506L123 135Q121 118 120 108.5Q119 99 119 95Q119 79 125 70Q131 61 147 54L216 23L212 0H-32L-29 23L24 51Q49 65 58 79Q67 93 72 119L135 468Q140 495 142 510Q144 525 144 531Q144 547 137 559Q130 571 112 585L65 621L68 646H268L495 197L540 504Q542 516 543.5 529.5Q545 543 545 549Q545 565 538.5 574.5Q532 584 516 591L448 623L452 646H695L691 622L640 595Q616 582 606.5 568Q597 554 592 526ZM334 -116Q334 -164 287.5 -200.5Q241 -237 174 -243L184 -184Q227 -182 245 -176Q263 -170 275 -156Q248 -156 230.5 -143.5Q213 -131 213 -111Q213 -88 229 -74Q245 -60 273 -60Q299 -60 316.5 -75.5Q334 -91 334 -116Z" glyph-name="Ncommaaccent" horiz-adv-x="646" unicode="&#325;" /><glyph d="M592 526 497 -3H443L180 506L123 135Q121 118 120 108.5Q119 99 119 95Q119 79 125 70Q131 61 147 54L216 23L212 0H-32L-29 23L24 51Q49 65 58 79Q67 93 72 119L135 468Q140 495 142 510Q144 525 144 531Q144 547 137 559Q130 571 112 585L65 621L68 646H268L495 197L540 504Q542 516 543.5 529.5Q545 543 545 549Q545 565 538.5 574.5Q532 584 516 591L448 623L452 646H695L691 622L640 595Q616 582 606.5 568Q597 554 592 526ZM303 706H283Q291 762 314.5 791.5Q338 821 375 821Q383 821 392 818Q401 815 418 806Q435 797 444.5 794Q454 791 463 791Q480 791 491.5 800Q503 809 511 827H534Q524 768 499 737.5Q474 707 434 707Q420 707 408.5 710.5Q397 714 380 725Q368 733 361.5 735.5Q355 738 348 738Q334 738 322.5 730Q311 722 303 706Z" glyph-name="Ntilde" horiz-adv-x="646" unicode="&#209;" /><glyph d="M613 381Q613 214 519.5 100Q426 -14 289 -14Q170 -14 105 59Q40 132 40 265Q40 432 133.5 546Q227 660 364 660Q483 660 548 587Q613 514 613 381ZM361 619Q287 619 237 507.5Q187 396 187 229Q187 129 213.5 78Q240 27 292 27Q366 27 416 138.5Q466 250 466 417Q466 517 439.5 568Q413 619 361 619Z" glyph-name="O" horiz-adv-x="643" unicode="O" /><glyph d="M361 619Q287 619 237 507.5Q187 396 187 229Q187 129 213.5 78Q240 27 292 27Q306 27 319 31.5Q332 36 353 49L440 595Q421 609 403 614Q385 619 361 619ZM756 0H397Q354 -9 332 -11.5Q310 -14 289 -14Q170 -14 105 59Q40 132 40 265Q40 432 133.5 546Q227 660 364 660Q386 660 421.5 656Q457 652 481 646H849L821 468H802L775 544Q762 579 745 592Q728 605 696 605H571L532 353H626Q642 353 653 361Q664 369 677 390L708 440H727L693 224H674L659 278Q655 297 645.5 304.5Q636 312 619 312H525L501 160Q497 138 495 120.5Q493 103 493 96Q493 69 508 55Q523 41 553 41H612Q647 41 671 58Q695 75 720 118L768 196H787Z" glyph-name="OE" horiz-adv-x="844" unicode="&#338;" /><glyph d="M613 381Q613 214 519.5 100Q426 -14 289 -14Q170 -14 105 59Q40 132 40 265Q40 432 133.5 546Q227 660 364 660Q483 660 548 587Q613 514 613 381ZM361 619Q287 619 237 507.5Q187 396 187 229Q187 129 213.5 78Q240 27 292 27Q366 27 416 138.5Q466 250 466 417Q466 517 439.5 568Q413 619 361 619ZM561 800 395 696H352L402 807H562Z" glyph-name="Oacute" horiz-adv-x="643" unicode="&#211;" /><glyph d="M613 381Q613 214 519.5 100Q426 -14 289 -14Q170 -14 105 59Q40 132 40 265Q40 432 133.5 546Q227 660 364 660Q483 660 548 587Q613 514 613 381ZM361 619Q287 619 237 507.5Q187 396 187 229Q187 129 213.5 78Q240 27 292 27Q366 27 416 138.5Q466 250 466 417Q466 517 439.5 568Q413 619 361 619ZM480 830H504Q492 758 461.5 724.5Q431 691 378 691Q335 691 313.5 714Q292 737 292 782Q292 790 293 801.5Q294 813 297 830H321Q324 801 340.5 787.5Q357 774 391 774Q424 774 445 787.5Q466 801 480 830Z" glyph-name="Obreve" horiz-adv-x="643" unicode="&#334;" /><glyph d="M613 381Q613 214 519.5 100Q426 -14 289 -14Q170 -14 105 59Q40 132 40 265Q40 432 133.5 546Q227 660 364 660Q483 660 548 587Q613 514 613 381ZM361 619Q287 619 237 507.5Q187 396 187 229Q187 129 213.5 78Q240 27 292 27Q366 27 416 138.5Q466 250 466 417Q466 517 439.5 568Q413 619 361 619ZM269 688V691L343 820H456L485 691V688H456L389 758L297 688Z" glyph-name="Ocircumflex" horiz-adv-x="643" unicode="&#212;" /><glyph d="M613 381Q613 214 519.5 100Q426 -14 289 -14Q170 -14 105 59Q40 132 40 265Q40 432 133.5 546Q227 660 364 660Q483 660 548 587Q613 514 613 381ZM361 619Q287 619 237 507.5Q187 396 187 229Q187 129 213.5 78Q240 27 292 27Q366 27 416 138.5Q466 250 466 417Q466 517 439.5 568Q413 619 361 619ZM546 782Q546 750 524.5 728.5Q503 707 471 707Q445 707 429.5 721.5Q414 736 414 761Q414 793 435.5 814Q457 835 490 835Q515 835 530.5 820.5Q546 806 546 782ZM369 782Q369 750 347.5 728.5Q326 707 294 707Q268 707 252.5 721.5Q237 736 237 761Q237 793 258.5 814Q280 835 313 835Q338 835 353.5 820.5Q369 806 369 782Z" glyph-name="Odieresis" horiz-adv-x="643" unicode="&#214;" /><glyph d="M613 381Q613 214 519.5 100Q426 -14 289 -14Q170 -14 105 59Q40 132 40 265Q40 432 133.5 546Q227 660 364 660Q483 660 548 587Q613 514 613 381ZM361 619Q287 619 237 507.5Q187 396 187 229Q187 129 213.5 78Q240 27 292 27Q366 27 416 138.5Q466 250 466 417Q466 517 439.5 568Q413 619 361 619ZM406 696H363L231 800L232 807H390Z" glyph-name="Ograve" horiz-adv-x="643" unicode="&#210;" /><glyph d="M613 381Q613 214 519.5 100Q426 -14 289 -14Q170 -14 105 59Q40 132 40 265Q40 432 133.5 546Q227 660 364 660Q483 660 548 587Q613 514 613 381ZM361 619Q287 619 237 507.5Q187 396 187 229Q187 129 213.5 78Q240 27 292 27Q366 27 416 138.5Q466 250 466 417Q466 517 439.5 568Q413 619 361 619ZM435 696H397L508 807H622ZM362 696H332L375 807H469Z" glyph-name="Ohungarumlaut" horiz-adv-x="643" unicode="&#336;" /><glyph d="M613 381Q613 214 519.5 100Q426 -14 289 -14Q170 -14 105 59Q40 132 40 265Q40 432 133.5 546Q227 660 364 660Q483 660 548 587Q613 514 613 381ZM361 619Q287 619 237 507.5Q187 396 187 229Q187 129 213.5 78Q240 27 292 27Q366 27 416 138.5Q466 250 466 417Q466 517 439.5 568Q413 619 361 619ZM496 729H273L282 787H505Z" glyph-name="Omacron" horiz-adv-x="643" unicode="&#332;" /><glyph d="M312 0H14L38 151H52L63 109Q72 74 90 63.5Q108 53 161 53H242Q179 76 143.5 137.5Q108 199 108 287Q108 443 204 550.5Q300 658 440 658Q547 658 611 587.5Q675 517 675 399Q675 268 614.5 178Q554 88 441 53H522Q577 53 601 64Q625 75 645 109L669 151H682L658 0H360L364 23Q456 65 504 168.5Q552 272 552 430Q552 523 522.5 570Q493 617 435 617Q346 617 292 515.5Q238 414 238 246Q238 160 256.5 107.5Q275 55 316 23Z" glyph-name="Omega" horiz-adv-x="764" unicode="&#8486;" /><glyph d="M465 454 192 153Q201 91 226.5 59Q252 27 292 27Q366 27 416 138.5Q466 250 466 417Q466 433 466 440.5Q466 448 465 454ZM187 229V208L459 507Q448 563 423.5 591Q399 619 361 619Q287 619 237 507.5Q187 396 187 229ZM613 381Q613 214 519.5 100Q426 -14 289 -14Q230 -14 184 4Q138 22 106 58L16 -40H-32L-31 -33L81 91Q61 125 50.5 168.5Q40 212 40 265Q40 432 133.5 546Q227 660 364 660Q419 660 463 644Q507 628 539 596L621 686H670L668 677L566 564Q589 529 601 483.5Q613 438 613 381Z" glyph-name="Oslash" horiz-adv-x="643" unicode="&#216;" /><glyph d="M560 800 394 696H351L401 807H561ZM465 455 192 154Q201 92 226.5 60Q252 28 292 28Q366 28 416 139.5Q466 251 466 418Q466 434 466 441.5Q466 449 465 455ZM187 230V209L459 508Q448 564 423.5 592Q399 620 361 620Q287 620 237 508.5Q187 397 187 230ZM613 382Q613 215 519.5 101Q426 -13 289 -13Q230 -13 184 5Q138 23 106 59L16 -39H-32L-31 -32L81 92Q61 126 50.5 169.5Q40 213 40 266Q40 433 133.5 547Q227 661 364 661Q419 661 463 645Q507 629 539 597L621 687H670L668 678L566 565Q589 530 601 484.5Q613 439 613 382Z" glyph-name="Oslashacute" horiz-adv-x="643" unicode="&#510;" /><glyph d="M613 381Q613 214 519.5 100Q426 -14 289 -14Q170 -14 105 59Q40 132 40 265Q40 432 133.5 546Q227 660 364 660Q483 660 548 587Q613 514 613 381ZM361 619Q287 619 237 507.5Q187 396 187 229Q187 129 213.5 78Q240 27 292 27Q366 27 416 138.5Q466 250 466 417Q466 517 439.5 568Q413 619 361 619ZM285 706H265Q273 762 296.5 791.5Q320 821 357 821Q365 821 374 818Q383 815 400 806Q417 797 426.5 794Q436 791 445 791Q462 791 473.5 800Q485 809 493 827H516Q506 768 481 737.5Q456 707 416 707Q402 707 390.5 710.5Q379 714 362 725Q350 733 343.5 735.5Q337 738 330 738Q316 738 304.5 730Q293 722 285 706Z" glyph-name="Otilde" horiz-adv-x="643" unicode="&#213;" /><glyph d="M305 0H-21L-17 23L30 43Q53 53 61.5 64Q70 75 74 101L140 517Q143 533 144.5 547Q146 561 146 566Q146 581 140 589.5Q134 598 119 604L76 622L80 646H321Q427 646 491 594Q555 542 555 458Q555 355 485.5 301.5Q416 248 284 248H272L276 275Q341 289 376 337Q411 385 411 460Q411 522 380 561.5Q349 601 298 606L286 607L212 134Q209 116 207.5 105.5Q206 95 206 90Q206 74 212.5 65Q219 56 234 51L309 26Z" glyph-name="P" horiz-adv-x="554" unicode="P" /><glyph d="M536 -94Q546 -94 561 -93Q576 -92 584 -91L571 -170Q552 -175 533.5 -178Q515 -181 501 -181Q441 -181 393 -167.5Q345 -154 276 -117Q215 -84 179.5 -73Q144 -62 96 -62Q86 -62 81.5 -62Q77 -62 73 -63L80 -12Q94 -13 108.5 -15Q123 -17 147 -22Q166 -27 174 -28Q182 -29 189 -29Q317 -29 390 89Q463 207 463 417Q463 514 434.5 566.5Q406 619 353 619Q277 619 228.5 513Q180 407 180 241Q180 172 188 134Q196 96 217 64L203 43Q124 75 81.5 139Q39 203 39 292Q39 452 128 555.5Q217 659 349 659Q470 659 539.5 582.5Q609 506 609 372Q609 192 506 78Q403 -36 229 -51Q257 -53 284.5 -57Q312 -61 358 -72Q418 -86 455.5 -90Q493 -94 536 -94Z" glyph-name="Q" horiz-adv-x="637" unicode="Q" /><glyph d="M283 606 237 312H256Q327 312 367 353Q407 394 407 466Q407 527 378.5 563Q350 599 298 604ZM228 43 269 24 266 0H-16L-12 25L31 42Q53 51 61.5 62.5Q70 74 75 102L140 517Q145 544 146 553Q147 562 147 566Q147 580 141 588.5Q135 597 120 603L76 622L80 646H322Q426 646 485.5 600Q545 554 545 475Q545 404 501 356.5Q457 309 378 294Q421 203 463.5 127Q506 51 530 23L527 0H383Q350 50 317.5 125.5Q285 201 266 272Q262 271 257.5 271Q253 271 245 271H230L207 124Q205 107 203.5 95.5Q202 84 202 80Q202 66 207.5 58Q213 50 228 43Z" glyph-name="R" horiz-adv-x="573" unicode="R" /><glyph d="M283 606 237 312H256Q327 312 367 353Q407 394 407 466Q407 527 378.5 563Q350 599 298 604ZM228 43 269 24 266 0H-16L-12 25L31 42Q53 51 61.5 62.5Q70 74 75 102L140 517Q145 544 146 553Q147 562 147 566Q147 580 141 588.5Q135 597 120 603L76 622L80 646H322Q426 646 485.5 600Q545 554 545 475Q545 404 501 356.5Q457 309 378 294Q421 203 463.5 127Q506 51 530 23L527 0H383Q350 50 317.5 125.5Q285 201 266 272Q262 271 257.5 271Q253 271 245 271H230L207 124Q205 107 203.5 95.5Q202 84 202 80Q202 66 207.5 58Q213 50 228 43ZM535 800 369 696H326L376 807H536Z" glyph-name="Racute" horiz-adv-x="573" unicode="&#340;" /><glyph d="M283 606 237 312H256Q327 312 367 353Q407 394 407 466Q407 527 378.5 563Q350 599 298 604ZM228 43 269 24 266 0H-16L-12 25L31 42Q53 51 61.5 62.5Q70 74 75 102L140 517Q145 544 146 553Q147 562 147 566Q147 580 141 588.5Q135 597 120 603L76 622L80 646H322Q426 646 485.5 600Q545 554 545 475Q545 404 501 356.5Q457 309 378 294Q421 203 463.5 127Q506 51 530 23L527 0H383Q350 50 317.5 125.5Q285 201 266 272Q262 271 257.5 271Q253 271 245 271H230L207 124Q205 107 203.5 95.5Q202 84 202 80Q202 66 207.5 58Q213 50 228 43ZM409 694H296L260 823L261 826H296L363 756L454 826H487L486 823Z" glyph-name="Rcaron" horiz-adv-x="573" unicode="&#344;" /><glyph d="M283 606 237 312H256Q327 312 367 353Q407 394 407 466Q407 527 378.5 563Q350 599 298 604ZM228 43 269 24 266 0H-16L-12 25L31 42Q53 51 61.5 62.5Q70 74 75 102L140 517Q145 544 146 553Q147 562 147 566Q147 580 141 588.5Q135 597 120 603L76 622L80 646H322Q426 646 485.5 600Q545 554 545 475Q545 404 501 356.5Q457 309 378 294Q421 203 463.5 127Q506 51 530 23L527 0H383Q350 50 317.5 125.5Q285 201 266 272Q262 271 257.5 271Q253 271 245 271H230L207 124Q205 107 203.5 95.5Q202 84 202 80Q202 66 207.5 58Q213 50 228 43ZM323 -116Q323 -164 276.5 -200.5Q230 -237 163 -243L173 -184Q216 -182 234 -176Q252 -170 264 -156Q237 -156 219.5 -143.5Q202 -131 202 -111Q202 -88 218 -74Q234 -60 262 -60Q288 -60 305.5 -75.5Q323 -91 323 -116Z" glyph-name="Rcommaaccent" horiz-adv-x="573" unicode="&#342;" /><glyph d="M182 -14Q124 -14 80 -5Q36 4 0 23L30 201H52L64 167Q92 89 121.5 58Q151 27 197 27Q249 27 280 58.5Q311 90 311 142Q311 174 294 199.5Q277 225 245 242L208 262Q135 301 101.5 347Q68 393 68 451Q68 546 131 603Q194 660 300 660Q344 660 390.5 652.5Q437 645 469 632L443 463H420L407 502Q386 564 358.5 591.5Q331 619 290 619Q245 619 218.5 590.5Q192 562 192 515Q192 473 215 442.5Q238 412 289 384L319 368Q385 333 411.5 295Q438 257 438 200Q438 107 365.5 46.5Q293 -14 182 -14Z" glyph-name="S" horiz-adv-x="483" unicode="S" /><glyph d="M182 -14Q124 -14 80 -5Q36 4 0 23L30 201H52L64 167Q92 89 121.5 58Q151 27 197 27Q249 27 280 58.5Q311 90 311 142Q311 174 294 199.5Q277 225 245 242L208 262Q135 301 101.5 347Q68 393 68 451Q68 546 131 603Q194 660 300 660Q344 660 390.5 652.5Q437 645 469 632L443 463H420L407 502Q386 564 358.5 591.5Q331 619 290 619Q245 619 218.5 590.5Q192 562 192 515Q192 473 215 442.5Q238 412 289 384L319 368Q385 333 411.5 295Q438 257 438 200Q438 107 365.5 46.5Q293 -14 182 -14ZM472 800 306 696H263L313 807H473Z" glyph-name="Sacute" horiz-adv-x="483" unicode="&#346;" /><glyph d="M182 -14Q124 -14 80 -5Q36 4 0 23L30 201H52L64 167Q92 89 121.5 58Q151 27 197 27Q249 27 280 58.5Q311 90 311 142Q311 174 294 199.5Q277 225 245 242L208 262Q135 301 101.5 347Q68 393 68 451Q68 546 131 603Q194 660 300 660Q344 660 390.5 652.5Q437 645 469 632L443 463H420L407 502Q386 564 358.5 591.5Q331 619 290 619Q245 619 218.5 590.5Q192 562 192 515Q192 473 215 442.5Q238 412 289 384L319 368Q385 333 411.5 295Q438 257 438 200Q438 107 365.5 46.5Q293 -14 182 -14ZM356 694H243L207 823L208 826H243L310 756L401 826H434L433 823Z" glyph-name="Scaron" horiz-adv-x="483" unicode="&#352;" /><glyph d="M281 -133Q281 -173 253 -196Q225 -219 174 -219Q149 -219 126 -208.5Q103 -198 89 -181L91 -163Q105 -170 116.5 -173Q128 -176 140 -176Q164 -176 177.5 -164.5Q191 -153 191 -132Q191 -115 178.5 -102Q166 -89 146 -85L171 -14Q117 -13 75.5 -4Q34 5 0 23L30 201H52L64 167Q92 89 121.5 58Q151 27 197 27Q249 27 280 58.5Q311 90 311 142Q311 174 294 199.5Q277 225 245 242L208 262Q135 301 101.5 347Q68 393 68 451Q68 546 131 603Q194 660 300 660Q344 660 390.5 652.5Q437 645 469 632L443 463H420L407 502Q386 564 358.5 591.5Q331 619 290 619Q245 619 218.5 590.5Q192 562 192 515Q192 473 215 442.5Q238 412 289 384L319 368Q385 333 411.5 295Q438 257 438 200Q438 115 376 56Q314 -3 214 -13L193 -57Q234 -58 257.5 -78.5Q281 -99 281 -133Z" glyph-name="Scedilla" horiz-adv-x="483" unicode="&#350;" /><glyph d="M182 -14Q124 -14 80 -5Q36 4 0 23L30 201H52L64 167Q92 89 121.5 58Q151 27 197 27Q249 27 280 58.5Q311 90 311 142Q311 174 294 199.5Q277 225 245 242L208 262Q135 301 101.5 347Q68 393 68 451Q68 546 131 603Q194 660 300 660Q344 660 390.5 652.5Q437 645 469 632L443 463H420L407 502Q386 564 358.5 591.5Q331 619 290 619Q245 619 218.5 590.5Q192 562 192 515Q192 473 215 442.5Q238 412 289 384L319 368Q385 333 411.5 295Q438 257 438 200Q438 107 365.5 46.5Q293 -14 182 -14ZM180 688V691L254 820H367L396 691V688H367L300 758L208 688Z" glyph-name="Scircumflex" horiz-adv-x="483" unicode="&#348;" /><glyph d="M182 -14Q124 -14 80 -5Q36 4 0 23L30 201H52L64 167Q92 89 121.5 58Q151 27 197 27Q249 27 280 58.5Q311 90 311 142Q311 174 294 199.5Q277 225 245 242L208 262Q135 301 101.5 347Q68 393 68 451Q68 546 131 603Q194 660 300 660Q344 660 390.5 652.5Q437 645 469 632L443 463H420L407 502Q386 564 358.5 591.5Q331 619 290 619Q245 619 218.5 590.5Q192 562 192 515Q192 473 215 442.5Q238 412 289 384L319 368Q385 333 411.5 295Q438 257 438 200Q438 107 365.5 46.5Q293 -14 182 -14ZM259 -116Q259 -164 212.5 -200.5Q166 -237 99 -243L109 -184Q152 -182 170 -176Q188 -170 200 -156Q173 -156 155.5 -143.5Q138 -131 138 -111Q138 -88 154 -74Q170 -60 198 -60Q224 -60 241.5 -75.5Q259 -91 259 -116Z" glyph-name="Scommaaccent" horiz-adv-x="483" unicode="&#536;" /><glyph d="M357 45 410 24 406 0H76L80 24L130 43Q160 54 171.5 68Q183 82 188 112L266 608H244Q197 608 167 586Q137 564 101 501L72 450H46L78 646H605L576 450H552L537 501Q518 564 495 586Q472 608 427 608H399L324 136Q322 124 320.5 111Q319 98 319 91Q319 74 327.5 63.5Q336 53 357 45Z" glyph-name="T" horiz-adv-x="572" unicode="T" /><glyph d="M357 45 410 24 406 0H76L80 24L130 43Q160 54 171.5 68Q183 82 188 112L218 302H121L127 342H224L266 608H244Q197 608 167 586Q137 564 101 501L72 450H46L78 646H605L576 450H552L537 501Q518 565 495 586.5Q472 608 427 608H399L357 342H461L455 302H350L324 136Q322 124 320.5 111Q319 98 319 91Q319 74 327.5 63.5Q336 53 357 45Z" glyph-name="Tbar" horiz-adv-x="572" unicode="&#358;" /><glyph d="M357 45 410 24 406 0H76L80 24L130 43Q160 54 171.5 68Q183 82 188 112L266 608H244Q197 608 167 586Q137 564 101 501L72 450H46L78 646H605L576 450H552L537 501Q518 564 495 586Q472 608 427 608H399L324 136Q322 124 320.5 111Q319 98 319 91Q319 74 327.5 63.5Q336 53 357 45ZM401 694H288L252 823L253 826H288L355 756L446 826H479L478 823Z" glyph-name="Tcaron" horiz-adv-x="572" unicode="&#356;" /><glyph d="M204 80Q204 66 210 57.5Q216 49 232 43L280 24L276 0H-21L-17 23L30 43Q53 53 61.5 64Q70 75 74 101L140 517Q143 533 144.5 547Q146 561 146 566Q146 581 140 589.5Q134 598 119 604L76 622L80 646H372L368 620L325 604Q302 596 291 581.5Q280 567 276 539L274 526H306Q411 526 473.5 474.5Q536 423 536 339Q536 237 465.5 182.5Q395 128 262 128H250L254 155Q319 169 355.5 217.5Q392 266 392 340Q392 402 360 441.5Q328 481 276 486L268 487L211 130Q208 111 206 98Q204 85 204 80Z" glyph-name="Thorn" horiz-adv-x="560" unicode="&#222;" /><glyph d="M580 543 533 251Q511 117 448.5 51.5Q386 -14 280 -14Q179 -14 126 38.5Q73 91 73 191Q73 210 74.5 232Q76 254 80 280L116 508Q120 528 121.5 542Q123 556 123 564Q123 577 118 585.5Q113 594 101 601L66 622L69 646H352L349 622L301 601Q278 591 269 578Q260 565 255 538L210 259Q207 241 205 214Q203 187 203 164Q203 99 232 65.5Q261 32 316 32Q381 32 419.5 82Q458 132 474 240L517 517Q520 538 521 548.5Q522 559 522 563Q522 578 516 586.5Q510 595 495 602L449 623L452 646H668L665 622L618 602Q600 595 592.5 582.5Q585 570 580 543Z" glyph-name="U" horiz-adv-x="627" unicode="U" /><glyph d="M580 543 533 251Q511 117 448.5 51.5Q386 -14 280 -14Q179 -14 126 38.5Q73 91 73 191Q73 210 74.5 232Q76 254 80 280L116 508Q120 528 121.5 542Q123 556 123 564Q123 577 118 585.5Q113 594 101 601L66 622L69 646H352L349 622L301 601Q278 591 269 578Q260 565 255 538L210 259Q207 241 205 214Q203 187 203 164Q203 99 232 65.5Q261 32 316 32Q381 32 419.5 82Q458 132 474 240L517 517Q520 538 521 548.5Q522 559 522 563Q522 578 516 586.5Q510 595 495 602L449 623L452 646H668L665 622L618 602Q600 595 592.5 582.5Q585 570 580 543ZM591 800 425 696H382L432 807H592Z" glyph-name="Uacute" horiz-adv-x="627" unicode="&#218;" /><glyph d="M580 543 533 251Q511 117 448.5 51.5Q386 -14 280 -14Q179 -14 126 38.5Q73 91 73 191Q73 210 74.5 232Q76 254 80 280L116 508Q120 528 121.5 542Q123 556 123 564Q123 577 118 585.5Q113 594 101 601L66 622L69 646H352L349 622L301 601Q278 591 269 578Q260 565 255 538L210 259Q207 241 205 214Q203 187 203 164Q203 99 232 65.5Q261 32 316 32Q381 32 419.5 82Q458 132 474 240L517 517Q520 538 521 548.5Q522 559 522 563Q522 578 516 586.5Q510 595 495 602L449 623L452 646H668L665 622L618 602Q600 595 592.5 582.5Q585 570 580 543ZM510 830H534Q522 758 491.5 724.5Q461 691 408 691Q365 691 343.5 714Q322 737 322 782Q322 790 323 801.5Q324 813 327 830H351Q354 801 370.5 787.5Q387 774 421 774Q454 774 475 787.5Q496 801 510 830Z" glyph-name="Ubreve" horiz-adv-x="627" unicode="&#364;" /><glyph d="M580 543 533 251Q511 117 448.5 51.5Q386 -14 280 -14Q179 -14 126 38.5Q73 91 73 191Q73 210 74.5 232Q76 254 80 280L116 508Q120 528 121.5 542Q123 556 123 564Q123 577 118 585.5Q113 594 101 601L66 622L69 646H352L349 622L301 601Q278 591 269 578Q260 565 255 538L210 259Q207 241 205 214Q203 187 203 164Q203 99 232 65.5Q261 32 316 32Q381 32 419.5 82Q458 132 474 240L517 517Q520 538 521 548.5Q522 559 522 563Q522 578 516 586.5Q510 595 495 602L449 623L452 646H668L665 622L618 602Q600 595 592.5 582.5Q585 570 580 543ZM299 688V691L373 820H486L515 691V688H486L419 758L327 688Z" glyph-name="Ucircumflex" horiz-adv-x="627" unicode="&#219;" /><glyph d="M580 543 533 251Q511 117 448.5 51.5Q386 -14 280 -14Q179 -14 126 38.5Q73 91 73 191Q73 210 74.5 232Q76 254 80 280L116 508Q120 528 121.5 542Q123 556 123 564Q123 577 118 585.5Q113 594 101 601L66 622L69 646H352L349 622L301 601Q278 591 269 578Q260 565 255 538L210 259Q207 241 205 214Q203 187 203 164Q203 99 232 65.5Q261 32 316 32Q381 32 419.5 82Q458 132 474 240L517 517Q520 538 521 548.5Q522 559 522 563Q522 578 516 586.5Q510 595 495 602L449 623L452 646H668L665 622L618 602Q600 595 592.5 582.5Q585 570 580 543ZM576 782Q576 750 554.5 728.5Q533 707 501 707Q475 707 459.5 721.5Q444 736 444 761Q444 793 465.5 814Q487 835 520 835Q545 835 560.5 820.5Q576 806 576 782ZM399 782Q399 750 377.5 728.5Q356 707 324 707Q298 707 282.5 721.5Q267 736 267 761Q267 793 288.5 814Q310 835 343 835Q368 835 383.5 820.5Q399 806 399 782Z" glyph-name="Udieresis" horiz-adv-x="627" unicode="&#220;" /><glyph d="M580 543 533 251Q511 117 448.5 51.5Q386 -14 280 -14Q179 -14 126 38.5Q73 91 73 191Q73 210 74.5 232Q76 254 80 280L116 508Q120 528 121.5 542Q123 556 123 564Q123 577 118 585.5Q113 594 101 601L66 622L69 646H352L349 622L301 601Q278 591 269 578Q260 565 255 538L210 259Q207 241 205 214Q203 187 203 164Q203 99 232 65.5Q261 32 316 32Q381 32 419.5 82Q458 132 474 240L517 517Q520 538 521 548.5Q522 559 522 563Q522 578 516 586.5Q510 595 495 602L449 623L452 646H668L665 622L618 602Q600 595 592.5 582.5Q585 570 580 543ZM436 696H393L261 800L262 807H420Z" glyph-name="Ugrave" horiz-adv-x="627" unicode="&#217;" /><glyph d="M580 543 533 251Q511 117 448.5 51.5Q386 -14 280 -14Q179 -14 126 38.5Q73 91 73 191Q73 210 74.5 232Q76 254 80 280L116 508Q120 528 121.5 542Q123 556 123 564Q123 577 118 585.5Q113 594 101 601L66 622L69 646H352L349 622L301 601Q278 591 269 578Q260 565 255 538L210 259Q207 241 205 214Q203 187 203 164Q203 99 232 65.5Q261 32 316 32Q381 32 419.5 82Q458 132 474 240L517 517Q520 538 521 548.5Q522 559 522 563Q522 578 516 586.5Q510 595 495 602L449 623L452 646H668L665 622L618 602Q600 595 592.5 582.5Q585 570 580 543ZM465 696H427L538 807H652ZM392 696H362L405 807H499Z" glyph-name="Uhungarumlaut" horiz-adv-x="627" unicode="&#368;" /><glyph d="M580 543 533 251Q511 117 448.5 51.5Q386 -14 280 -14Q179 -14 126 38.5Q73 91 73 191Q73 210 74.5 232Q76 254 80 280L116 508Q120 528 121.5 542Q123 556 123 564Q123 577 118 585.5Q113 594 101 601L66 622L69 646H352L349 622L301 601Q278 591 269 578Q260 565 255 538L210 259Q207 241 205 214Q203 187 203 164Q203 99 232 65.5Q261 32 316 32Q381 32 419.5 82Q458 132 474 240L517 517Q520 538 521 548.5Q522 559 522 563Q522 578 516 586.5Q510 595 495 602L449 623L452 646H668L665 622L618 602Q600 595 592.5 582.5Q585 570 580 543ZM526 729H303L312 787H535Z" glyph-name="Umacron" horiz-adv-x="627" unicode="&#362;" /><glyph d="M315 -218Q278 -218 257 -199.5Q236 -181 236 -148Q236 -112 267 -73.5Q298 -35 350 -6Q333 -10 315.5 -12Q298 -14 280 -14Q179 -14 126 38.5Q73 91 73 191Q73 210 74.5 232Q76 254 80 280L116 508Q120 528 121.5 542Q123 556 123 564Q123 577 118 585.5Q113 594 101 601L66 622L69 646H351L348 622L300 601Q276 590 267 577.5Q258 565 254 538L210 259Q207 238 205 210Q203 182 203 164Q203 99 232 65.5Q261 32 316 32Q381 32 419.5 82Q458 132 474 240L517 517Q520 538 521 548.5Q522 559 522 563Q522 578 516 586.5Q510 595 495 602L449 623L452 646H668L665 622L618 602Q600 595 592.5 582.5Q585 570 580 543L533 251Q520 173 494.5 119.5Q469 66 430 34Q380 -7 350.5 -51Q321 -95 321 -126Q321 -146 332 -157Q343 -168 362 -168Q379 -168 392.5 -163.5Q406 -159 425 -146L422 -169Q400 -194 373 -206Q346 -218 315 -218Z" glyph-name="Uogonek" horiz-adv-x="627" unicode="&#370;" /><glyph d="M580 543 533 251Q511 117 448.5 51.5Q386 -14 280 -14Q179 -14 126 38.5Q73 91 73 191Q73 210 74.5 232Q76 254 80 280L116 508Q120 528 121.5 542Q123 556 123 564Q123 577 118 585.5Q113 594 101 601L66 622L69 646H352L349 622L301 601Q278 591 269 578Q260 565 255 538L210 259Q207 241 205 214Q203 187 203 164Q203 99 232 65.5Q261 32 316 32Q381 32 419.5 82Q458 132 474 240L517 517Q520 538 521 548.5Q522 559 522 563Q522 578 516 586.5Q510 595 495 602L449 623L452 646H668L665 622L618 602Q600 595 592.5 582.5Q585 570 580 543ZM523 792Q523 744 491 714Q459 684 407 684Q366 684 344 705Q322 726 322 764Q322 812 353.5 842Q385 872 437 872Q478 872 500.5 851Q523 830 523 792ZM379 768Q379 749 389 738.5Q399 728 416 728Q439 728 452 744Q465 760 465 788Q465 807 455.5 817.5Q446 828 429 828Q405 828 392 812Q379 796 379 768Z" glyph-name="Uring" horiz-adv-x="627" unicode="&#366;" /><glyph d="M580 543 533 251Q511 117 448.5 51.5Q386 -14 280 -14Q179 -14 126 38.5Q73 91 73 191Q73 210 74.5 232Q76 254 80 280L116 508Q120 528 121.5 542Q123 556 123 564Q123 577 118 585.5Q113 594 101 601L66 622L69 646H352L349 622L301 601Q278 591 269 578Q260 565 255 538L210 259Q207 241 205 214Q203 187 203 164Q203 99 232 65.5Q261 32 316 32Q381 32 419.5 82Q458 132 474 240L517 517Q520 538 521 548.5Q522 559 522 563Q522 578 516 586.5Q510 595 495 602L449 623L452 646H668L665 622L618 602Q600 595 592.5 582.5Q585 570 580 543ZM315 706H295Q303 762 326.5 791.5Q350 821 387 821Q395 821 404 818Q413 815 430 806Q447 797 456.5 794Q466 791 475 791Q492 791 503.5 800Q515 809 523 827H546Q536 768 511 737.5Q486 707 446 707Q432 707 420.5 710.5Q409 714 392 725Q380 733 373.5 735.5Q367 738 360 738Q346 738 334.5 730Q323 722 315 706Z" glyph-name="Utilde" horiz-adv-x="627" unicode="&#360;" /><glyph d="M264 -5H204L88 545Q83 568 74 587.5Q65 607 52 622L55 646H308L304 621L265 607Q249 601 241 592Q233 583 233 571Q233 563 234.5 550.5Q236 538 240 518L309 166L476 529Q485 548 489 560.5Q493 573 493 580Q493 590 487.5 597Q482 604 470 609L438 622L442 646H624L621 622Q600 603 583 583Q566 563 553 538Z" glyph-name="V" horiz-adv-x="577" unicode="V" /><glyph d="M76 617 71 625 74 646H322L319 623L276 606Q262 601 255 594Q248 587 248 579Q248 573 248.5 559.5Q249 546 250 533L281 187L478 646H564L616 183L760 522Q768 541 773.5 558Q779 575 779 581Q779 592 774.5 598Q770 604 760 608L721 623L724 646H914L911 625L902 617Q882 598 867 578Q852 558 835 524L568 -5H501L449 448L241 -5H169L106 526Q103 552 95 575.5Q87 599 76 617Z" glyph-name="W" horiz-adv-x="871" unicode="W" /><glyph d="M76 617 71 625 74 646H322L319 623L276 606Q262 601 255 594Q248 587 248 579Q248 573 248.5 559.5Q249 546 250 533L281 187L478 646H564L616 183L760 522Q768 541 773.5 558Q779 575 779 581Q779 592 774.5 598Q770 604 760 608L721 623L724 646H914L911 625L902 617Q882 598 867 578Q852 558 835 524L568 -5H501L449 448L241 -5H169L106 526Q103 552 95 575.5Q87 599 76 617ZM710 800 544 696H501L551 807H711Z" glyph-name="Wacute" horiz-adv-x="871" unicode="&#7810;" /><glyph d="M76 617 71 625 74 646H322L319 623L276 606Q262 601 255 594Q248 587 248 579Q248 573 248.5 559.5Q249 546 250 533L281 187L478 646H564L616 183L760 522Q768 541 773.5 558Q779 575 779 581Q779 592 774.5 598Q770 604 760 608L721 623L724 646H914L911 625L902 617Q882 598 867 578Q852 558 835 524L568 -5H501L449 448L241 -5H169L106 526Q103 552 95 575.5Q87 599 76 617ZM420 688V691L494 820H607L636 691V688H607L540 758L448 688Z" glyph-name="Wcircumflex" horiz-adv-x="871" unicode="&#372;" /><glyph d="M76 617 71 625 74 646H322L319 623L276 606Q262 601 255 594Q248 587 248 579Q248 573 248.5 559.5Q249 546 250 533L281 187L478 646H564L616 183L760 522Q768 541 773.5 558Q779 575 779 581Q779 592 774.5 598Q770 604 760 608L721 623L724 646H914L911 625L902 617Q882 598 867 578Q852 558 835 524L568 -5H501L449 448L241 -5H169L106 526Q103 552 95 575.5Q87 599 76 617ZM697 782Q697 750 675.5 728.5Q654 707 622 707Q596 707 580.5 721.5Q565 736 565 761Q565 793 586.5 814Q608 835 641 835Q666 835 681.5 820.5Q697 806 697 782ZM520 782Q520 750 498.5 728.5Q477 707 445 707Q419 707 403.5 721.5Q388 736 388 761Q388 793 409.5 814Q431 835 464 835Q489 835 504.5 820.5Q520 806 520 782Z" glyph-name="Wdieresis" horiz-adv-x="871" unicode="&#7812;" /><glyph d="M76 617 71 625 74 646H322L319 623L276 606Q262 601 255 594Q248 587 248 579Q248 573 248.5 559.5Q249 546 250 533L281 187L478 646H564L616 183L760 522Q768 541 773.5 558Q779 575 779 581Q779 592 774.5 598Q770 604 760 608L721 623L724 646H914L911 625L902 617Q882 598 867 578Q852 558 835 524L568 -5H501L449 448L241 -5H169L106 526Q103 552 95 575.5Q87 599 76 617ZM539 696H496L364 800L365 807H523Z" glyph-name="Wgrave" horiz-adv-x="871" unicode="&#7808;" /><glyph d="M159 0H-31L-28 24Q-3 43 17 61.5Q37 80 56 101L234 302L117 552Q109 569 96 587.5Q83 606 71 616L60 624L63 646H325L321 621L292 611Q275 606 266.5 598Q258 590 258 580Q258 571 260.5 562Q263 553 268 541L332 395L455 550Q467 565 471.5 573.5Q476 582 476 589Q476 597 471 603Q466 609 455 613L428 622L432 646H621L618 624Q591 604 567.5 584Q544 564 528 547L350 358L466 114Q483 78 496 60.5Q509 43 524 32L534 25L530 0H264L268 25L307 35Q320 39 327 46Q334 53 334 63Q334 68 332.5 74.5Q331 81 325 94L252 266L131 107Q116 87 110.5 77Q105 67 105 62Q105 53 110 47.5Q115 42 128 37L162 24Z" glyph-name="X" horiz-adv-x="588" unicode="X" /><glyph d="M414 24 411 0H79L82 24L132 42Q164 55 174 67Q184 79 188 106L213 266L99 553Q90 577 80.5 592.5Q71 608 55 626L58 646H313L310 623L269 606Q254 600 248 593Q242 586 242 577Q242 569 244.5 560.5Q247 552 255 532L335 330L461 541Q470 556 474.5 567.5Q479 579 479 587Q479 595 474 601Q469 607 458 612L429 624L432 646H613L609 624Q589 610 569 589.5Q549 569 534 548L348 290L323 123Q323 121 321 106.5Q319 92 319 88Q319 72 327 62.5Q335 53 357 45Z" glyph-name="Y" horiz-adv-x="561" unicode="Y" /><glyph d="M414 24 411 0H79L82 24L132 42Q164 55 174 67Q184 79 188 106L213 266L99 553Q90 577 80.5 592.5Q71 608 55 626L58 646H313L310 623L269 606Q254 600 248 593Q242 586 242 577Q242 569 244.5 560.5Q247 552 255 532L335 330L461 541Q470 556 474.5 567.5Q479 579 479 587Q479 595 474 601Q469 607 458 612L429 624L432 646H613L609 624Q589 610 569 589.5Q549 569 534 548L348 290L323 123Q323 121 321 106.5Q319 92 319 88Q319 72 327 62.5Q335 53 357 45ZM559 800 393 696H350L400 807H560Z" glyph-name="Yacute" horiz-adv-x="561" unicode="&#221;" /><glyph d="M414 24 411 0H79L82 24L132 42Q164 55 174 67Q184 79 188 106L213 266L99 553Q90 577 80.5 592.5Q71 608 55 626L58 646H313L310 623L269 606Q254 600 248 593Q242 586 242 577Q242 569 244.5 560.5Q247 552 255 532L335 330L461 541Q470 556 474.5 567.5Q479 579 479 587Q479 595 474 601Q469 607 458 612L429 624L432 646H613L609 624Q589 610 569 589.5Q549 569 534 548L348 290L323 123Q323 121 321 106.5Q319 92 319 88Q319 72 327 62.5Q335 53 357 45ZM267 688V691L341 820H454L483 691V688H454L387 758L295 688Z" glyph-name="Ycircumflex" horiz-adv-x="561" unicode="&#374;" /><glyph d="M414 24 411 0H79L82 24L132 42Q164 55 174 67Q184 79 188 106L213 266L99 553Q90 577 80.5 592.5Q71 608 55 626L58 646H313L310 623L269 606Q254 600 248 593Q242 586 242 577Q242 569 244.5 560.5Q247 552 255 532L335 330L461 541Q470 556 474.5 567.5Q479 579 479 587Q479 595 474 601Q469 607 458 612L429 624L432 646H613L609 624Q589 610 569 589.5Q549 569 534 548L348 290L323 123Q323 121 321 106.5Q319 92 319 88Q319 72 327 62.5Q335 53 357 45ZM544 782Q544 750 522.5 728.5Q501 707 469 707Q443 707 427.5 721.5Q412 736 412 761Q412 793 433.5 814Q455 835 488 835Q513 835 528.5 820.5Q544 806 544 782ZM367 782Q367 750 345.5 728.5Q324 707 292 707Q266 707 250.5 721.5Q235 736 235 761Q235 793 256.5 814Q278 835 311 835Q336 835 351.5 820.5Q367 806 367 782Z" glyph-name="Ydieresis" horiz-adv-x="561" unicode="&#376;" /><glyph d="M414 24 411 0H79L82 24L132 42Q164 55 174 67Q184 79 188 106L213 266L99 553Q90 577 80.5 592.5Q71 608 55 626L58 646H313L310 623L269 606Q254 600 248 593Q242 586 242 577Q242 569 244.5 560.5Q247 552 255 532L335 330L461 541Q470 556 474.5 567.5Q479 579 479 587Q479 595 474 601Q469 607 458 612L429 624L432 646H613L609 624Q589 610 569 589.5Q549 569 534 548L348 290L323 123Q323 121 321 106.5Q319 92 319 88Q319 72 327 62.5Q335 53 357 45ZM404 696H361L229 800L230 807H388Z" glyph-name="Ygrave" horiz-adv-x="561" unicode="&#7922;" /><glyph d="M478 0H-19L-12 42L412 606H276Q227 606 197.5 590Q168 574 139 531L91 460H70L99 646H578L572 604L144 40H284Q337 40 373.5 60.5Q410 81 439 127L490 208H512Z" glyph-name="Z" horiz-adv-x="562" unicode="Z" /><glyph d="M478 0H-19L-12 42L412 606H276Q227 606 197.5 590Q168 574 139 531L91 460H70L99 646H578L572 604L144 40H284Q337 40 373.5 60.5Q410 81 439 127L490 208H512ZM521 800 355 696H312L362 807H522Z" glyph-name="Zacute" horiz-adv-x="562" unicode="&#377;" /><glyph d="M478 0H-19L-12 42L412 606H276Q227 606 197.5 590Q168 574 139 531L91 460H70L99 646H578L572 604L144 40H284Q337 40 373.5 60.5Q410 81 439 127L490 208H512ZM395 694H282L246 823L247 826H282L349 756L440 826H473L472 823Z" glyph-name="Zcaron" horiz-adv-x="562" unicode="&#381;" /><glyph d="M478 0H-19L-12 42L412 606H276Q227 606 197.5 590Q168 574 139 531L91 460H70L99 646H578L572 604L144 40H284Q337 40 373.5 60.5Q410 81 439 127L490 208H512ZM421 783Q421 749 398.5 726.5Q376 704 341 704Q314 704 297.5 719Q281 734 281 760Q281 795 303.5 817Q326 839 361 839Q388 839 404.5 823.5Q421 808 421 783Z" glyph-name="Zdotaccent" horiz-adv-x="562" unicode="&#379;" /><glyph d="M163 196Q163 131 177.5 96Q192 61 219 61Q239 61 266 97Q293 133 310 183L348 426Q334 442 318 450Q302 458 284 458Q230 458 196.5 386Q163 314 163 196ZM379 -10Q342 -10 323.5 10Q305 30 305 70Q305 76 306 88Q307 100 309 109Q281 52 243 19Q205 -14 168 -14Q101 -14 65.5 39Q30 92 30 192Q30 325 100 410Q170 495 280 495Q304 495 340 490Q376 485 404 478H488Q478 442 470.5 409Q463 376 456 336L420 113Q417 95 416 87Q415 79 415 74Q415 59 420.5 52Q426 45 437 45Q453 45 468 66Q483 87 497 130L524 122Q499 51 465 20.5Q431 -10 379 -10Z" glyph-name="a" horiz-adv-x="540" unicode="a" /><glyph d="M163 196Q163 131 177.5 96Q192 61 219 61Q239 61 266 97Q293 133 310 183L348 426Q334 442 318 450Q302 458 284 458Q230 458 196.5 386Q163 314 163 196ZM379 -10Q342 -10 323.5 10Q305 30 305 70Q305 76 306 88Q307 100 309 109Q281 52 243 19Q205 -14 168 -14Q101 -14 65.5 39Q30 92 30 192Q30 325 100 410Q170 495 280 495Q304 495 340 490Q376 485 404 478H488Q478 442 470.5 409Q463 376 456 336L420 113Q417 95 416 87Q415 79 415 74Q415 59 420.5 52Q426 45 437 45Q453 45 468 66Q483 87 497 130L524 122Q499 51 465 20.5Q431 -10 379 -10ZM472 698 301 557H261L324 706H474Z" glyph-name="aacute" horiz-adv-x="540" unicode="&#225;" /><glyph d="M163 196Q163 131 177.5 96Q192 61 219 61Q239 61 266 97Q293 133 310 183L348 426Q334 442 318 450Q302 458 284 458Q230 458 196.5 386Q163 314 163 196ZM379 -10Q342 -10 323.5 10Q305 30 305 70Q305 76 306 88Q307 100 309 109Q281 52 243 19Q205 -14 168 -14Q101 -14 65.5 39Q30 92 30 192Q30 325 100 410Q170 495 280 495Q304 495 340 490Q376 485 404 478H488Q478 442 470.5 409Q463 376 456 336L420 113Q417 95 416 87Q415 79 415 74Q415 59 420.5 52Q426 45 437 45Q453 45 468 66Q483 87 497 130L524 122Q499 51 465 20.5Q431 -10 379 -10ZM395 696H416Q404 625 374 591Q344 557 293 557Q251 557 230.5 579.5Q210 602 210 649Q210 661 211 673Q212 685 214 696H236Q238 661 255 643.5Q272 626 304 626Q335 626 357.5 643Q380 660 395 696Z" glyph-name="abreve" horiz-adv-x="540" unicode="&#259;" /><glyph d="M163 196Q163 131 177.5 96Q192 61 219 61Q239 61 266 97Q293 133 310 183L348 426Q334 442 318 450Q302 458 284 458Q230 458 196.5 386Q163 314 163 196ZM379 -10Q342 -10 323.5 10Q305 30 305 70Q305 76 306 88Q307 100 309 109Q281 52 243 19Q205 -14 168 -14Q101 -14 65.5 39Q30 92 30 192Q30 325 100 410Q170 495 280 495Q304 495 340 490Q376 485 404 478H488Q478 442 470.5 409Q463 376 456 336L420 113Q417 95 416 87Q415 79 415 74Q415 59 420.5 52Q426 45 437 45Q453 45 468 66Q483 87 497 130L524 122Q499 51 465 20.5Q431 -10 379 -10ZM207 545H180L268 704H367L402 545H375L306 633Z" glyph-name="acircumflex" horiz-adv-x="540" unicode="&#226;" /><glyph d="M441 698 270 557H230L293 706H443Z" glyph-name="acute" horiz-adv-x="440" unicode="&#180;" /><glyph d="M466 800 300 696H257L307 807H467Z" glyph-name="acute.case" horiz-adv-x="440" /><glyph d="M163 196Q163 131 177.5 96Q192 61 219 61Q239 61 266 97Q293 133 310 183L348 426Q334 442 318 450Q302 458 284 458Q230 458 196.5 386Q163 314 163 196ZM379 -10Q342 -10 323.5 10Q305 30 305 70Q305 76 306 88Q307 100 309 109Q281 52 243 19Q205 -14 168 -14Q101 -14 65.5 39Q30 92 30 192Q30 325 100 410Q170 495 280 495Q304 495 340 490Q376 485 404 478H488Q478 442 470.5 409Q463 376 456 336L420 113Q417 95 416 87Q415 79 415 74Q415 59 420.5 52Q426 45 437 45Q453 45 468 66Q483 87 497 130L524 122Q499 51 465 20.5Q431 -10 379 -10ZM321 623Q321 658 343 680.5Q365 703 400 703Q426 703 441.5 687Q457 671 457 645Q457 610 434.5 587.5Q412 565 378 565Q353 565 337 581Q321 597 321 623ZM147 623Q147 658 169 680.5Q191 703 226 703Q252 703 268 687Q284 671 284 645Q284 610 261.5 587.5Q239 565 205 565Q180 565 163.5 581.5Q147 598 147 623Z" glyph-name="adieresis" horiz-adv-x="540" unicode="&#228;" /><glyph d="M163 196Q163 132 178.5 96.5Q194 61 221 61Q236 61 253.5 78.5Q271 96 286 127Q282 144 280 161Q278 178 278 196Q278 260 298.5 316.5Q319 373 357 415Q347 433 324.5 445.5Q302 458 281 458Q228 458 195.5 387Q163 316 163 196ZM475 -13Q412 -13 366.5 13Q321 39 298 89Q269 40 236.5 14Q204 -12 170 -12Q103 -12 66.5 42Q30 96 30 195Q30 327 101 411Q172 495 283 495Q314 495 354 489Q394 483 432 472Q459 485 488 491.5Q517 498 549 498Q608 498 642 469.5Q676 441 676 392Q676 336 632.5 302Q589 268 499 255L410 242Q409 233 409 226Q409 219 409 207Q409 136 437.5 98.5Q466 61 521 61Q557 61 588 76Q619 91 647 122L642 88Q613 40 569 13.5Q525 -13 475 -13ZM524 460Q485 460 454.5 408.5Q424 357 414 277L460 287Q510 298 539.5 329.5Q569 361 569 403Q569 431 557.5 445.5Q546 460 524 460Z" glyph-name="ae" horiz-adv-x="706" unicode="&#230;" /><glyph d="M589 698 418 557H378L441 706H591ZM163 196Q163 132 178.5 96.5Q194 61 221 61Q236 61 253.5 78.5Q271 96 286 127Q282 144 280 161Q278 178 278 196Q278 260 298.5 316.5Q319 373 357 415Q347 433 324.5 445.5Q302 458 281 458Q228 458 195.5 387Q163 316 163 196ZM475 -13Q412 -13 366.5 13Q321 39 298 89Q269 40 236.5 14Q204 -12 170 -12Q103 -12 66.5 42Q30 96 30 195Q30 327 101 411Q172 495 283 495Q314 495 354 489Q394 483 432 472Q459 485 488 491.5Q517 498 549 498Q608 498 642 469.5Q676 441 676 392Q676 336 632.5 302Q589 268 499 255L410 242Q409 233 409 226Q409 219 409 207Q409 136 437.5 98.5Q466 61 521 61Q557 61 588 76Q619 91 647 122L642 88Q613 40 569 13.5Q525 -13 475 -13ZM524 460Q485 460 454.5 408.5Q424 357 414 277L460 287Q510 298 539.5 329.5Q569 361 569 403Q569 431 557.5 445.5Q546 460 524 460Z" glyph-name="aeacute" horiz-adv-x="706" unicode="&#509;" /><glyph d="M79 16Q65 2 49 -5Q33 -12 17 -12Q0 -12 -10 -2.5Q-20 7 -20 23Q-20 38 -8.5 51Q3 64 17 64Q23 64 32 62Q41 60 46 60Q76 60 96.5 120.5Q117 181 143 347L168 508Q170 516 170.5 522Q171 528 171 534Q171 550 164.5 561Q158 572 143 584L93 621L97 646H261L417 205L455 453Q471 557 489 614.5Q507 672 533 699Q546 713 561.5 721Q577 729 592 729Q603 729 610.5 720Q618 711 618 698Q617 686 609 678Q601 670 586 664Q550 651 527 598.5Q504 546 487 439L416 -7H376L199 492L173 322Q152 184 131 114.5Q110 45 79 16ZM808 253H561L568 294H815ZM664 466Q664 427 676 404.5Q688 382 709 382Q740 382 762.5 428.5Q785 475 785 539Q785 578 773 600.5Q761 623 740 623Q708 623 686 577.5Q664 532 664 466ZM863 536Q863 461 815 405Q767 349 702 349Q649 349 617.5 381.5Q586 414 586 469Q586 544 634 600Q682 656 747 656Q800 656 831.5 623.5Q863 591 863 536Z" glyph-name="afii61352" horiz-adv-x="853" unicode="&#8470;" /><glyph d="M326 557H286L153 698V706H293ZM163 196Q163 131 177.5 96Q192 61 219 61Q239 61 266 97Q293 133 310 183L348 426Q334 442 318 450Q302 458 284 458Q230 458 196.5 386Q163 314 163 196ZM379 -10Q342 -10 323.5 10Q305 30 305 70Q305 76 306 88Q307 100 309 109Q281 52 243 19Q205 -14 168 -14Q101 -14 65.5 39Q30 92 30 192Q30 325 100 410Q170 495 280 495Q304 495 340 490Q376 485 404 478H488Q478 442 470.5 409Q463 376 456 336L420 113Q417 95 416 87Q415 79 415 74Q415 59 420.5 52Q426 45 437 45Q453 45 468 66Q483 87 497 130L524 122Q499 51 465 20.5Q431 -10 379 -10Z" glyph-name="agrave" horiz-adv-x="540" unicode="&#224;" /><glyph d="M163 196Q163 131 177.5 96Q192 61 219 61Q239 61 266 97Q293 133 310 183L348 426Q334 442 318 450Q302 458 284 458Q230 458 196.5 386Q163 314 163 196ZM379 -10Q342 -10 323.5 10Q305 30 305 70Q305 76 306 88Q307 100 309 109Q281 52 243 19Q205 -14 168 -14Q101 -14 65.5 39Q30 92 30 192Q30 325 100 410Q170 495 280 495Q304 495 340 490Q376 485 404 478H488Q478 442 470.5 409Q463 376 456 336L420 113Q417 95 416 87Q415 79 415 74Q415 59 420.5 52Q426 45 437 45Q453 45 468 66Q483 87 497 130L524 122Q499 51 465 20.5Q431 -10 379 -10ZM404 596H195L203 647H412Z" glyph-name="amacron" horiz-adv-x="540" unicode="&#257;" /><glyph d="M527 275Q517 143 439.5 64.5Q362 -14 239 -14Q140 -14 85.5 35Q31 84 31 172Q31 245 90.5 301.5Q150 358 241 371Q192 388 161 425.5Q130 463 130 508Q130 576 185.5 616.5Q241 657 333 657Q363 657 398.5 651.5Q434 646 464 636L442 493H420L412 521Q399 569 375 594.5Q351 620 320 620Q288 620 271 595Q254 570 254 522Q254 467 271.5 431.5Q289 396 331 365L324 341Q315 342 301.5 346Q288 350 269 358Q218 333 193 289Q168 245 168 180Q168 117 201 80Q234 43 291 43Q381 43 421.5 94.5Q462 146 466 269L432 264Q384 257 366 241Q348 225 345 188H324Q325 259 350.5 296Q376 333 433 348L548 377Q585 386 603 401.5Q621 417 623 441L642 445Q644 438 645.5 423Q647 408 647 398Q647 335 622 308Q597 281 527 275Z" glyph-name="ampersand" horiz-adv-x="660" unicode="&amp;" /><glyph d="M357 -218Q321 -218 300 -198Q279 -178 279 -144Q279 -105 311 -68.5Q343 -32 398 -8Q394 -9 387.5 -9.5Q381 -10 377 -10Q340 -10 321.5 10Q303 30 303 70Q303 76 304 88Q305 100 307 109Q279 52 241.5 19Q204 -14 168 -14Q101 -14 65.5 39Q30 92 30 192Q30 325 100 410Q170 495 280 495Q303 495 338.5 490Q374 485 402 478H486Q476 442 468.5 409Q461 376 454 336L418 113Q415 95 414 87Q413 79 413 74Q413 59 418.5 52Q424 45 435 45Q451 45 466 66Q481 87 495 130L522 122Q508 83 493 57.5Q478 32 458 15Q404 -34 383.5 -64Q363 -94 363 -126Q363 -146 374 -157Q385 -168 404 -168Q421 -168 434.5 -163.5Q448 -159 467 -146L464 -169Q442 -194 415 -206Q388 -218 357 -218ZM163 196Q163 131 177.5 96Q192 61 219 61Q239 61 265 96.5Q291 132 308 183L346 426Q332 442 316.5 450Q301 458 284 458Q230 458 196.5 386Q163 314 163 196Z" glyph-name="aogonek" horiz-adv-x="540" unicode="&#261;" /><glyph d="M458 306 452 264Q429 222 396.5 198.5Q364 175 328 175Q298 175 273 182.5Q248 190 212 213Q183 232 165.5 238Q148 244 128 244Q105 244 83 234.5Q61 225 29 199L35 239Q59 278 92 300Q125 322 161 322Q187 322 210 315Q233 308 269 285Q301 266 319.5 260Q338 254 357 254Q382 254 405 265.5Q428 277 458 306ZM492 515 486 473Q463 431 430.5 407.5Q398 384 362 384Q332 384 307 391.5Q282 399 246 422Q217 441 199.5 447Q182 453 162 453Q139 453 117 443.5Q95 434 63 408L69 448Q93 487 126 509Q159 531 195 531Q221 531 244 524Q267 517 303 494Q335 475 353.5 469Q372 463 391 463Q416 463 439 474.5Q462 486 492 515Z" glyph-name="approxequal" horiz-adv-x="500" unicode="&#8776;" /><glyph d="M163 196Q163 131 177.5 96Q192 61 219 61Q239 61 266 97Q293 133 310 183L348 426Q334 442 318 450Q302 458 284 458Q230 458 196.5 386Q163 314 163 196ZM379 -10Q342 -10 323.5 10Q305 30 305 70Q305 76 306 88Q307 100 309 109Q281 52 243 19Q205 -14 168 -14Q101 -14 65.5 39Q30 92 30 192Q30 325 100 410Q170 495 280 495Q304 495 340 490Q376 485 404 478H488Q478 442 470.5 409Q463 376 456 336L420 113Q417 95 416 87Q415 79 415 74Q415 59 420.5 52Q426 45 437 45Q453 45 468 66Q483 87 497 130L524 122Q499 51 465 20.5Q431 -10 379 -10ZM397 645Q397 596 366.5 566Q336 536 287 536Q250 536 227.5 556.5Q205 577 205 611Q205 660 235.5 690Q266 720 316 720Q353 720 375 699.5Q397 679 397 645ZM263 618Q263 601 272 591.5Q281 582 296 582Q315 582 327.5 597.5Q340 613 340 638Q340 655 331 664.5Q322 674 307 674Q288 674 275.5 658.5Q263 643 263 618Z" glyph-name="aring" horiz-adv-x="540" unicode="&#229;" /><glyph d="M432 204H296L246 509L78 206H31L280 650H330Z" glyph-name="asciicircum" horiz-adv-x="489" unicode="^" /><glyph d="M472 396 466 354Q443 312 410.5 288.5Q378 265 342 265Q312 265 287 272.5Q262 280 226 303Q197 322 179.5 328Q162 334 142 334Q119 334 97 324.5Q75 315 43 289L49 329Q73 368 106 390Q139 412 175 412Q201 412 224 405Q247 398 283 375Q315 356 333.5 350Q352 344 371 344Q396 344 419 355.5Q442 367 472 396Z" glyph-name="asciitilde" horiz-adv-x="500" unicode="~" /><glyph d="M372 457 273 389 245 535 170 388 93 454 226 551 78 558 127 662 239 576 219 732H329L264 576L399 662L415 558L269 551Z" glyph-name="asterisk" horiz-adv-x="409" unicode="*" /><glyph d="M810 361Q810 207 733.5 112Q657 17 533 17Q497 17 476.5 38.5Q456 60 456 97Q456 103 456.5 109.5Q457 116 457 122Q431 73 399.5 46.5Q368 20 336 20Q278 20 248 65Q218 110 218 196Q218 307 282.5 381.5Q347 456 442 456Q462 456 485.5 453Q509 450 539 444H599Q593 421 587.5 392Q582 363 575 322L546 135Q543 118 541 103Q539 88 539 79Q539 70 545.5 64.5Q552 59 562 59Q623 59 661.5 143.5Q700 228 700 361Q700 475 638 544Q576 613 474 613Q307 613 216 489.5Q125 366 125 140Q125 13 189 -61Q253 -135 363 -135Q409 -135 447.5 -126Q486 -117 527 -96L522 -127Q480 -163 431 -181Q382 -199 326 -199Q172 -199 93 -107.5Q14 -16 14 162Q14 265 49 356Q84 447 149 515Q216 584 305 620.5Q394 657 497 657Q638 657 724 574.5Q810 492 810 361ZM328 204Q328 145 342 111.5Q356 78 381 78Q397 78 415.5 106.5Q434 135 453 190L483 400Q470 413 459.5 418Q449 423 437 423Q386 423 357 364.5Q328 306 328 204Z" glyph-name="at" horiz-adv-x="831" unicode="@" /><glyph d="M163 196Q163 131 177.5 96Q192 61 219 61Q239 61 266 97Q293 133 310 183L348 426Q334 442 318 450Q302 458 284 458Q230 458 196.5 386Q163 314 163 196ZM379 -10Q342 -10 323.5 10Q305 30 305 70Q305 76 306 88Q307 100 309 109Q281 52 243 19Q205 -14 168 -14Q101 -14 65.5 39Q30 92 30 192Q30 325 100 410Q170 495 280 495Q304 495 340 490Q376 485 404 478H488Q478 442 470.5 409Q463 376 456 336L420 113Q417 95 416 87Q415 79 415 74Q415 59 420.5 52Q426 45 437 45Q453 45 468 66Q483 87 497 130L524 122Q499 51 465 20.5Q431 -10 379 -10ZM206 575H184Q193 635 214 664.5Q235 694 269 694Q281 694 292 689.5Q303 685 320 671Q334 661 341.5 657.5Q349 654 356 654Q372 654 382 666Q392 678 397 704H421Q413 639 391 607Q369 575 334 575Q322 575 311 579.5Q300 584 284 597Q270 608 262.5 611.5Q255 615 247 615Q233 615 223 605Q213 595 206 575Z" glyph-name="atilde" horiz-adv-x="540" unicode="&#227;" /><glyph d="M342 498Q410 498 446 450.5Q482 403 482 314Q482 169 406 77.5Q330 -14 209 -14Q131 -14 87 26Q43 66 43 136Q43 165 44.5 191Q46 217 50 240Q55 273 77 396.5Q99 520 108 571Q109 580 110 589Q111 598 111 604Q111 621 105 630.5Q99 640 82 651L56 666L59 687L179 706H258Q251 681 243.5 647.5Q236 614 230 576L198 377Q225 436 261.5 467Q298 498 342 498ZM177 241Q169 208 164.5 172Q160 136 160 100Q160 64 174.5 44Q189 24 216 24Q273 24 308.5 102.5Q344 181 344 306Q344 361 329.5 393Q315 425 290 425Q259 425 229 376Q199 327 177 241Z" glyph-name="b" horiz-adv-x="526" unicode="b" /><glyph d="M325 -250H272L75 737L77 750H131L327 -237Z" glyph-name="backslash" horiz-adv-x="419" unicode="\" /><glyph d="M58 -250H0L158 750H216Z" glyph-name="bar" horiz-adv-x="229" unicode="|" /><glyph d="M216 -163 212 -191Q208 -191 201.5 -191.5Q195 -192 192 -192Q117 -192 76 -158Q35 -124 35 -62Q35 -55 36 -46.5Q37 -38 38 -29L59 106Q63 135 64.5 148Q66 161 66 171Q66 201 53.5 214.5Q41 228 8 233L13 264Q59 271 76 295Q93 319 104 391L126 532Q138 607 192 648.5Q246 690 332 690H352L347 661Q301 657 282 632Q263 607 253 542L231 409Q220 337 184 299Q148 261 81 250L80 248Q133 240 158.5 211.5Q184 183 184 133Q184 122 183 111Q182 100 180 89L160 -39Q157 -61 156 -73.5Q155 -86 155 -95Q155 -128 168.5 -143.5Q182 -159 216 -163Z" glyph-name="braceleft" horiz-adv-x="308" unicode="{" /><glyph d="M79 661 83 689Q87 689 93.5 689.5Q100 690 103 690Q178 690 219 656Q260 622 260 560Q260 553 259 544.5Q258 536 257 527L236 392Q232 363 230.5 350Q229 337 229 327Q229 297 241.5 283.5Q254 270 287 265L282 234Q236 227 219 203Q202 179 191 107L169 -34Q157 -109 103 -150.5Q49 -192 -37 -192H-57L-52 -163Q-6 -159 13 -134Q32 -109 42 -44L64 89Q75 161 111 199Q147 237 214 248L215 250Q162 258 136.5 286.5Q111 315 111 365Q111 376 112 387Q113 398 115 409L135 537Q138 559 139 571.5Q140 584 140 593Q140 626 126.5 641.5Q113 657 79 661Z" glyph-name="braceright" horiz-adv-x="308" unicode="}" /><glyph d="M212 -193H-16L123 690H349L345 660H242L112 -163H216Z" glyph-name="bracketleft" horiz-adv-x="308" unicode="[" /><glyph d="M82 690H310L171 -193H-55L-51 -163H52L182 660H78Z" glyph-name="bracketright" horiz-adv-x="308" unicode="]" /><glyph d="M364 696H385Q373 625 343 591Q313 557 262 557Q220 557 199.5 579.5Q179 602 179 649Q179 661 180 673Q181 685 183 696H205Q207 661 224 643.5Q241 626 273 626Q304 626 326.5 643Q349 660 364 696Z" glyph-name="breve" horiz-adv-x="440" unicode="&#728;" /><glyph d="M385 830H409Q397 758 366.5 724.5Q336 691 283 691Q240 691 218.5 714Q197 737 197 782Q197 790 198 801.5Q199 813 202 830H226Q229 801 245.5 787.5Q262 774 296 774Q329 774 350 787.5Q371 801 385 830Z" glyph-name="breve.case" horiz-adv-x="440" /><glyph d="M146 321H90L158 750H214ZM56 -250H0L68 179H124Z" glyph-name="brokenbar" horiz-adv-x="227" unicode="&#166;" /><glyph d="M322 366Q322 303 283 262.5Q244 222 184 222Q134 222 105 251Q76 280 76 330Q76 393 115 433.5Q154 474 214 474Q264 474 293 445Q322 416 322 366Z" glyph-name="bullet" horiz-adv-x="380" unicode="&#8226;" /><glyph d="M213 -13Q126 -13 76.5 44.5Q27 102 27 203Q27 330 103.5 414Q180 498 295 498Q330 498 364.5 492.5Q399 487 428 477L406 341H387Q371 401 344.5 429.5Q318 458 279 458Q229 458 195.5 388.5Q162 319 162 215Q162 142 191.5 100Q221 58 272 58Q300 58 327.5 70.5Q355 83 385 109L380 76Q349 32 307 9.5Q265 -13 213 -13Z" glyph-name="c" horiz-adv-x="437" unicode="c" /><glyph d="M213 -13Q126 -13 76.5 44.5Q27 102 27 203Q27 330 103.5 414Q180 498 295 498Q330 498 364.5 492.5Q399 487 428 477L406 341H387Q371 401 344.5 429.5Q318 458 279 458Q229 458 195.5 388.5Q162 319 162 215Q162 142 191.5 100Q221 58 272 58Q300 58 327.5 70.5Q355 83 385 109L380 76Q349 32 307 9.5Q265 -13 213 -13ZM465 698 294 557H254L317 706H467Z" glyph-name="cacute" horiz-adv-x="437" unicode="&#263;" /><glyph d="M367 706H394L308 547H208L172 706H199L269 618Z" glyph-name="caron" horiz-adv-x="440" unicode="&#711;" /><glyph d="M340 694H227L191 823L192 826H227L294 756L385 826H418L417 823Z" glyph-name="caron.case" horiz-adv-x="440" /><glyph d="M242 518H222L271 706H373L372 702Z" glyph-name="caronSlovak" horiz-adv-x="440" /><glyph d="M234 457H204L252 646H371L370 642Z" glyph-name="caronSlovak.case" horiz-adv-x="440" /><glyph d="M213 -13Q126 -13 76.5 44.5Q27 102 27 203Q27 330 103.5 414Q180 498 295 498Q330 498 364.5 492.5Q399 487 428 477L406 341H387Q371 401 344.5 429.5Q318 458 279 458Q229 458 195.5 388.5Q162 319 162 215Q162 142 191.5 100Q221 58 272 58Q300 58 327.5 70.5Q355 83 385 109L380 76Q349 32 307 9.5Q265 -13 213 -13ZM396 706H423L337 547H237L201 706H228L298 618Z" glyph-name="ccaron" horiz-adv-x="437" unicode="&#269;" /><glyph d="M297 -134Q297 -174 270 -196.5Q243 -219 195 -219Q169 -219 146 -208Q123 -197 110 -179L113 -161Q129 -172 140.5 -176Q152 -180 166 -180Q188 -180 199 -168.5Q210 -157 210 -134Q210 -115 198 -102.5Q186 -90 163 -87L193 -12Q115 -5 71 52Q27 109 27 203Q27 330 103.5 414Q180 498 295 498Q331 498 367.5 492.5Q404 487 432 477L410 341H391Q372 401 344.5 429.5Q317 458 279 458Q229 458 195.5 388.5Q162 319 162 215Q162 142 191.5 100Q221 58 272 58Q300 58 327.5 70.5Q355 83 385 109L380 76Q352 35 312.5 12.5Q273 -10 225 -13L204 -57Q246 -57 271.5 -78Q297 -99 297 -134Z" glyph-name="ccedilla" horiz-adv-x="437" unicode="&#231;" /><glyph d="M213 -13Q126 -13 76.5 44.5Q27 102 27 203Q27 330 103.5 414Q180 498 295 498Q330 498 364.5 492.5Q399 487 428 477L406 341H387Q371 401 344.5 429.5Q318 458 279 458Q229 458 195.5 388.5Q162 319 162 215Q162 142 191.5 100Q221 58 272 58Q300 58 327.5 70.5Q355 83 385 109L380 76Q349 32 307 9.5Q265 -13 213 -13ZM205 545H178L266 704H365L400 545H373L304 633Z" glyph-name="ccircumflex" horiz-adv-x="437" unicode="&#265;" /><glyph d="M213 -13Q126 -13 76.5 44.5Q27 102 27 203Q27 330 103.5 414Q180 498 295 498Q330 498 364.5 492.5Q399 487 428 477L406 341H387Q371 401 344.5 429.5Q318 458 279 458Q229 458 195.5 388.5Q162 319 162 215Q162 142 191.5 100Q221 58 272 58Q300 58 327.5 70.5Q355 83 385 109L380 76Q349 32 307 9.5Q265 -13 213 -13ZM233 623Q233 659 255.5 681.5Q278 704 314 704Q341 704 357 688Q373 672 373 645Q373 610 350 587Q327 564 292 564Q265 564 249 580Q233 596 233 623Z" glyph-name="cdotaccent" horiz-adv-x="437" unicode="&#267;" /><glyph d="M234 -134Q234 -174 207 -196.5Q180 -219 132 -219Q106 -219 83 -208Q60 -197 47 -179L50 -161Q66 -172 77.5 -176Q89 -180 103 -180Q125 -180 136 -168.5Q147 -157 147 -134Q147 -115 135 -102.5Q123 -90 100 -87L136 2H169L141 -57Q183 -57 208.5 -78Q234 -99 234 -134Z" glyph-name="cedilla" horiz-adv-x="440" unicode="&#184;" /><glyph d="M260 -133Q260 -173 232 -196Q204 -219 153 -219Q128 -219 105 -208.5Q82 -198 68 -181L70 -163Q84 -170 95.5 -173Q107 -176 119 -176Q143 -176 156.5 -164.5Q170 -153 170 -132Q170 -115 157.5 -102Q145 -89 125 -85L156 2H200L172 -57Q213 -58 236.5 -78.5Q260 -99 260 -133Z" glyph-name="cedilla.case" horiz-adv-x="440" /><glyph d="M246 0H208L222 69Q144 76 100 133Q56 190 56 284Q56 411 132.5 495Q209 579 324 579H325L339 646H378L364 577Q390 575 415 570Q440 565 461 558L439 422H420Q407 463 391 488.5Q375 514 354 527L275 142Q281 141 287.5 140Q294 139 301 139Q329 139 356.5 151.5Q384 164 414 190L409 157Q382 117 344 95Q306 73 260 69ZM191 296Q191 249 203.5 214Q216 179 240 160L317 539H308Q258 539 224.5 469.5Q191 400 191 296Z" glyph-name="cent" horiz-adv-x="500" unicode="&#162;" /><glyph d="M176 545H149L237 704H336L371 545H344L275 633Z" glyph-name="circumflex" horiz-adv-x="440" unicode="&#710;" /><glyph d="M174 688V691L248 820H361L390 691V688H361L294 758L202 688Z" glyph-name="circumflex.case" horiz-adv-x="440" /><glyph d="M220 366Q220 327 194 300.5Q168 274 130 274Q100 274 82 291Q64 308 64 337Q64 376 89.5 402.5Q115 429 153 429Q184 429 202 412Q220 395 220 366ZM176 86Q176 47 150 20.5Q124 -6 86 -6Q56 -6 38 11Q20 28 20 57Q20 96 45.5 122.5Q71 149 109 149Q140 149 158 132Q176 115 176 86Z" glyph-name="colon" horiz-adv-x="266" unicode=":" /><glyph d="M172 67Q172 -14 117.5 -73Q63 -132 -24 -145L-13 -73Q33 -65 59 -49Q85 -33 100 -4Q63 -4 42.5 13Q22 30 22 60Q22 98 44.5 121.5Q67 145 104 145Q136 145 154 124Q172 103 172 67Z" glyph-name="comma" horiz-adv-x="266" unicode="," /><glyph d="M217 -117Q217 -164 175 -198.5Q133 -233 68 -239L76 -187Q112 -182 129.5 -175Q147 -168 159 -155Q134 -155 119.5 -143Q105 -131 105 -111Q105 -88 120.5 -74Q136 -60 161 -60Q187 -60 202 -75.5Q217 -91 217 -117Z" glyph-name="commaaccent" horiz-adv-x="440" unicode="&#63171;" /><glyph d="M226 -116Q226 -164 179.5 -200.5Q133 -237 66 -243L76 -184Q119 -182 137 -176Q155 -170 167 -156Q140 -156 122.5 -143.5Q105 -131 105 -111Q105 -88 121 -74Q137 -60 165 -60Q191 -60 208.5 -75.5Q226 -91 226 -116Z" glyph-name="commaaccent.case" horiz-adv-x="440" /><glyph d="M728 377Q728 193 616.5 79.5Q505 -34 325 -34Q194 -34 114.5 49Q35 132 35 267Q35 451 146.5 564.5Q258 678 438 678Q569 678 648.5 595Q728 512 728 377ZM124 273Q124 165 181 101.5Q238 38 337 38Q474 38 556.5 128Q639 218 639 371Q639 479 582 542.5Q525 606 426 606Q289 606 206.5 516Q124 426 124 273ZM479 263 465 173Q445 163 418.5 158Q392 153 361 153Q297 153 261 187.5Q225 222 225 283Q225 374 280 434Q335 494 420 494Q445 494 470 489.5Q495 485 512 477L498 390H487L479 409Q464 441 449.5 455Q435 469 415 469Q373 469 344.5 412Q316 355 316 267Q316 224 329.5 200.5Q343 177 368 177Q392 177 413 193Q434 209 456 245L467 263Z" glyph-name="copyright" horiz-adv-x="755" unicode="&#169;" /><glyph d="M101 159 25 80 -9 124 73 194Q60 212 53.5 235.5Q47 259 47 285Q47 333 64.5 377.5Q82 422 113 454L55 526L102 569L154 489Q180 508 210 518.5Q240 529 269 529Q297 529 324 518.5Q351 508 370 489L446 569L481 526L400 455Q412 438 418 414Q424 390 424 363Q424 311 408.5 270.5Q393 230 358 195L418 124L369 80L317 160Q292 141 261.5 130.5Q231 120 204 120Q175 120 147 130.5Q119 141 101 159ZM138 296Q138 249 158.5 224.5Q179 200 218 200Q269 200 302 244Q335 288 335 356Q335 401 314.5 425.5Q294 450 257 450Q205 450 171.5 407Q138 364 138 296Z" glyph-name="currency" horiz-adv-x="469" unicode="&#164;" /><glyph d="M162 202Q162 136 177.5 99Q193 62 221 62Q247 62 272 92Q297 122 319 179L357 419Q345 438 326.5 448Q308 458 286 458Q232 458 197 387.5Q162 317 162 202ZM390 -10Q353 -10 333.5 11Q314 32 314 71Q314 84 314 90.5Q314 97 315 102Q286 48 247 17.5Q208 -13 167 -13Q100 -13 64.5 40Q29 93 29 193Q29 323 98.5 409.5Q168 496 273 496Q298 496 319.5 493Q341 490 367 483L381 571Q382 580 383 589Q384 598 384 604Q384 621 378 630.5Q372 640 355 651L329 666L332 687L452 706H531Q523 680 516 645.5Q509 611 504 576L431 113Q428 95 427 87Q426 79 426 74Q426 59 431.5 52Q437 45 448 45Q464 45 479 66Q494 87 508 130L535 122Q510 51 476 20.5Q442 -10 390 -10Z" glyph-name="d" horiz-adv-x="551" unicode="d" /><glyph d="M228 -249H120L235 477H102L111 535H244L278 750H386L352 535H486L476 477H343Z" glyph-name="dagger" horiz-adv-x="519" unicode="&#8224;" /><glyph d="M228 -249H120L159 0H27L35 58H168L235 477H102L111 535H244L278 750H386L352 535H486L476 477H343L276 58H410L401 0H267Z" glyph-name="daggerdbl" horiz-adv-x="519" unicode="&#8225;" /><glyph d="M162 202Q162 136 177.5 99Q193 62 221 62Q247 62 272 92Q297 122 319 179L357 419Q345 438 326.5 448Q308 458 286 458Q232 458 197 387.5Q162 317 162 202ZM390 -10Q353 -10 333.5 11Q314 32 314 71Q314 84 314 90.5Q314 97 315 102Q286 48 247 17.5Q208 -13 167 -13Q100 -13 64.5 40Q29 93 29 193Q29 323 98.5 409.5Q168 496 273 496Q298 496 319.5 493Q341 490 367 483L381 571Q382 580 383 589Q384 598 384 604Q384 621 378 630.5Q372 640 355 651L329 666L332 687L452 706H531Q523 680 516 645.5Q509 611 504 576L431 113Q428 95 427 87Q426 79 426 74Q426 59 431.5 52Q437 45 448 45Q464 45 479 66Q494 87 508 130L535 122Q510 51 476 20.5Q442 -10 390 -10ZM555 518H535L584 706H686L685 702Z" glyph-name="dcaron" horiz-adv-x="551" unicode="&#271;" /><glyph d="M162 202Q162 136 177.5 99Q193 62 221 62Q247 62 272 92Q297 122 319 179L357 419Q345 438 326.5 448Q308 458 286 458Q232 458 197 387.5Q162 317 162 202ZM314 71Q314 84 314 90.5Q314 97 315 102Q286 48 247 17.5Q208 -13 167 -13Q100 -13 64.5 40Q29 93 29 193Q29 323 98.5 409.5Q168 496 273 496Q298 496 319.5 493Q341 490 367 483L378 555H293L297 590H383Q384 594 384 597Q384 600 384 604Q384 621 378 630.5Q372 640 355 651L329 666L332 687L452 706H531Q524 682 517.5 652Q511 622 506 590H549L545 555H501L431 113Q428 95 427 87Q426 79 426 74Q426 59 431.5 52Q437 45 448 45Q464 45 479 66Q494 87 508 130L535 122Q510 51 476 20.5Q442 -10 390 -10Q353 -10 333.5 11Q314 32 314 71Z" glyph-name="dcroat" horiz-adv-x="551" unicode="&#273;" /><glyph d="M351 544Q351 469 305 421Q259 373 188 373Q133 373 101.5 403.5Q70 434 70 487Q70 561 116 609.5Q162 658 233 658Q287 658 319 627Q351 596 351 544ZM157 478Q157 443 168 425.5Q179 408 201 408Q230 408 247 447Q264 486 264 553Q264 588 253 606Q242 624 220 624Q192 624 174.5 584Q157 544 157 478Z" glyph-name="degree" horiz-adv-x="360" unicode="&#176;" /><glyph d="M289 623Q289 658 311 680.5Q333 703 368 703Q394 703 409.5 687Q425 671 425 645Q425 610 402.5 587.5Q380 565 346 565Q321 565 305 581Q289 597 289 623ZM115 623Q115 658 137 680.5Q159 703 194 703Q220 703 236 687Q252 671 252 645Q252 610 229.5 587.5Q207 565 173 565Q148 565 131.5 581.5Q115 598 115 623Z" glyph-name="dieresis" horiz-adv-x="440" unicode="&#168;" /><glyph d="M451 782Q451 750 429.5 728.5Q408 707 376 707Q350 707 334.5 721.5Q319 736 319 761Q319 793 340.5 814Q362 835 395 835Q420 835 435.5 820.5Q451 806 451 782ZM274 782Q274 750 252.5 728.5Q231 707 199 707Q173 707 157.5 721.5Q142 736 142 761Q142 793 163.5 814Q185 835 218 835Q243 835 258.5 820.5Q274 806 274 782Z" glyph-name="dieresis.case" horiz-adv-x="440" /><glyph d="M286 162Q286 129 264 106Q242 83 210 83Q184 83 169 97.5Q154 112 154 137Q154 170 175.5 193Q197 216 229 216Q255 216 270.5 201.5Q286 187 286 162ZM348 545Q348 512 326 489Q304 466 272 466Q246 466 231 480.5Q216 495 216 520Q216 553 237.5 576Q259 599 291 599Q317 599 332.5 584.5Q348 570 348 545ZM442 305H62L73 373H453Z" glyph-name="divide" horiz-adv-x="500" unicode="&#247;" /><glyph d="M183 -116H147L168 -14Q117 -12 77.5 -3Q38 6 5 23L35 201H57L69 167Q94 99 118.5 67.5Q143 36 177 29L223 257L213 262Q140 301 106.5 347Q73 393 73 451Q73 546 136 603Q199 660 305 660L323 750H361L342 659Q380 656 414.5 649Q449 642 474 632L448 463H425L412 502Q397 548 377.5 575Q358 602 333 612L287 388Q288 388 290 386.5Q292 385 294 384L324 368Q390 333 416.5 295Q443 257 443 200Q443 112 375.5 51.5Q308 -9 204 -14ZM197 515Q197 482 210.5 457Q224 432 254 409L296 619Q251 619 224 591Q197 563 197 515ZM256 239 212 27Q260 31 288 62Q316 93 316 142Q316 172 300.5 197Q285 222 256 239Z" glyph-name="dollar" horiz-adv-x="500" unicode="$" /><glyph d="M204 623Q204 659 226.5 681.5Q249 704 285 704Q312 704 328 688Q344 672 344 645Q344 610 321 587Q298 564 263 564Q236 564 220 580Q204 596 204 623Z" glyph-name="dotaccent" horiz-adv-x="440" unicode="&#729;" /><glyph d="M366 783Q366 749 343.5 726.5Q321 704 286 704Q259 704 242.5 719Q226 734 226 760Q226 795 248.5 817Q271 839 306 839Q333 839 349.5 823.5Q366 808 366 783Z" glyph-name="dotaccent.case" horiz-adv-x="440" /><glyph d="M83 -148Q83 -112 105.5 -89.5Q128 -67 164 -67Q191 -67 206.5 -83Q222 -99 222 -126Q222 -162 199.5 -185Q177 -208 142 -208Q116 -208 99.5 -191.5Q83 -175 83 -148Z" glyph-name="dotbelow" horiz-adv-x="440" /><glyph d="M225 -113Q225 -147 202.5 -169.5Q180 -192 145 -192Q118 -192 101.5 -177Q85 -162 85 -136Q85 -101 107.5 -79Q130 -57 165 -57Q192 -57 208.5 -72.5Q225 -88 225 -113Z" glyph-name="dotbelow.case" horiz-adv-x="440" /><glyph d="M142 -10Q103 -10 81 13Q59 36 59 76Q59 91 60.5 108Q62 125 67 153L102 365Q106 389 107.5 399Q109 409 109 416Q109 427 105 432Q101 437 92 437Q78 437 60 413.5Q42 390 27 350L2 360Q31 430 67 461.5Q103 493 154 493Q189 493 209 475Q229 457 229 425Q229 414 227.5 399.5Q226 385 223 367L183 113Q180 98 179 88.5Q178 79 178 74Q178 59 183.5 52Q189 45 200 45Q216 45 231 66Q246 87 260 130L287 122Q262 52 228.5 21Q195 -10 142 -10Z" glyph-name="dotlessi" horiz-adv-x="303" unicode="&#305;" /><glyph d="M-77 -211 -74 -184Q-8 -135 21 -81.5Q50 -28 64 71L106 365Q109 385 110 396.5Q111 408 111 416Q111 428 107.5 432.5Q104 437 95 437Q81 437 63.5 413Q46 389 30 350L5 360Q34 430 70 461.5Q106 493 157 493Q193 493 212.5 475Q232 457 232 425Q232 413 230.5 397.5Q229 382 227 367L181 42Q165 -69 106 -127.5Q47 -186 -77 -211Z" glyph-name="dotlessj" horiz-adv-x="283" unicode="&#567;" /><glyph d="M58 -250H0L158 750H216ZM178 -250H120L278 750H336Z" glyph-name="doublebar" horiz-adv-x="349" /><glyph d="M223 -14Q130 -14 78 41Q26 96 26 196Q26 327 102.5 412.5Q179 498 297 498Q356 498 390 469.5Q424 441 424 392Q424 336 380.5 302Q337 268 247 255L158 242Q157 233 157 226Q157 219 157 207Q157 136 185.5 98.5Q214 61 269 61Q305 61 336 76Q367 91 395 122L390 88Q361 40 316.5 13Q272 -14 223 -14ZM317 403Q317 431 305.5 445.5Q294 460 272 460Q233 460 202.5 408.5Q172 357 162 277L208 287Q258 298 287.5 329.5Q317 361 317 403Z" glyph-name="e" horiz-adv-x="454" unicode="e" /><glyph d="M223 -14Q130 -14 78 41Q26 96 26 196Q26 327 102.5 412.5Q179 498 297 498Q356 498 390 469.5Q424 441 424 392Q424 336 380.5 302Q337 268 247 255L158 242Q157 233 157 226Q157 219 157 207Q157 136 185.5 98.5Q214 61 269 61Q305 61 336 76Q367 91 395 122L390 88Q361 40 316.5 13Q272 -14 223 -14ZM317 403Q317 431 305.5 445.5Q294 460 272 460Q233 460 202.5 408.5Q172 357 162 277L208 287Q258 298 287.5 329.5Q317 361 317 403ZM463 698 292 557H252L315 706H465Z" glyph-name="eacute" horiz-adv-x="454" unicode="&#233;" /><glyph d="M223 -14Q130 -14 78 41Q26 96 26 196Q26 327 102.5 412.5Q179 498 297 498Q356 498 390 469.5Q424 441 424 392Q424 336 380.5 302Q337 268 247 255L158 242Q157 233 157 226Q157 219 157 207Q157 136 185.5 98.5Q214 61 269 61Q305 61 336 76Q367 91 395 122L390 88Q361 40 316.5 13Q272 -14 223 -14ZM317 403Q317 431 305.5 445.5Q294 460 272 460Q233 460 202.5 408.5Q172 357 162 277L208 287Q258 298 287.5 329.5Q317 361 317 403ZM386 696H407Q395 625 365 591Q335 557 284 557Q242 557 221.5 579.5Q201 602 201 649Q201 661 202 673Q203 685 205 696H227Q229 661 246 643.5Q263 626 295 626Q326 626 348.5 643Q371 660 386 696Z" glyph-name="ebreve" horiz-adv-x="454" unicode="&#277;" /><glyph d="M223 -14Q130 -14 78 41Q26 96 26 196Q26 327 102.5 412.5Q179 498 297 498Q356 498 390 469.5Q424 441 424 392Q424 336 380.5 302Q337 268 247 255L158 242Q157 233 157 226Q157 219 157 207Q157 136 185.5 98.5Q214 61 269 61Q305 61 336 76Q367 91 395 122L390 88Q361 40 316.5 13Q272 -14 223 -14ZM317 403Q317 431 305.5 445.5Q294 460 272 460Q233 460 202.5 408.5Q172 357 162 277L208 287Q258 298 287.5 329.5Q317 361 317 403ZM389 706H416L330 547H230L194 706H221L291 618Z" glyph-name="ecaron" horiz-adv-x="454" unicode="&#283;" /><glyph d="M223 -14Q130 -14 78 41Q26 96 26 196Q26 327 102.5 412.5Q179 498 297 498Q356 498 390 469.5Q424 441 424 392Q424 336 380.5 302Q337 268 247 255L158 242Q157 233 157 226Q157 219 157 207Q157 136 185.5 98.5Q214 61 269 61Q305 61 336 76Q367 91 395 122L390 88Q361 40 316.5 13Q272 -14 223 -14ZM317 403Q317 431 305.5 445.5Q294 460 272 460Q233 460 202.5 408.5Q172 357 162 277L208 287Q258 298 287.5 329.5Q317 361 317 403ZM198 545H171L259 704H358L393 545H366L297 633Z" glyph-name="ecircumflex" horiz-adv-x="454" unicode="&#234;" /><glyph d="M223 -14Q130 -14 78 41Q26 96 26 196Q26 327 102.5 412.5Q179 498 297 498Q356 498 390 469.5Q424 441 424 392Q424 336 380.5 302Q337 268 247 255L158 242Q157 233 157 226Q157 219 157 207Q157 136 185.5 98.5Q214 61 269 61Q305 61 336 76Q367 91 395 122L390 88Q361 40 316.5 13Q272 -14 223 -14ZM317 403Q317 431 305.5 445.5Q294 460 272 460Q233 460 202.5 408.5Q172 357 162 277L208 287Q258 298 287.5 329.5Q317 361 317 403ZM312 623Q312 658 334 680.5Q356 703 391 703Q417 703 432.5 687Q448 671 448 645Q448 610 425.5 587.5Q403 565 369 565Q344 565 328 581Q312 597 312 623ZM138 623Q138 658 160 680.5Q182 703 217 703Q243 703 259 687Q275 671 275 645Q275 610 252.5 587.5Q230 565 196 565Q171 565 154.5 581.5Q138 598 138 623Z" glyph-name="edieresis" horiz-adv-x="454" unicode="&#235;" /><glyph d="M223 -14Q130 -14 78 41Q26 96 26 196Q26 327 102.5 412.5Q179 498 297 498Q356 498 390 469.5Q424 441 424 392Q424 336 380.5 302Q337 268 247 255L158 242Q157 233 157 226Q157 219 157 207Q157 136 185.5 98.5Q214 61 269 61Q305 61 336 76Q367 91 395 122L390 88Q361 40 316.5 13Q272 -14 223 -14ZM317 403Q317 431 305.5 445.5Q294 460 272 460Q233 460 202.5 408.5Q172 357 162 277L208 287Q258 298 287.5 329.5Q317 361 317 403ZM226 623Q226 659 248.5 681.5Q271 704 307 704Q334 704 350 688Q366 672 366 645Q366 610 343 587Q320 564 285 564Q258 564 242 580Q226 596 226 623Z" glyph-name="edotaccent" horiz-adv-x="454" unicode="&#279;" /><glyph d="M223 -14Q130 -14 78 41Q26 96 26 196Q26 327 102.5 412.5Q179 498 297 498Q356 498 390 469.5Q424 441 424 392Q424 336 380.5 302Q337 268 247 255L158 242Q157 233 157 226Q157 219 157 207Q157 136 185.5 98.5Q214 61 269 61Q305 61 336 76Q367 91 395 122L390 88Q361 40 316.5 13Q272 -14 223 -14ZM317 403Q317 431 305.5 445.5Q294 460 272 460Q233 460 202.5 408.5Q172 357 162 277L208 287Q258 298 287.5 329.5Q317 361 317 403ZM317 557H277L144 698V706H284Z" glyph-name="egrave" horiz-adv-x="454" unicode="&#232;" /><glyph d="M448 205Q448 104 380 45Q312 -14 196 -14Q113 -14 65.5 26Q18 66 18 134Q18 196 58.5 239Q99 282 178 303L162 314Q122 342 101 380.5Q80 419 80 464Q80 552 141 606Q202 660 305 660Q379 660 429.5 620Q480 580 480 519Q480 458 445.5 418Q411 378 343 361L363 348Q401 323 424.5 284Q448 245 448 205ZM205 523Q205 484 224 452.5Q243 421 281 398L317 376Q345 406 358.5 441.5Q372 477 372 523Q372 567 350 595Q328 623 293 623Q252 623 228.5 596.5Q205 570 205 523ZM128 133Q128 81 150 52Q172 23 212 23Q261 23 291 57.5Q321 92 321 148Q321 181 300 212Q279 243 241 266L206 287Q172 260 150 217Q128 174 128 133Z" glyph-name="eight" horiz-adv-x="507" unicode="8" /><glyph d="M176 86Q176 47 150 20.5Q124 -6 86 -6Q56 -6 38 11Q20 28 20 57Q20 96 45.5 122.5Q71 149 109 149Q140 149 158 132Q176 115 176 86ZM389 86Q389 47 363 20.5Q337 -6 299 -6Q269 -6 251 11Q233 28 233 57Q233 96 258.5 122.5Q284 149 322 149Q353 149 371 132Q389 115 389 86ZM603 86Q603 47 577 20.5Q551 -6 513 -6Q483 -6 465 11Q447 28 447 57Q447 96 472.5 122.5Q498 149 536 149Q567 149 585 132Q603 115 603 86Z" glyph-name="ellipsis" horiz-adv-x="693" unicode="&#8230;" /><glyph d="M223 -14Q130 -14 78 41Q26 96 26 196Q26 327 102.5 412.5Q179 498 297 498Q356 498 390 469.5Q424 441 424 392Q424 336 380.5 302Q337 268 247 255L158 242Q157 233 157 226Q157 219 157 207Q157 136 185.5 98.5Q214 61 269 61Q305 61 336 76Q367 91 395 122L390 88Q361 40 316.5 13Q272 -14 223 -14ZM317 403Q317 431 305.5 445.5Q294 460 272 460Q233 460 202.5 408.5Q172 357 162 277L208 287Q258 298 287.5 329.5Q317 361 317 403ZM395 596H186L194 647H403Z" glyph-name="emacron" horiz-adv-x="454" unicode="&#275;" /><glyph d="M895 234H40L48 288H903Z" glyph-name="emdash" horiz-adv-x="952" unicode="&#8212;" /><glyph d="M437 234H40L48 288H445Z" glyph-name="endash" horiz-adv-x="494" unicode="&#8211;" /><glyph d="M186 -211 189 -184Q260 -132 291.5 -76.5Q323 -21 337 71L372 308Q377 342 379 358Q381 374 381 382Q381 399 373 408.5Q365 418 350 418Q305 418 265 345Q225 272 186 120L166 0H46L104 365Q108 389 109.5 399Q111 409 111 416Q111 427 107 432Q103 437 94 437Q80 437 62 413.5Q44 390 29 350L4 360Q33 430 69 461.5Q105 493 156 493Q188 493 205.5 476Q223 459 223 428Q223 417 221.5 402Q220 387 216 367L204 294Q249 399 298 448.5Q347 498 404 498Q452 498 478 470.5Q504 443 504 393Q504 385 501.5 363Q499 341 493 302L453 42Q437 -67 375 -126Q313 -185 186 -211Z" glyph-name="eng" horiz-adv-x="557" unicode="&#331;" /><glyph d="M223 -218Q186 -218 165 -199.5Q144 -181 144 -148Q144 -110 176.5 -72Q209 -34 263 -9Q255 -11 243 -12.5Q231 -14 223 -14Q130 -14 78 41Q26 96 26 196Q26 327 102.5 412.5Q179 498 297 498Q356 498 390 469.5Q424 441 424 392Q424 336 380.5 302Q337 268 247 255L158 242Q157 233 157 226Q157 219 157 207Q157 136 185.5 98.5Q214 61 269 61Q305 61 336 76Q367 91 395 122L390 88Q377 68 363.5 53Q350 38 334 26Q280 -16 254.5 -53Q229 -90 229 -126Q229 -146 240 -158Q251 -170 270 -170Q286 -170 301 -164.5Q316 -159 333 -146L330 -169Q308 -194 281 -206Q254 -218 223 -218ZM317 403Q317 431 305.5 445.5Q294 460 272 460Q233 460 202.5 408.5Q172 357 162 277L208 287Q258 298 287.5 329.5Q317 361 317 403Z" glyph-name="eogonek" horiz-adv-x="454" unicode="&#281;" /><glyph d="M428 213H48L59 281H439ZM457 397H77L88 465H468Z" glyph-name="equal" horiz-adv-x="500" unicode="=" /><glyph d="M399 -13Q250 -13 144.5 82Q39 177 39 311Q39 445 144.5 540Q250 635 399 635Q551 635 655 538Q759 441 759 302H176Q173 302 172 301Q171 300 171 298V122Q171 116 173 111Q175 106 179 102Q223 56 280 31Q337 6 400 6Q467 6 527 34Q587 62 632 113H684Q633 54 558 20.5Q483 -13 399 -13ZM176 320H623Q625 320 626 321.5Q627 323 627 325V503Q627 509 625 514.5Q623 520 618 524Q574 568 517.5 592Q461 616 400 616Q338 616 281 591.5Q224 567 180 521Q175 516 173 511Q171 506 171 499V325Q171 323 172.5 321.5Q174 320 176 320Z" glyph-name="estimated" horiz-adv-x="793" unicode="&#8494;" /><glyph d="M474 279Q474 154 402 70Q330 -14 223 -14Q135 -14 80.5 46Q26 106 26 205Q26 330 98 414Q170 498 277 498Q292 498 306 496Q320 494 335 490Q331 510 321.5 533Q312 556 295 585L208 549L214 586L277 613Q263 634 246.5 656Q230 678 213 699L214 706H241Q260 693 280.5 674.5Q301 656 323 633L456 691L450 649L347 606Q410 530 442 448Q474 366 474 279ZM153 177Q153 103 171 63.5Q189 24 224 24Q277 24 312 105Q347 186 347 307Q347 381 329 420.5Q311 460 276 460Q223 460 188 379Q153 298 153 177Z" glyph-name="eth" horiz-adv-x="516" unicode="&#240;" /><glyph d="M161 197H121L122 570L134 646H290L278 570ZM195 81Q195 43 170.5 17.5Q146 -8 109 -8Q80 -8 62.5 9Q45 26 45 54Q45 92 69.5 117.5Q94 143 131 143Q160 143 177.5 126Q195 109 195 81Z" glyph-name="exclam" horiz-adv-x="312" unicode="!" /><glyph d="M135 287H175L174 -86L162 -162H6L18 -86ZM101 403Q101 441 125.5 466.5Q150 492 187 492Q216 492 233.5 475Q251 458 251 430Q251 392 226.5 366.5Q202 341 165 341Q136 341 118.5 358Q101 375 101 403Z" glyph-name="exclamdown" horiz-adv-x="312" unicode="&#161;" /><glyph d="M186 81Q170 -53 104.5 -132Q39 -211 -53 -211Q-76 -211 -92 -209Q-108 -207 -122 -203L-109 -121H-104Q-84 -141 -62.5 -151Q-41 -161 -18 -161Q18 -161 34 -127.5Q50 -94 60 -3Q65 42 78 205.5Q91 369 95 435H45L51 469L99 484Q100 491 100.5 498Q101 505 102 512Q114 607 168 659.5Q222 712 309 712Q330 712 355.5 709Q381 706 402 702L388 614H381Q359 639 335.5 651Q312 663 285 663Q260 663 247.5 649.5Q235 636 232 606Q228 566 225 535Q222 504 221 478H340L333 435H218Q215 388 203 257.5Q191 127 186 81Z" glyph-name="f" horiz-adv-x="321" unicode="f" /><glyph d="M231 606Q226 563 223.5 533Q221 503 220 478H372Q372 485 372.5 492Q373 499 374 503Q376 532 383.5 558Q391 584 403 607Q384 632 352 647.5Q320 663 289 663Q264 663 249.5 649Q235 635 231 606ZM158 -34Q177 -53 206.5 -65.5Q236 -78 261 -78Q296 -78 311.5 -46Q327 -14 339 80Q344 117 353 228Q362 339 368 434H217Q204 278 197.5 204Q191 130 185 81Q181 49 174.5 20.5Q168 -8 158 -34ZM123 -106Q89 -157 43.5 -184Q-2 -211 -54 -211Q-77 -211 -93 -209Q-109 -207 -123 -203L-110 -121H-105Q-85 -141 -63.5 -151Q-42 -161 -19 -161Q16 -161 31.5 -129Q47 -97 59 -3Q64 38 76 191Q88 344 94 434H42L47 466L98 482Q98 485 98.5 492.5Q99 500 100 503Q108 598 164.5 655Q221 712 308 712Q343 712 387 704.5Q431 697 476 684Q499 698 525.5 705Q552 712 582 712Q603 712 628.5 709Q654 706 675 702L661 614H654Q632 639 608.5 651Q585 663 558 663Q534 663 521.5 650Q509 637 505 606Q500 563 497.5 533Q495 503 494 478H613L606 434H491Q488 386 479.5 302.5Q471 219 465 164Q449 30 383.5 -49Q318 -128 226 -128Q201 -128 171 -121.5Q141 -115 123 -106Z" glyph-name="ff" horiz-adv-x="592" unicode="&#64256;" /><glyph d="M-18 -161Q17 -161 32.5 -129Q48 -97 60 -3Q64 32 74 155Q84 278 95 434H43L48 466L99 482Q99 485 99.5 492.5Q100 500 101 503Q109 598 165.5 655Q222 712 309 712Q403 712 458.5 688Q514 664 514 625Q514 596 495 580Q476 564 444 564Q413 564 395 579Q377 594 374 622Q354 643 332 653Q310 663 285 663Q261 663 248.5 650Q236 637 232 606Q227 563 224.5 533Q222 503 221 478H289Q298 478 307.5 479Q317 480 337 485Q364 490 381 492Q398 494 416 494Q451 494 469.5 476.5Q488 459 488 426Q488 414 487 400.5Q486 387 483 367L444 116Q441 98 440 86.5Q439 75 439 68Q439 53 444 46.5Q449 40 461 40Q478 40 495 63.5Q512 87 524 129L550 121Q526 51 493.5 19.5Q461 -12 413 -12Q370 -12 345.5 12Q321 36 321 76Q321 94 322.5 112.5Q324 131 328 153L362 365Q366 386 367.5 403Q369 420 369 434H218Q205 278 198.5 204Q192 130 186 81Q170 -53 104.5 -132Q39 -211 -53 -211Q-76 -211 -92 -209Q-108 -207 -122 -203L-109 -121H-104Q-84 -141 -62.5 -151Q-41 -161 -18 -161Z" glyph-name="fi" horiz-adv-x="564" unicode="&#64257;" /><glyph d="M385 206Q385 107 320 46.5Q255 -14 151 -14Q95 -14 54.5 5.5Q14 25 -14 66L-9 93Q19 70 50.5 58Q82 46 113 46Q173 46 206.5 84Q240 122 240 188Q240 238 206 267Q172 296 114 296Q103 296 93 295.5Q83 295 72 294L140 646H435L416 526H167L132 383Q141 384 157 385Q173 386 187 386Q275 386 330 336Q385 286 385 206Z" glyph-name="five" horiz-adv-x="448" unicode="5" /><glyph d="M185 81Q169 -53 103.5 -132Q38 -211 -54 -211Q-77 -211 -93 -209Q-109 -207 -123 -203L-110 -121H-105Q-85 -141 -63.5 -151Q-42 -161 -19 -161Q16 -161 31.5 -129Q47 -97 59 -3Q64 37 76 187Q88 337 94 434H42L47 466L98 482Q98 485 98.5 492.5Q99 500 100 503Q108 598 164.5 655Q221 712 308 712Q330 712 353.5 708.5Q377 705 404 697L466 706H541Q533 680 526 645.5Q519 611 514 576L444 122Q441 102 439.5 89Q438 76 438 68Q438 53 443 47Q448 41 460 41Q477 41 494 64.5Q511 88 524 129L550 120Q525 49 491 18.5Q457 -12 403 -12Q365 -12 342 10.5Q319 33 319 71Q319 88 321 109Q323 130 327 153L389 553Q391 564 393 584Q395 604 395 610Q366 639 340 651Q314 663 284 663Q260 663 247.5 650Q235 637 231 606Q226 563 223.5 533Q221 503 220 478H319L312 434H217Q204 278 197.5 204Q191 130 185 81Z" glyph-name="fl" horiz-adv-x="563" unicode="&#64258;" /><glyph d="M445 315H314L231 -23Q210 -109 150.5 -159Q91 -209 7 -209Q-18 -209 -42 -207Q-66 -205 -80 -201L-59 -111H-49Q-39 -136 -22 -151Q-5 -166 14 -166Q44 -166 61.5 -149Q79 -132 87 -95L184 315H105L116 361H194L235 533Q255 617 314 665Q373 713 458 713Q481 713 502 710Q523 707 537 701L516 617H507Q497 640 481 652Q465 664 444 664Q421 664 406.5 648.5Q392 633 384 601L325 361H454Z" glyph-name="florin" horiz-adv-x="500" unicode="&#402;" /><glyph d="M417 0H134L138 24L185 42Q207 51 216 63.5Q225 76 229 105L237 151H11L24 236L324 646H437L373 243H452L438 151H358L353 114Q351 105 350 96.5Q349 88 349 81Q349 66 355 57.5Q361 49 376 42L421 24ZM299 546 98 243H251Z" glyph-name="four" horiz-adv-x="499" unicode="4" /><glyph d="M9 0H-54L-53 4L389 646H452V642Z" glyph-name="fraction" horiz-adv-x="389" unicode="&#8260;" /><glyph d="M403 -33Q403 -109 327.5 -162Q252 -215 144 -215Q63 -215 13.5 -182Q-36 -149 -36 -95Q-36 -48 5 -18Q46 12 121 20Q104 28 95 42Q86 56 86 75Q86 101 107 123.5Q128 146 168 162Q108 170 72 210Q36 250 36 310Q36 396 93.5 447Q151 498 248 498Q268 498 285 495Q302 492 317 486Q336 526 369.5 548Q403 570 445 570H456L444 492H437Q397 492 375.5 488.5Q354 485 338 476Q371 458 391 422Q411 386 411 345Q411 264 361.5 215Q312 166 223 159Q204 152 194 143.5Q184 135 184 126Q184 116 192.5 110.5Q201 105 225 97L295 76Q351 59 377 33Q403 7 403 -33ZM156 289Q156 246 170.5 219.5Q185 193 209 193Q245 193 268 241.5Q291 290 291 366Q291 409 276.5 435.5Q262 462 239 462Q203 462 179.5 413Q156 364 156 289ZM67 -88Q67 -126 97.5 -149.5Q128 -173 177 -173Q226 -173 259.5 -148Q293 -123 293 -87Q293 -63 279 -48Q265 -33 232 -23L150 3Q111 -9 89 -33Q67 -57 67 -88Z" glyph-name="g" horiz-adv-x="462" unicode="g" /><glyph d="M403 -33Q403 -109 327.5 -162Q252 -215 144 -215Q63 -215 13.5 -182Q-36 -149 -36 -95Q-36 -48 5 -18Q46 12 121 20Q104 28 95 42Q86 56 86 75Q86 101 107 123.5Q128 146 168 162Q108 170 72 210Q36 250 36 310Q36 396 93.5 447Q151 498 248 498Q268 498 285 495Q302 492 317 486Q336 526 369.5 548Q403 570 445 570H456L444 492H437Q397 492 375.5 488.5Q354 485 338 476Q371 458 391 422Q411 386 411 345Q411 264 361.5 215Q312 166 223 159Q204 152 194 143.5Q184 135 184 126Q184 116 192.5 110.5Q201 105 225 97L295 76Q351 59 377 33Q403 7 403 -33ZM156 289Q156 246 170.5 219.5Q185 193 209 193Q245 193 268 241.5Q291 290 291 366Q291 409 276.5 435.5Q262 462 239 462Q203 462 179.5 413Q156 364 156 289ZM67 -88Q67 -126 97.5 -149.5Q128 -173 177 -173Q226 -173 259.5 -148Q293 -123 293 -87Q293 -63 279 -48Q265 -33 232 -23L150 3Q111 -9 89 -33Q67 -57 67 -88ZM344 694H365Q353 623 323 589Q293 555 242 555Q200 555 179.5 577.5Q159 600 159 647Q159 659 160 671Q161 683 163 694H185Q187 659 204 641.5Q221 624 253 624Q284 624 306.5 641Q329 658 344 694Z" glyph-name="gbreve" horiz-adv-x="462" unicode="&#287;" /><glyph d="M403 -33Q403 -109 327.5 -162Q252 -215 144 -215Q63 -215 13.5 -182Q-36 -149 -36 -95Q-36 -48 5 -18Q46 12 121 20Q104 28 95 42Q86 56 86 75Q86 101 107 123.5Q128 146 168 162Q108 170 72 210Q36 250 36 310Q36 396 93.5 447Q151 498 248 498Q268 498 285 495Q302 492 317 486Q336 526 369.5 548Q403 570 445 570H456L444 492H437Q397 492 375.5 488.5Q354 485 338 476Q371 458 391 422Q411 386 411 345Q411 264 361.5 215Q312 166 223 159Q204 152 194 143.5Q184 135 184 126Q184 116 192.5 110.5Q201 105 225 97L295 76Q351 59 377 33Q403 7 403 -33ZM156 289Q156 246 170.5 219.5Q185 193 209 193Q245 193 268 241.5Q291 290 291 366Q291 409 276.5 435.5Q262 462 239 462Q203 462 179.5 413Q156 364 156 289ZM67 -88Q67 -126 97.5 -149.5Q128 -173 177 -173Q226 -173 259.5 -148Q293 -123 293 -87Q293 -63 279 -48Q265 -33 232 -23L150 3Q111 -9 89 -33Q67 -57 67 -88ZM136 543H109L197 702H296L331 543H304L235 631Z" glyph-name="gcircumflex" horiz-adv-x="462" unicode="&#285;" /><glyph d="M403 -33Q403 -109 327.5 -162Q252 -215 144 -215Q63 -215 13.5 -182Q-36 -149 -36 -95Q-36 -48 5 -18Q46 12 121 20Q104 28 95 42Q86 56 86 75Q86 101 107 123.5Q128 146 168 162Q108 170 72 210Q36 250 36 310Q36 396 93.5 447Q151 498 248 498Q268 498 285 495Q302 492 317 486Q336 526 369.5 548Q403 570 445 570H456L444 492H437Q397 492 375.5 488.5Q354 485 338 476Q371 458 391 422Q411 386 411 345Q411 264 361.5 215Q312 166 223 159Q204 152 194 143.5Q184 135 184 126Q184 116 192.5 110.5Q201 105 225 97L295 76Q351 59 377 33Q403 7 403 -33ZM156 289Q156 246 170.5 219.5Q185 193 209 193Q245 193 268 241.5Q291 290 291 366Q291 409 276.5 435.5Q262 462 239 462Q203 462 179.5 413Q156 364 156 289ZM67 -88Q67 -126 97.5 -149.5Q128 -173 177 -173Q226 -173 259.5 -148Q293 -123 293 -87Q293 -63 279 -48Q265 -33 232 -23L150 3Q111 -9 89 -33Q67 -57 67 -88ZM316 591Q316 569 300.5 555.5Q285 542 260 542Q238 542 225.5 555.5Q213 569 213 593Q213 641 251 676Q289 711 348 718L341 670Q313 666 294.5 657Q276 648 264 632Q290 632 303 621.5Q316 611 316 591Z" glyph-name="gcommaaccent" horiz-adv-x="462" unicode="&#291;" /><glyph d="M403 -33Q403 -109 327.5 -162Q252 -215 144 -215Q63 -215 13.5 -182Q-36 -149 -36 -95Q-36 -48 5 -18Q46 12 121 20Q104 28 95 42Q86 56 86 75Q86 101 107 123.5Q128 146 168 162Q108 170 72 210Q36 250 36 310Q36 396 93.5 447Q151 498 248 498Q268 498 285 495Q302 492 317 486Q336 526 369.5 548Q403 570 445 570H456L444 492H437Q397 492 375.5 488.5Q354 485 338 476Q371 458 391 422Q411 386 411 345Q411 264 361.5 215Q312 166 223 159Q204 152 194 143.5Q184 135 184 126Q184 116 192.5 110.5Q201 105 225 97L295 76Q351 59 377 33Q403 7 403 -33ZM156 289Q156 246 170.5 219.5Q185 193 209 193Q245 193 268 241.5Q291 290 291 366Q291 409 276.5 435.5Q262 462 239 462Q203 462 179.5 413Q156 364 156 289ZM67 -88Q67 -126 97.5 -149.5Q128 -173 177 -173Q226 -173 259.5 -148Q293 -123 293 -87Q293 -63 279 -48Q265 -33 232 -23L150 3Q111 -9 89 -33Q67 -57 67 -88ZM198 621Q198 657 220.5 679.5Q243 702 279 702Q306 702 322 686Q338 670 338 643Q338 608 315 585Q292 562 257 562Q230 562 214 578Q198 594 198 621Z" glyph-name="gdotaccent" horiz-adv-x="462" unicode="&#289;" /><glyph d="M185 81Q169 -53 103.5 -132Q38 -211 -54 -211Q-77 -211 -93 -209Q-109 -207 -123 -203L-110 -121H-105Q-85 -141 -63.5 -151Q-42 -161 -19 -161Q16 -161 31.5 -129Q47 -97 59 -3Q64 37 76 188Q88 339 94 432H42L47 466L98 482Q98 485 98.5 492.5Q99 500 100 503Q108 598 164 653.5Q220 709 308 709Q378 709 421.5 676.5Q465 644 465 594Q465 560 450 534Q435 508 390 474Q354 448 343.5 431.5Q333 415 333 396Q333 367 349.5 345.5Q366 324 411 295L433 281Q488 246 507.5 216Q527 186 527 142Q527 76 475 31.5Q423 -13 346 -13Q313 -13 287.5 -8Q262 -3 222 12L239 96H248Q282 49 302 37Q322 25 357 25Q388 25 406.5 43.5Q425 62 425 93Q425 116 412.5 134Q400 152 358 181L348 188Q294 226 275 255Q256 284 256 326Q256 350 265 372.5Q274 395 303 438Q339 489 350.5 522.5Q362 556 362 593Q362 626 342 644.5Q322 663 287 663Q262 663 248.5 649Q235 635 231 606Q230 595 226.5 554.5Q223 514 213 394Q199 232 193.5 168.5Q188 105 185 81Z" glyph-name="germandbls" horiz-adv-x="554" unicode="&#223;" /><glyph d="M295 557H255L122 698V706H262Z" glyph-name="grave" horiz-adv-x="440" unicode="`" /><glyph d="M311 696H268L136 800L137 807H295Z" glyph-name="grave.case" horiz-adv-x="440" /><glyph d="M442 282 15 52 30 142 338 303 81 465 102 597 456 367Z" glyph-name="greater" horiz-adv-x="500" unicode="&gt;" /><glyph d="M430 251 419 183H39L50 252H319L94 530L114 654ZM21 69H401L391 0H11Z" glyph-name="greaterequal" horiz-adv-x="500" unicode="&#8805;" /><glyph d="M359 52H332L201 212L211 270L390 429H419L418 426L305 240L359 55ZM184 52H157L26 212L36 270L215 429H244L243 426L130 240L184 55Z" glyph-name="guillemotleft" horiz-adv-x="437" unicode="&#171;" /><glyph d="M62 429H89L220 269L210 211L31 52H2L3 55L116 241L62 426ZM237 429H264L395 269L385 211L206 52H177L178 55L291 241L237 426Z" glyph-name="guillemotright" horiz-adv-x="437" unicode="&#187;" /><glyph d="M184 52H157L26 212L36 270L215 429H244L243 426L130 240L184 55Z" glyph-name="guilsinglleft" horiz-adv-x="262" unicode="&#8249;" /><glyph d="M62 429H89L220 269L210 211L31 52H2L3 55L116 241L62 426Z" glyph-name="guilsinglright" horiz-adv-x="262" unicode="&#8250;" /><glyph d="M147 0H24L114 571Q115 580 116 589Q117 598 117 604Q117 622 111 632Q105 642 88 651L62 666L65 687L185 706H264Q256 680 249 645.5Q242 611 237 576L194 299Q236 399 284.5 448.5Q333 498 389 498Q439 498 465.5 470.5Q492 443 492 392Q492 376 489 350.5Q486 325 481 302L443 113Q440 99 439 89.5Q438 80 438 74Q438 59 443.5 52Q449 45 460 45Q476 45 491 66Q506 87 520 130L547 122Q522 52 488.5 21Q455 -10 402 -10Q363 -10 341 13Q319 36 319 76Q319 95 321 113.5Q323 132 327 153L358 308Q362 328 365 351Q368 374 368 386Q368 402 359.5 411Q351 420 337 420Q292 420 249.5 344Q207 268 166 115Z" glyph-name="h" horiz-adv-x="564" unicode="h" /><glyph d="M520 130 547 122Q522 52 488.5 21Q455 -10 402 -10Q363 -10 341 13Q319 36 319 76Q319 95 321 113.5Q323 132 327 153L358 308Q362 328 365 351Q368 374 368 386Q368 402 359.5 411Q351 420 337 420Q292 420 249.5 344Q207 268 166 115L147 0H24L111 555H57L62 590H116Q117 595 117 598Q117 601 117 604Q117 622 111 632Q105 642 88 651L62 666L65 687L185 706H264Q257 682 250.5 652Q244 622 239 590H332L328 555H234L194 299Q236 399 284.5 448.5Q333 498 389 498Q439 498 465.5 470.5Q492 443 492 392Q492 376 489 350.5Q486 325 481 302L443 113Q440 99 439 89.5Q438 80 438 74Q438 59 443.5 52Q449 45 460 45Q476 45 491 66Q506 87 520 130Z" glyph-name="hbar" horiz-adv-x="564" unicode="&#295;" /><glyph d="M147 0H24L114 571Q115 580 116 589Q117 598 117 604Q117 622 111 632Q105 642 88 651L62 666L65 687L185 706H264Q256 680 249 645.5Q242 611 237 576L194 299Q236 399 284.5 448.5Q333 498 389 498Q439 498 465.5 470.5Q492 443 492 392Q492 376 489 350.5Q486 325 481 302L443 113Q440 99 439 89.5Q438 80 438 74Q438 59 443.5 52Q449 45 460 45Q476 45 491 66Q506 87 520 130L547 122Q522 52 488.5 21Q455 -10 402 -10Q363 -10 341 13Q319 36 319 76Q319 95 321 113.5Q323 132 327 153L358 308Q362 328 365 351Q368 374 368 386Q368 402 359.5 411Q351 420 337 420Q292 420 249.5 344Q207 268 166 115ZM85 729H58L146 888H245L280 729H253L184 817Z" glyph-name="hcircumflex" horiz-adv-x="564" unicode="&#293;" /><glyph d="M269 557H232L355 704H457L456 700ZM190 557H154L213 704H304L303 700Z" glyph-name="hungarumlaut" horiz-adv-x="440" unicode="&#733;" /><glyph d="M340 696H302L413 807H527ZM267 696H237L280 807H374Z" glyph-name="hungarumlaut.case" horiz-adv-x="440" /><glyph d="M207 234H40L48 288H215Z" glyph-name="hyphen" horiz-adv-x="264" unicode="-" /><glyph d="M122 622Q122 660 144.5 684.5Q167 709 203 709Q232 709 248.5 693.5Q265 678 265 651Q265 613 242.5 588.5Q220 564 184 564Q155 564 138.5 579.5Q122 595 122 622ZM142 -10Q103 -10 81 13Q59 36 59 76Q59 91 60.5 108Q62 125 67 153L102 365Q106 389 107.5 399Q109 409 109 416Q109 427 105 432Q101 437 92 437Q78 437 60 413.5Q42 390 27 350L2 360Q31 430 67 461.5Q103 493 154 493Q189 493 209 475Q229 457 229 425Q229 414 227.5 399.5Q226 385 223 367L183 113Q180 98 179 88.5Q178 79 178 74Q178 59 183.5 52Q189 45 200 45Q216 45 231 66Q246 87 260 130L287 122Q262 52 228.5 21Q195 -10 142 -10Z" glyph-name="i" horiz-adv-x="303" unicode="i" /><glyph d="M122 622Q122 660 144.5 684.5Q167 709 203 709Q232 709 248.5 693.5Q265 678 265 651Q265 613 242.5 588.5Q220 564 184 564Q155 564 138.5 579.5Q122 595 122 622ZM142 -10Q103 -10 81 13Q59 36 59 76Q59 91 60.5 108Q62 125 67 153L102 365Q106 389 107.5 399Q109 409 109 416Q109 427 105 432Q101 437 92 437Q78 437 60 413.5Q42 390 27 350L2 360Q31 430 67 461.5Q103 493 154 493Q189 493 209 475Q229 457 229 425Q229 414 227.5 399.5Q226 385 223 367L183 113Q180 98 179 88.5Q178 79 178 74Q178 59 183.5 52Q189 45 200 45Q216 45 231 66Q246 87 260 130L287 122Q262 52 228.5 21Q195 -10 142 -10Z" glyph-name="i.latn_TRK" horiz-adv-x="303" /><glyph d="M142 -10Q103 -10 81 13Q59 36 59 76Q59 91 60.5 108Q62 125 67 153L102 365Q106 389 107.5 399Q109 409 109 416Q109 427 105 432Q101 437 92 437Q78 437 60 413.5Q42 390 27 350L2 360Q31 430 67 461.5Q103 493 154 493Q189 493 209 475Q229 457 229 425Q229 414 227.5 399.5Q226 385 223 367L183 113Q180 98 179 88.5Q178 79 178 74Q178 59 183.5 52Q189 45 200 45Q216 45 231 66Q246 87 260 130L287 122Q262 52 228.5 21Q195 -10 142 -10ZM342 698 171 557H131L194 706H344Z" glyph-name="iacute" horiz-adv-x="303" unicode="&#237;" /><glyph d="M264 696H285Q273 625 243 591Q213 557 162 557Q120 557 99.5 579.5Q79 602 79 649Q79 661 80 673Q81 685 83 696H105Q107 661 124 643.5Q141 626 173 626Q204 626 226.5 643Q249 660 264 696ZM142 -10Q103 -10 81 13Q59 36 59 76Q59 91 60.5 108Q62 125 67 153L102 365Q106 389 107.5 399Q109 409 109 416Q109 427 105 432Q101 437 92 437Q78 437 60 413.5Q42 390 27 350L2 360Q31 430 67 461.5Q103 493 154 493Q189 493 209 475Q229 457 229 425Q229 414 227.5 399.5Q226 385 223 367L183 113Q180 98 179 88.5Q178 79 178 74Q178 59 183.5 52Q189 45 200 45Q216 45 231 66Q246 87 260 130L287 122Q262 52 228.5 21Q195 -10 142 -10Z" glyph-name="ibreve" horiz-adv-x="303" unicode="&#301;" /><glyph d="M76 545H49L137 704H236L271 545H244L175 633ZM142 -10Q103 -10 81 13Q59 36 59 76Q59 91 60.5 108Q62 125 67 153L102 365Q106 389 107.5 399Q109 409 109 416Q109 427 105 432Q101 437 92 437Q78 437 60 413.5Q42 390 27 350L2 360Q31 430 67 461.5Q103 493 154 493Q189 493 209 475Q229 457 229 425Q229 414 227.5 399.5Q226 385 223 367L183 113Q180 98 179 88.5Q178 79 178 74Q178 59 183.5 52Q189 45 200 45Q216 45 231 66Q246 87 260 130L287 122Q262 52 228.5 21Q195 -10 142 -10Z" glyph-name="icircumflex" horiz-adv-x="303" unicode="&#238;" /><glyph d="M193 623Q193 658 215 680.5Q237 703 272 703Q298 703 313.5 687Q329 671 329 645Q329 610 306.5 587.5Q284 565 250 565Q225 565 209 581Q193 597 193 623ZM19 623Q19 658 41 680.5Q63 703 98 703Q124 703 140 687Q156 671 156 645Q156 610 133.5 587.5Q111 565 77 565Q52 565 35.5 581.5Q19 598 19 623ZM142 -10Q103 -10 81 13Q59 36 59 76Q59 91 60.5 108Q62 125 67 153L102 365Q106 389 107.5 399Q109 409 109 416Q109 427 105 432Q101 437 92 437Q78 437 60 413.5Q42 390 27 350L2 360Q31 430 67 461.5Q103 493 154 493Q189 493 209 475Q229 457 229 425Q229 414 227.5 399.5Q226 385 223 367L183 113Q180 98 179 88.5Q178 79 178 74Q178 59 183.5 52Q189 45 200 45Q216 45 231 66Q246 87 260 130L287 122Q262 52 228.5 21Q195 -10 142 -10Z" glyph-name="idieresis" horiz-adv-x="303" unicode="&#239;" /><glyph d="M93 623Q93 659 115.5 681.5Q138 704 174 704Q201 704 217 688Q233 672 233 645Q233 610 210 587Q187 564 152 564Q125 564 109 580Q93 596 93 623ZM142 -10Q103 -10 81 13Q59 36 59 76Q59 91 60.5 108Q62 125 67 153L102 365Q106 389 107.5 399Q109 409 109 416Q109 427 105 432Q101 437 92 437Q78 437 60 413.5Q42 390 27 350L2 360Q31 430 67 461.5Q103 493 154 493Q189 493 209 475Q229 457 229 425Q229 414 227.5 399.5Q226 385 223 367L183 113Q180 98 179 88.5Q178 79 178 74Q178 59 183.5 52Q189 45 200 45Q216 45 231 66Q246 87 260 130L287 122Q262 52 228.5 21Q195 -10 142 -10Z" glyph-name="idotaccent" horiz-adv-x="303" /><glyph d="M195 557H155L22 698V706H162ZM142 -10Q103 -10 81 13Q59 36 59 76Q59 91 60.5 108Q62 125 67 153L102 365Q106 389 107.5 399Q109 409 109 416Q109 427 105 432Q101 437 92 437Q78 437 60 413.5Q42 390 27 350L2 360Q31 430 67 461.5Q103 493 154 493Q189 493 209 475Q229 457 229 425Q229 414 227.5 399.5Q226 385 223 367L183 113Q180 98 179 88.5Q178 79 178 74Q178 59 183.5 52Q189 45 200 45Q216 45 231 66Q246 87 260 130L287 122Q262 52 228.5 21Q195 -10 142 -10Z" glyph-name="igrave" horiz-adv-x="303" unicode="&#236;" /><glyph d="M122 622Q122 660 144.5 684.5Q167 709 203 709Q232 709 248.5 693.5Q265 678 265 651Q265 613 242.5 588.5Q220 564 184 564Q155 564 138.5 579.5Q122 595 122 622ZM142 -10Q103 -10 81 13Q59 36 59 76Q59 91 60.5 108Q62 125 67 153L102 365Q106 389 107.5 399Q109 409 109 416Q109 427 105 432Q101 437 92 437Q78 437 60 413.5Q42 390 27 350L2 360Q31 430 67 461.5Q103 493 154 493Q189 493 209 475Q229 457 229 425Q229 414 227.5 399.5Q226 385 223 367L183 113Q180 98 179 88.5Q178 79 178 74Q178 59 183.5 52Q189 45 200 45Q216 45 231 66Q246 87 260 130L287 122Q262 52 228.5 21Q195 -10 142 -10ZM424 622Q424 660 447 684.5Q470 709 505 709Q534 709 551 693.5Q568 678 568 651Q568 613 545 588.5Q522 564 486 564Q457 564 440.5 579.5Q424 595 424 622ZM221 -211 224 -184Q290 -135 319 -81.5Q348 -28 362 71L404 365Q407 385 408 396.5Q409 408 409 416Q409 428 405.5 432.5Q402 437 393 437Q379 437 361.5 413Q344 389 328 350L303 360Q332 430 368 461.5Q404 493 455 493Q491 493 510.5 475Q530 457 530 425Q530 413 528.5 397.5Q527 382 525 367L479 42Q463 -69 404 -127.5Q345 -186 221 -211Z" glyph-name="ij" horiz-adv-x="581" unicode="&#307;" /><glyph d="M142 -10Q103 -10 81 13Q59 36 59 76Q59 91 60.5 108Q62 125 67 153L102 365Q106 389 107.5 399Q109 409 109 416Q109 427 105 432Q101 437 92 437Q78 437 60 413.5Q42 390 27 350L2 360Q31 430 67 461.5Q103 493 154 493Q189 493 209 475Q229 457 229 425Q229 414 227.5 399.5Q226 385 223 367L183 113Q180 98 179 88.5Q178 79 178 74Q178 59 183.5 52Q189 45 200 45Q216 45 231 66Q246 87 260 130L287 122Q262 52 228.5 21Q195 -10 142 -10ZM221 -211 224 -184Q290 -135 319 -81.5Q348 -28 362 71L404 365Q407 385 408 396.5Q409 408 409 416Q409 428 405.5 432.5Q402 437 393 437Q379 437 361.5 413Q344 389 328 350L303 360Q332 430 368 461.5Q404 493 455 493Q491 493 510.5 475Q530 457 530 425Q530 413 528.5 397.5Q527 382 525 367L479 42Q463 -69 404 -127.5Q345 -186 221 -211ZM362 698 191 557H151L214 706H364ZM615 698 444 557H404L467 706H617Z" glyph-name="ijacute" horiz-adv-x="581" /><glyph d="M273 596H64L72 647H281ZM142 -10Q103 -10 81 13Q59 36 59 76Q59 91 60.5 108Q62 125 67 153L102 365Q106 389 107.5 399Q109 409 109 416Q109 427 105 432Q101 437 92 437Q78 437 60 413.5Q42 390 27 350L2 360Q31 430 67 461.5Q103 493 154 493Q189 493 209 475Q229 457 229 425Q229 414 227.5 399.5Q226 385 223 367L183 113Q180 98 179 88.5Q178 79 178 74Q178 59 183.5 52Q189 45 200 45Q216 45 231 66Q246 87 260 130L287 122Q262 52 228.5 21Q195 -10 142 -10Z" glyph-name="imacron" horiz-adv-x="303" unicode="&#299;" /><glyph d="M321 264Q282 202 241.5 173Q201 144 152 144Q99 144 71.5 176Q44 208 44 271Q44 377 91 446Q138 515 211 515Q260 515 292.5 478.5Q325 442 330 381Q362 443 408 478Q454 513 504 513Q562 513 593 476Q624 439 624 371Q624 268 573 202.5Q522 137 439 137Q392 137 361 170.5Q330 204 321 264ZM84 311Q84 278 105.5 259.5Q127 241 165 241Q205 241 242.5 268.5Q280 296 304 343Q290 373 258 392.5Q226 412 194 412Q143 412 113.5 385Q84 358 84 311ZM350 301Q365 271 398.5 250Q432 229 466 229Q516 229 548.5 259Q581 289 581 335Q581 369 557 388Q533 407 491 407Q453 407 414.5 378Q376 349 350 301Z" glyph-name="infinity" horiz-adv-x="658" unicode="&#8734;" /><glyph d="M363 575 228 -23Q210 -102 148.5 -155.5Q87 -209 14 -209Q-11 -209 -35 -207Q-59 -205 -73 -201L-52 -117H-43Q-32 -141 -16 -154Q0 -167 20 -167Q47 -167 62.5 -151.5Q78 -136 86 -101L234 533Q251 609 315.5 659Q380 709 456 709Q479 709 498.5 707Q518 705 533 701L512 617H503Q494 640 476.5 653.5Q459 667 438 667Q412 667 393 644Q374 621 363 575Z" glyph-name="integral" horiz-adv-x="489" unicode="&#8747;" /><glyph d="M265 651Q265 613 242.5 588.5Q220 564 184 564Q155 564 138.5 579.5Q122 595 122 622Q122 660 144.5 684.5Q167 709 203 709Q232 709 248.5 693.5Q265 678 265 651ZM114 -218Q77 -218 56 -199.5Q35 -181 35 -148Q35 -107 63.5 -73Q92 -39 151 -10H142Q103 -10 81 13Q59 36 59 76Q59 91 60.5 108Q62 125 67 153L102 365Q106 389 107.5 399Q109 409 109 416Q109 427 105 432Q101 437 92 437Q78 437 60 413.5Q42 390 27 350L2 360Q31 430 67 461.5Q103 493 154 493Q189 493 209 475Q229 457 229 425Q229 414 227.5 399.5Q226 385 223 367L183 113Q180 98 179 88.5Q178 79 178 74Q178 59 183.5 52Q189 45 200 45Q216 45 231 66Q246 87 260 130L287 122Q270 75 250 46Q230 17 203 0Q164 -25 142 -58Q120 -91 120 -126Q120 -146 131 -157Q142 -168 161 -168Q178 -168 191.5 -163.5Q205 -159 224 -146L221 -169Q199 -194 172 -206Q145 -218 114 -218Z" glyph-name="iogonek" horiz-adv-x="303" unicode="&#303;" /><glyph d="M75 575H53Q62 635 83 664.5Q104 694 138 694Q150 694 161 689.5Q172 685 189 671Q203 661 210.5 657.5Q218 654 225 654Q241 654 251 666Q261 678 266 704H290Q282 639 260 607Q238 575 203 575Q191 575 180 579.5Q169 584 153 597Q139 608 131.5 611.5Q124 615 116 615Q102 615 92 605Q82 595 75 575ZM142 -10Q103 -10 81 13Q59 36 59 76Q59 91 60.5 108Q62 125 67 153L102 365Q106 389 107.5 399Q109 409 109 416Q109 427 105 432Q101 437 92 437Q78 437 60 413.5Q42 390 27 350L2 360Q31 430 67 461.5Q103 493 154 493Q189 493 209 475Q229 457 229 425Q229 414 227.5 399.5Q226 385 223 367L183 113Q180 98 179 88.5Q178 79 178 74Q178 59 183.5 52Q189 45 200 45Q216 45 231 66Q246 87 260 130L287 122Q262 52 228.5 21Q195 -10 142 -10Z" glyph-name="itilde" horiz-adv-x="303" unicode="&#297;" /><glyph d="M126 622Q126 660 149 684.5Q172 709 207 709Q236 709 253 693.5Q270 678 270 651Q270 613 247 588.5Q224 564 188 564Q159 564 142.5 579.5Q126 595 126 622ZM-77 -211 -74 -184Q-8 -135 21 -81.5Q50 -28 64 71L106 365Q109 385 110 396.5Q111 408 111 416Q111 428 107.5 432.5Q104 437 95 437Q81 437 63.5 413Q46 389 30 350L5 360Q34 430 70 461.5Q106 493 157 493Q193 493 212.5 475Q232 457 232 425Q232 413 230.5 397.5Q229 382 227 367L181 42Q165 -69 106 -127.5Q47 -186 -77 -211Z" glyph-name="j" horiz-adv-x="283" unicode="j" /><glyph d="M70 545H43L131 704H230L265 545H238L169 633ZM-77 -211 -74 -184Q-8 -135 21 -81.5Q50 -28 64 71L106 365Q109 385 110 396.5Q111 408 111 416Q111 428 107.5 432.5Q104 437 95 437Q81 437 63.5 413Q46 389 30 350L5 360Q34 430 70 461.5Q106 493 157 493Q193 493 212.5 475Q232 457 232 425Q232 413 230.5 397.5Q229 382 227 367L181 42Q165 -69 106 -127.5Q47 -186 -77 -211Z" glyph-name="jcircumflex" horiz-adv-x="284" unicode="&#309;" /><glyph d="M378 -12Q319 -12 290 25Q261 62 247 152Q244 170 238 195Q232 220 227 236L229 245Q307 265 347 301Q387 337 387 387Q387 404 377.5 415.5Q368 427 353 427Q302 427 255 348.5Q208 270 166 115L147 0H24L114 571Q115 580 116 589Q117 598 117 604Q117 621 111 630.5Q105 640 88 651L62 666L65 687L185 706H264Q256 680 249 645.5Q242 611 237 576L192 292Q236 398 285.5 448Q335 498 396 498Q442 498 468 473Q494 448 494 403Q494 345 445.5 304Q397 263 313 250Q333 234 351.5 199Q370 164 384 116Q398 70 406.5 57.5Q415 45 428 45Q445 45 457.5 64Q470 83 483 129L511 121Q489 49 459 18.5Q429 -12 378 -12Z" glyph-name="k" horiz-adv-x="531" unicode="k" /><glyph d="M378 -12Q319 -12 290 25Q261 62 247 152Q244 170 238 195Q232 220 227 236L229 245Q307 265 347 301Q387 337 387 387Q387 404 377.5 415.5Q368 427 353 427Q302 427 255 348.5Q208 270 166 115L147 0H24L114 571Q115 580 116 589Q117 598 117 604Q117 621 111 630.5Q105 640 88 651L62 666L65 687L185 706H264Q256 680 249 645.5Q242 611 237 576L192 292Q236 398 285.5 448Q335 498 396 498Q442 498 468 473Q494 448 494 403Q494 345 445.5 304Q397 263 313 250Q333 234 351.5 199Q370 164 384 116Q398 70 406.5 57.5Q415 45 428 45Q445 45 457.5 64Q470 83 483 129L511 121Q489 49 459 18.5Q429 -12 378 -12ZM264 -117Q264 -164 222 -198.5Q180 -233 115 -239L123 -187Q159 -182 176.5 -175Q194 -168 206 -155Q181 -155 166.5 -143Q152 -131 152 -111Q152 -88 167.5 -74Q183 -60 208 -60Q234 -60 249 -75.5Q264 -91 264 -117Z" glyph-name="kcommaaccent" horiz-adv-x="531" unicode="&#311;" /><glyph d="M169 0H46L104 365Q105 369 105.5 374Q106 379 107 387Q110 401 110.5 406.5Q111 412 111 416Q111 427 107 432Q103 437 94 437Q80 437 62 413.5Q44 390 29 350L4 360Q33 430 69 461.5Q105 493 156 493Q189 493 211 475Q233 457 233 428Q233 415 231.5 400.5Q230 386 226 367L213 292Q257 398 306.5 448Q356 498 418 498Q464 498 490 473Q516 448 516 403Q516 345 467.5 304Q419 263 335 250Q355 234 373.5 199Q392 164 406 116Q420 70 428.5 57.5Q437 45 450 45Q467 45 479.5 64Q492 83 505 129L533 121Q511 49 481 18.5Q451 -12 400 -12Q341 -12 312 25Q283 62 269 152Q266 170 260 195Q254 220 249 236L251 245Q329 265 369 301Q409 337 409 387Q409 404 399.5 415.5Q390 427 375 427Q324 427 277 348.5Q230 270 188 115Z" glyph-name="kgreenlandic" horiz-adv-x="553" unicode="&#312;" /><glyph d="M237 576 164 113Q161 98 160 88.5Q159 79 159 74Q159 59 164.5 52Q170 45 181 45Q197 45 212 66Q227 87 241 130L268 122Q243 52 209.5 21Q176 -10 123 -10Q84 -10 62 13Q40 36 40 76Q40 91 41.5 108Q43 125 48 153L114 571Q115 580 116 589Q117 598 117 604Q117 621 111 630.5Q105 640 88 651L62 666L65 687L185 706H264Q256 680 249 645.5Q242 611 237 576Z" glyph-name="l" horiz-adv-x="284" unicode="l" /><glyph d="M237 576 164 113Q161 98 160 88.5Q159 79 159 74Q159 59 164.5 52Q170 45 181 45Q197 45 212 66Q227 87 241 130L268 122Q243 52 209.5 21Q176 -10 123 -10Q84 -10 62 13Q40 36 40 76Q40 91 41.5 108Q43 125 48 153L114 571Q115 580 116 589Q117 598 117 604Q117 621 111 630.5Q105 640 88 651L62 666L65 687L185 706H264Q256 680 249 645.5Q242 611 237 576ZM354 882 183 741H143L206 890H356Z" glyph-name="lacute" horiz-adv-x="284" unicode="&#314;" /><glyph d="M237 576 164 113Q161 98 160 88.5Q159 79 159 74Q159 59 164.5 52Q170 45 181 45Q197 45 212 66Q227 87 241 130L268 122Q243 52 209.5 21Q176 -10 123 -10Q84 -10 62 13Q40 36 40 76Q40 91 41.5 108Q43 125 48 153L114 571Q115 580 116 589Q117 598 117 604Q117 621 111 630.5Q105 640 88 651L62 666L65 687L185 706H264Q256 680 249 645.5Q242 611 237 576ZM283 518H263L312 706H414L413 702Z" glyph-name="lcaron" horiz-adv-x="284" unicode="&#318;" /><glyph d="M237 576 164 113Q161 98 160 88.5Q159 79 159 74Q159 59 164.5 52Q170 45 181 45Q197 45 212 66Q227 87 241 130L268 122Q243 52 209.5 21Q176 -10 123 -10Q84 -10 62 13Q40 36 40 76Q40 91 41.5 108Q43 125 48 153L114 571Q115 580 116 589Q117 598 117 604Q117 621 111 630.5Q105 640 88 651L62 666L65 687L185 706H264Q256 680 249 645.5Q242 611 237 576ZM145 -117Q145 -164 103 -198.5Q61 -233 -4 -239L4 -187Q40 -182 57.5 -175Q75 -168 87 -155Q62 -155 47.5 -143Q33 -131 33 -111Q33 -88 48.5 -74Q64 -60 89 -60Q115 -60 130 -75.5Q145 -91 145 -117Z" glyph-name="lcommaaccent" horiz-adv-x="284" unicode="&#316;" /><glyph d="M237 576 164 113Q161 98 160 88.5Q159 79 159 74Q159 59 164.5 52Q170 45 181 45Q197 45 212 66Q227 87 241 130L268 122Q243 52 209.5 21Q176 -10 123 -10Q84 -10 62 13Q40 36 40 76Q40 91 41.5 108Q43 125 48 153L114 571Q115 580 116 589Q117 598 117 604Q117 621 111 630.5Q105 640 88 651L62 666L65 687L185 706H264Q256 680 249 645.5Q242 611 237 576ZM571 576 498 113Q495 98 494 88.5Q493 79 493 74Q493 59 498.5 52Q504 45 515 45Q531 45 546 66Q561 87 575 130L602 122Q577 52 543.5 21Q510 -10 457 -10Q418 -10 396 13Q374 36 374 76Q374 91 375.5 108Q377 125 382 153L448 571Q449 580 450 589Q451 598 451 604Q451 621 445 630.5Q439 640 422 651L396 666L399 687L519 706H598Q590 680 583 645.5Q576 611 571 576ZM376 380Q376 347 355 325Q334 303 302 303Q276 303 261 317.5Q246 332 246 357Q246 390 267 412Q288 434 320 434Q346 434 361 419.5Q376 405 376 380Z" glyph-name="ldot" horiz-adv-x="618" unicode="&#320;" /><glyph d="M427 183 406 52 52 282 66 367 493 597 478 507 170 346Z" glyph-name="less" horiz-adv-x="500" unicode="&lt;" /><glyph d="M437 252 426 183H46L57 251L501 654L481 530L169 252ZM398 0H18L28 69H408Z" glyph-name="lessequal" horiz-adv-x="500" unicode="&#8804;" /><glyph d="M422 100H304L336 303H36L47 371H465Z" glyph-name="logicalnot" horiz-adv-x="500" unicode="&#172;" /><glyph d="M44 349 320 717 464 351 192 -17ZM152 399 250 148 356 301 264 558Z" glyph-name="lozenge" horiz-adv-x="489" unicode="&#9674;" /><glyph d="M123 -10Q84 -10 62 13Q40 36 40 76Q40 91 41.5 108Q43 125 48 153L72 302L19 267L27 312L79 348L114 571Q115 580 116 589Q117 598 117 604Q117 621 111 630.5Q105 640 88 651L62 666L65 687L185 706H264Q256 680 249 645.5Q242 611 237 576L216 442L282 487L274 438L208 395L164 113Q161 98 160 88.5Q159 79 159 74Q159 59 164.5 52Q170 45 181 45Q197 45 212 66Q227 87 241 130L268 122Q243 52 209.5 21Q176 -10 123 -10Z" glyph-name="lslash" horiz-adv-x="284" unicode="&#322;" /><glyph d="M693 -10Q654 -10 632.5 13Q611 36 611 76Q611 95 613 113.5Q615 132 619 153L650 308Q655 333 657.5 351.5Q660 370 660 382Q660 400 652 410Q644 420 630 420Q585 420 544 344.5Q503 269 464 115L445 0H322L371 308Q376 338 378 355.5Q380 373 380 382Q380 401 373 410.5Q366 420 352 420Q306 420 266.5 346.5Q227 273 186 115L167 0H45L104 365Q108 389 109.5 399Q111 409 111 416Q111 427 107 432Q103 437 94 437Q80 437 62 413.5Q44 390 29 350L4 360Q33 430 69 461.5Q105 493 156 493Q188 493 205.5 476Q223 459 223 428Q223 417 221.5 402Q220 387 216 367L204 293Q250 401 298 449.5Q346 498 405 498Q452 498 477.5 471Q503 444 503 393Q503 382 501 364Q499 346 495 322Q534 410 580.5 454Q627 498 680 498Q729 498 756.5 470.5Q784 443 784 393Q784 376 781 350Q778 324 773 302L735 113Q732 99 731 89.5Q730 80 730 74Q730 59 735.5 52Q741 45 752 45Q768 45 782.5 66Q797 87 811 130L838 122Q813 52 779.5 21Q746 -10 693 -10Z" glyph-name="m" horiz-adv-x="856" unicode="m" /><glyph d="M373 596H164L172 647H381Z" glyph-name="macron" horiz-adv-x="440" unicode="&#175;" /><glyph d="M401 729H178L187 787H410Z" glyph-name="macron.case" horiz-adv-x="440" /><glyph d="M442 305H62L73 373H453Z" glyph-name="minus" horiz-adv-x="500" unicode="&#8722;" /><glyph d="M158 -13H148Q122 -89 67 -136Q12 -183 -86 -212L-82 -183Q-24 -131 2 -78Q28 -25 51 88L108 365Q111 380 113 393Q115 406 115 416Q115 427 111 432Q107 437 98 437Q84 437 66 413.5Q48 390 33 350L8 360Q36 429 73.5 461Q111 493 164 493Q196 493 213.5 476Q231 459 231 428Q231 417 229.5 402Q228 387 224 367L187 177Q183 155 180.5 135.5Q178 116 178 108Q178 86 186.5 75Q195 64 212 64Q254 64 291 130Q328 196 366 336L390 478H511L453 113Q450 95 449 87Q448 79 448 74Q448 59 453.5 52Q459 45 470 45Q486 45 501 66Q516 87 530 130L557 122Q532 51 498 20.5Q464 -10 412 -10Q376 -10 357.5 10.5Q339 31 339 71Q339 78 340 89Q341 100 343 111L361 210Q313 92 265 39.5Q217 -13 158 -13Z" glyph-name="mu" horiz-adv-x="579" unicode="&#181;" /><glyph d="M413 207 343 144 245 270 112 146 63 205 199 329 100 457 173 521 270 394 405 518 451 460 316 335Z" glyph-name="multiply" horiz-adv-x="500" unicode="&#215;" /><glyph d="M169 0H46L104 365Q108 389 109.5 399Q111 409 111 416Q111 427 107 432Q103 437 94 437Q80 437 62 413.5Q44 390 29 350L4 360Q33 430 69 461.5Q105 493 156 493Q188 493 205.5 476Q223 459 223 428Q223 417 221.5 402Q220 387 216 367L204 294Q249 399 298 448.5Q347 498 404 498Q452 498 479 470.5Q506 443 506 393Q506 378 503 353.5Q500 329 495 302L457 113Q454 99 453 89.5Q452 80 452 74Q452 59 457.5 52Q463 45 474 45Q490 45 505 66Q520 87 534 130L561 122Q536 52 502 21Q468 -10 415 -10Q376 -10 354.5 13Q333 36 333 76Q333 95 335 113.5Q337 132 341 153L372 308Q377 332 379.5 352Q382 372 382 384Q382 401 374 410.5Q366 420 351 420Q307 420 267.5 345.5Q228 271 188 115Z" glyph-name="n" horiz-adv-x="578" unicode="n" /><glyph d="M169 0H46L104 365Q108 389 109.5 399Q111 409 111 416Q111 427 107 432Q103 437 94 437Q80 437 62 413.5Q44 390 29 350L4 360Q33 430 69 461.5Q105 493 156 493Q188 493 205.5 476Q223 459 223 428Q223 417 221.5 402Q220 387 216 367L204 294Q249 399 298 448.5Q347 498 404 498Q452 498 479 470.5Q506 443 506 393Q506 378 503 353.5Q500 329 495 302L457 113Q454 99 453 89.5Q452 80 452 74Q452 59 457.5 52Q463 45 474 45Q490 45 505 66Q520 87 534 130L561 122Q536 52 502 21Q468 -10 415 -10Q376 -10 354.5 13Q333 36 333 76Q333 95 335 113.5Q337 132 341 153L372 308Q377 332 379.5 352Q382 372 382 384Q382 401 374 410.5Q366 420 351 420Q307 420 267.5 345.5Q228 271 188 115ZM539 698 368 557H328L391 706H541Z" glyph-name="nacute" horiz-adv-x="578" unicode="&#324;" /><glyph d="M246 0H123L181 365Q185 389 186.5 399Q188 409 188 416Q188 427 184 432Q180 437 171 437Q157 437 139 413.5Q121 390 106 350L81 360Q110 430 146 461.5Q182 493 233 493Q265 493 282.5 476Q300 459 300 428Q300 417 298.5 402Q297 387 293 367L281 294Q326 399 375 448.5Q424 498 481 498Q529 498 556 470.5Q583 443 583 393Q583 378 580 353.5Q577 329 572 302L534 113Q531 99 530 89.5Q529 80 529 74Q529 59 534.5 52Q540 45 551 45Q567 45 582 66Q597 87 611 130L638 122Q613 52 579 21Q545 -10 492 -10Q453 -10 431.5 13Q410 36 410 76Q410 95 412 113.5Q414 132 418 153L449 308Q454 332 456.5 352Q459 372 459 384Q459 401 451 410.5Q443 420 428 420Q384 420 344.5 345.5Q305 271 265 115ZM148 587Q148 540 106 505.5Q64 471 -1 465L7 517Q43 522 60.5 529Q78 536 90 549Q65 549 50.5 561Q36 573 36 593Q36 616 51.5 630Q67 644 92 644Q118 644 133 628.5Q148 613 148 587Z" glyph-name="napostrophe" horiz-adv-x="655" unicode="&#329;" /><glyph d="M169 0H46L104 365Q108 389 109.5 399Q111 409 111 416Q111 427 107 432Q103 437 94 437Q80 437 62 413.5Q44 390 29 350L4 360Q33 430 69 461.5Q105 493 156 493Q188 493 205.5 476Q223 459 223 428Q223 417 221.5 402Q220 387 216 367L204 294Q249 399 298 448.5Q347 498 404 498Q452 498 479 470.5Q506 443 506 393Q506 378 503 353.5Q500 329 495 302L457 113Q454 99 453 89.5Q452 80 452 74Q452 59 457.5 52Q463 45 474 45Q490 45 505 66Q520 87 534 130L561 122Q536 52 502 21Q468 -10 415 -10Q376 -10 354.5 13Q333 36 333 76Q333 95 335 113.5Q337 132 341 153L372 308Q377 332 379.5 352Q382 372 382 384Q382 401 374 410.5Q366 420 351 420Q307 420 267.5 345.5Q228 271 188 115ZM465 706H492L406 547H306L270 706H297L367 618Z" glyph-name="ncaron" horiz-adv-x="578" unicode="&#328;" /><glyph d="M169 0H46L104 365Q108 389 109.5 399Q111 409 111 416Q111 427 107 432Q103 437 94 437Q80 437 62 413.5Q44 390 29 350L4 360Q33 430 69 461.5Q105 493 156 493Q188 493 205.5 476Q223 459 223 428Q223 417 221.5 402Q220 387 216 367L204 294Q249 399 298 448.5Q347 498 404 498Q452 498 479 470.5Q506 443 506 393Q506 378 503 353.5Q500 329 495 302L457 113Q454 99 453 89.5Q452 80 452 74Q452 59 457.5 52Q463 45 474 45Q490 45 505 66Q520 87 534 130L561 122Q536 52 502 21Q468 -10 415 -10Q376 -10 354.5 13Q333 36 333 76Q333 95 335 113.5Q337 132 341 153L372 308Q377 332 379.5 352Q382 372 382 384Q382 401 374 410.5Q366 420 351 420Q307 420 267.5 345.5Q228 271 188 115ZM302 -117Q302 -164 260 -198.5Q218 -233 153 -239L161 -187Q197 -182 214.5 -175Q232 -168 244 -155Q219 -155 204.5 -143Q190 -131 190 -111Q190 -88 205.5 -74Q221 -60 246 -60Q272 -60 287 -75.5Q302 -91 302 -117Z" glyph-name="ncommaaccent" horiz-adv-x="578" unicode="&#326;" /><glyph d="M200 234Q132 234 93.5 280Q55 326 55 408Q55 519 125 589.5Q195 660 299 660Q391 660 441 597.5Q491 535 491 423Q491 239 380.5 116.5Q270 -6 104 -6Q86 -6 69.5 -5Q53 -4 45 -3L49 25Q174 45 242 111.5Q310 178 341 311Q316 271 282 252.5Q248 234 200 234ZM346 347Q353 385 356 419.5Q359 454 359 486Q359 550 341.5 585.5Q324 621 292 621Q248 621 219.5 567.5Q191 514 191 432Q191 382 212.5 351Q234 320 269 320Q294 320 311 326Q328 332 346 347Z" glyph-name="nine" horiz-adv-x="515" unicode="9" /><glyph glyph-name="nonmarkingreturn" horiz-adv-x="218" unicode="" /><glyph d="M439 281 428 213H206L73 0H23L155 213H48L59 281H197L268 397H77L88 465H310L422 646H475L362 465H468L457 397H320L248 281Z" glyph-name="notequal" horiz-adv-x="500" unicode="&#8800;" /><glyph d="M169 0H46L104 365Q108 389 109.5 399Q111 409 111 416Q111 427 107 432Q103 437 94 437Q80 437 62 413.5Q44 390 29 350L4 360Q33 430 69 461.5Q105 493 156 493Q188 493 205.5 476Q223 459 223 428Q223 417 221.5 402Q220 387 216 367L204 294Q249 399 298 448.5Q347 498 404 498Q452 498 479 470.5Q506 443 506 393Q506 378 503 353.5Q500 329 495 302L457 113Q454 99 453 89.5Q452 80 452 74Q452 59 457.5 52Q463 45 474 45Q490 45 505 66Q520 87 534 130L561 122Q536 52 502 21Q468 -10 415 -10Q376 -10 354.5 13Q333 36 333 76Q333 95 335 113.5Q337 132 341 153L372 308Q377 332 379.5 352Q382 372 382 384Q382 401 374 410.5Q366 420 351 420Q307 420 267.5 345.5Q228 271 188 115ZM273 575H251Q260 635 281 664.5Q302 694 336 694Q348 694 359 689.5Q370 685 387 671Q401 661 408.5 657.5Q416 654 423 654Q439 654 449 666Q459 678 464 704H488Q480 639 458 607Q436 575 401 575Q389 575 378 579.5Q367 584 351 597Q337 608 329.5 611.5Q322 615 314 615Q300 615 290 605Q280 595 273 575Z" glyph-name="ntilde" horiz-adv-x="578" unicode="&#241;" /><glyph d="M248 432 201 234H306L354 432ZM144 0H29L75 188H15L26 234H86L134 432H74L85 478H145L186 646H300L259 478H365L406 646H520L479 478H540L529 432H468L421 234H481L470 188H409L364 0H249L295 188H189Z" glyph-name="numbersign" horiz-adv-x="546" unicode="#" /><glyph d="M478 279Q478 155 405 70.5Q332 -14 225 -14Q132 -14 79 44.5Q26 103 26 205Q26 329 99 413.5Q172 498 279 498Q372 498 425 439.5Q478 381 478 279ZM156 177Q156 102 174 63Q192 24 226 24Q278 24 313 104.5Q348 185 348 307Q348 382 330 421Q312 460 278 460Q226 460 191 379.5Q156 299 156 177Z" glyph-name="o" horiz-adv-x="519" unicode="o" /><glyph d="M478 279Q478 155 405 70.5Q332 -14 225 -14Q132 -14 79 44.5Q26 103 26 205Q26 329 99 413.5Q172 498 279 498Q372 498 425 439.5Q478 381 478 279ZM156 177Q156 102 174 63Q192 24 226 24Q278 24 313 104.5Q348 185 348 307Q348 382 330 421Q312 460 278 460Q226 460 191 379.5Q156 299 156 177ZM472 698 301 557H261L324 706H474Z" glyph-name="oacute" horiz-adv-x="519" unicode="&#243;" /><glyph d="M478 279Q478 155 405 70.5Q332 -14 225 -14Q132 -14 79 44.5Q26 103 26 205Q26 329 99 413.5Q172 498 279 498Q372 498 425 439.5Q478 381 478 279ZM156 177Q156 102 174 63Q192 24 226 24Q278 24 313 104.5Q348 185 348 307Q348 382 330 421Q312 460 278 460Q226 460 191 379.5Q156 299 156 177ZM395 696H416Q404 625 374 591Q344 557 293 557Q251 557 230.5 579.5Q210 602 210 649Q210 661 211 673Q212 685 214 696H236Q238 661 255 643.5Q272 626 304 626Q335 626 357.5 643Q380 660 395 696Z" glyph-name="obreve" horiz-adv-x="519" unicode="&#335;" /><glyph d="M478 279Q478 155 405 70.5Q332 -14 225 -14Q132 -14 79 44.5Q26 103 26 205Q26 329 99 413.5Q172 498 279 498Q372 498 425 439.5Q478 381 478 279ZM156 177Q156 102 174 63Q192 24 226 24Q278 24 313 104.5Q348 185 348 307Q348 382 330 421Q312 460 278 460Q226 460 191 379.5Q156 299 156 177ZM207 545H180L268 704H367L402 545H375L306 633Z" glyph-name="ocircumflex" horiz-adv-x="519" unicode="&#244;" /><glyph d="M478 279Q478 155 405 70.5Q332 -14 225 -14Q132 -14 79 44.5Q26 103 26 205Q26 329 99 413.5Q172 498 279 498Q372 498 425 439.5Q478 381 478 279ZM156 177Q156 102 174 63Q192 24 226 24Q278 24 313 104.5Q348 185 348 307Q348 382 330 421Q312 460 278 460Q226 460 191 379.5Q156 299 156 177ZM321 623Q321 658 343 680.5Q365 703 400 703Q426 703 441.5 687Q457 671 457 645Q457 610 434.5 587.5Q412 565 378 565Q353 565 337 581Q321 597 321 623ZM147 623Q147 658 169 680.5Q191 703 226 703Q252 703 268 687Q284 671 284 645Q284 610 261.5 587.5Q239 565 205 565Q180 565 163.5 581.5Q147 598 147 623Z" glyph-name="odieresis" horiz-adv-x="519" unicode="&#246;" /><glyph d="M540 -14Q490 -14 450 4.5Q410 23 388 57Q353 23 311 4.5Q269 -14 225 -14Q132 -14 79 44.5Q26 103 26 205Q26 329 99 413.5Q172 498 279 498Q329 498 369 479Q409 460 434 423Q470 459 516.5 478.5Q563 498 614 498Q673 498 707 469.5Q741 441 741 392Q741 336 697.5 302Q654 268 564 255L475 242Q474 233 474 226Q474 219 474 207Q474 136 502.5 98.5Q531 61 586 61Q622 61 653 76Q684 91 712 122L707 88Q678 40 633.5 13Q589 -14 540 -14ZM156 177Q156 102 174 63Q192 24 226 24Q278 24 313 104.5Q348 185 348 307Q348 382 330 421Q312 460 278 460Q226 460 191 379.5Q156 299 156 177ZM634 403Q634 431 622.5 445.5Q611 460 589 460Q550 460 519.5 408.5Q489 357 479 277L525 287Q575 298 604.5 329.5Q634 361 634 403Z" glyph-name="oe" horiz-adv-x="771" unicode="&#339;" /><glyph d="M264 -146 261 -169Q239 -194 212 -206Q185 -218 154 -218Q117 -218 96 -199.5Q75 -181 75 -148Q75 -99 115.5 -58Q156 -17 222 3H242Q203 -25 181.5 -59Q160 -93 160 -126Q160 -146 171 -157Q182 -168 201 -168Q218 -168 231.5 -163.5Q245 -159 264 -146Z" glyph-name="ogonek" horiz-adv-x="440" unicode="&#731;" /><glyph d="M211 -143 206 -171Q181 -195 155 -206Q129 -217 96 -217Q58 -217 37 -197Q16 -177 16 -143Q16 -93 66 -50Q116 -7 197 12L203 3Q157 -27 134 -58Q111 -89 111 -122Q111 -141 122 -151.5Q133 -162 152 -162Q167 -162 181 -157.5Q195 -153 211 -143Z" glyph-name="ogonek.case" horiz-adv-x="440" /><glyph d="M478 279Q478 155 405 70.5Q332 -14 225 -14Q132 -14 79 44.5Q26 103 26 205Q26 329 99 413.5Q172 498 279 498Q372 498 425 439.5Q478 381 478 279ZM156 177Q156 102 174 63Q192 24 226 24Q278 24 313 104.5Q348 185 348 307Q348 382 330 421Q312 460 278 460Q226 460 191 379.5Q156 299 156 177ZM326 557H286L153 698V706H293Z" glyph-name="ograve" horiz-adv-x="519" unicode="&#242;" /><glyph d="M478 279Q478 155 405 70.5Q332 -14 225 -14Q132 -14 79 44.5Q26 103 26 205Q26 329 99 413.5Q172 498 279 498Q372 498 425 439.5Q478 381 478 279ZM156 177Q156 102 174 63Q192 24 226 24Q278 24 313 104.5Q348 185 348 307Q348 382 330 421Q312 460 278 460Q226 460 191 379.5Q156 299 156 177ZM362 557H325L448 704H550L549 700ZM283 557H247L306 704H397L396 700Z" glyph-name="ohungarumlaut" horiz-adv-x="519" unicode="&#337;" /><glyph d="M478 279Q478 155 405 70.5Q332 -14 225 -14Q132 -14 79 44.5Q26 103 26 205Q26 329 99 413.5Q172 498 279 498Q372 498 425 439.5Q478 381 478 279ZM156 177Q156 102 174 63Q192 24 226 24Q278 24 313 104.5Q348 185 348 307Q348 382 330 421Q312 460 278 460Q226 460 191 379.5Q156 299 156 177ZM404 596H195L203 647H412Z" glyph-name="omacron" horiz-adv-x="519" unicode="&#333;" /><glyph d="M347 0H-9L-5 24L66 47Q88 54 98 67.5Q108 81 112 109L171 481Q144 460 111.5 445.5Q79 431 44 425L48 452Q98 491 143.5 540.5Q189 590 226 647H329L244 119Q243 112 242 103Q241 94 241 89Q241 73 247.5 63.5Q254 54 269 49L350 24Z" glyph-name="one" horiz-adv-x="392" unicode="1" /><glyph d="M634 3H404L412 54L475 99Q529 137 555.5 177.5Q582 218 582 261Q582 287 566 304Q550 321 525 321Q506 321 490 315.5Q474 310 450 296L452 313Q473 337 502 350.5Q531 364 560 364Q614 364 642 338.5Q670 313 670 266Q670 210 632.5 170Q595 130 505 89L474 75H645ZM171 0H108L109 4L551 646H614V642ZM237 290H47L50 305L84 315Q96 319 101.5 326Q107 333 109 348L142 558Q127 547 109.5 539Q92 531 71 527L74 543Q100 562 125.5 589Q151 616 175 648H237L189 348Q188 345 188 342.5Q188 340 188 336Q188 327 192 322.5Q196 318 205 316L240 305Z" glyph-name="onehalf" horiz-adv-x="709" unicode="&#189;" /><glyph d="M171 0H108L109 4L551 646H614V642ZM584 0H419L421 16L447 25Q459 30 464.5 37Q470 44 473 59L476 80H349L357 127L523 351H594L560 133H595L586 80H551L548 59Q547 56 547 53.5Q547 51 547 47Q547 38 550.5 33Q554 28 563 25L586 16ZM510 294 401 133H485ZM237 290H47L50 305L84 315Q96 319 101.5 326Q107 333 109 348L142 558Q127 547 109.5 539Q92 531 71 527L74 543Q100 562 125.5 589Q151 616 175 648H237L189 348Q188 345 188 342.5Q188 340 188 336Q188 327 192 322.5Q196 318 205 316L240 305Z" glyph-name="onequarter" horiz-adv-x="649" unicode="&#188;" /><glyph d="M237 290H47L50 305L84 315Q96 319 101.5 326Q107 333 109 348L142 558Q127 547 109.5 539Q92 531 71 527L74 543Q100 562 125.5 589Q151 616 175 648H237L189 348Q188 345 188 342.5Q188 340 188 336Q188 327 192 322.5Q196 318 205 316L240 305Z" glyph-name="onesuperior" horiz-adv-x="281" unicode="&#185;" /><glyph d="M149 449Q149 406 158.5 384Q168 362 186 362Q202 362 216 374Q230 386 243 413Q243 417 243.5 422Q244 427 245 434L273 600Q263 608 253 612Q243 616 232 616Q196 616 172.5 569Q149 522 149 449ZM301 304Q276 304 261 320.5Q246 337 246 365V377Q224 343 198 323Q172 303 148 303Q103 303 78 338Q53 373 53 435Q53 525 107 589.5Q161 654 235 654Q259 654 282.5 651Q306 648 338 641H382Q375 620 368.5 593Q362 566 358 543L330 391Q328 382 327 373Q326 364 326 354Q326 345 329 341Q332 337 339 337Q349 337 360 354Q371 371 380 400L404 394Q386 345 362.5 324.5Q339 304 301 304Z" glyph-name="ordfeminine" horiz-adv-x="400" unicode="&#170;" /><glyph d="M381 509Q381 421 326 361.5Q271 302 189 302Q127 302 90.5 341Q54 380 54 446Q54 537 108 596Q162 655 245 655Q308 655 344.5 616Q381 577 381 509ZM149 425Q149 379 161.5 356.5Q174 334 199 334Q236 334 260.5 391Q285 448 285 533Q285 578 272.5 600.5Q260 623 235 623Q198 623 173.5 566Q149 509 149 425Z" glyph-name="ordmasculine" horiz-adv-x="375" unicode="&#186;" /><glyph d="M347 343 161 109Q168 67 184.5 45.5Q201 24 226 24Q278 24 313 104.5Q348 185 348 307Q348 323 348 330Q348 337 347 343ZM156 177V162L339 394Q331 426 315.5 443Q300 460 278 460Q226 460 191 379.5Q156 299 156 177ZM478 279Q478 155 405 70.5Q332 -14 225 -14Q186 -14 153 -3.5Q120 7 96 28L26 -60H-15L-14 -53L71 54Q49 82 37.5 120.5Q26 159 26 205Q26 329 99 413.5Q172 498 279 498Q313 498 342.5 489.5Q372 481 396 465L457 542H499L498 533L424 440Q451 412 464.5 371Q478 330 478 279Z" glyph-name="oslash" horiz-adv-x="519" unicode="&#248;" /><glyph d="M471 698 300 557H260L323 706H473ZM347 343 161 109Q168 67 184.5 45.5Q201 24 226 24Q278 24 313 104.5Q348 185 348 307Q348 323 348 330Q348 337 347 343ZM156 177V162L339 394Q331 426 315.5 443Q300 460 278 460Q226 460 191 379.5Q156 299 156 177ZM478 279Q478 155 405 70.5Q332 -14 225 -14Q186 -14 153 -3.5Q120 7 96 28L26 -60H-15L-14 -53L71 54Q49 82 37.5 120.5Q26 159 26 205Q26 329 99 413.5Q172 498 279 498Q313 498 342.5 489.5Q372 481 396 465L457 542H499L498 533L424 440Q451 412 464.5 371Q478 330 478 279Z" glyph-name="oslashacute" horiz-adv-x="519" unicode="&#511;" /><glyph d="M478 279Q478 155 405 70.5Q332 -14 225 -14Q132 -14 79 44.5Q26 103 26 205Q26 329 99 413.5Q172 498 279 498Q372 498 425 439.5Q478 381 478 279ZM156 177Q156 102 174 63Q192 24 226 24Q278 24 313 104.5Q348 185 348 307Q348 382 330 421Q312 460 278 460Q226 460 191 379.5Q156 299 156 177ZM206 575H184Q193 635 214 664.5Q235 694 269 694Q281 694 292 689.5Q303 685 320 671Q334 661 341.5 657.5Q349 654 356 654Q372 654 382 666Q392 678 397 704H421Q413 639 391 607Q369 575 334 575Q322 575 311 579.5Q300 584 284 597Q270 608 262.5 611.5Q255 615 247 615Q233 615 223 605Q213 595 206 575Z" glyph-name="otilde" horiz-adv-x="519" unicode="&#245;" /><glyph d="M247 24Q302 24 336.5 96.5Q371 169 371 287Q371 350 357.5 385.5Q344 421 320 421Q294 421 262 371.5Q230 322 205 240L177 67Q188 46 206 35Q224 24 247 24ZM222 -204H-49L-45 -182L-8 -167Q8 -160 15.5 -149.5Q23 -139 26 -119L104 365Q108 389 109.5 399Q111 409 111 416Q111 427 107 432Q103 437 94 437Q80 437 62 413.5Q44 390 29 350L4 360Q33 430 69 461.5Q105 493 156 493Q188 493 205.5 476Q223 459 223 428Q223 418 219.5 391Q216 364 212 341Q246 419 285.5 458.5Q325 498 371 498Q436 498 471.5 445Q507 392 507 296Q507 160 437.5 73.5Q368 -13 258 -13Q232 -13 210 -9.5Q188 -6 167 1L152 -95Q150 -105 149 -113Q148 -121 148 -131Q148 -144 153 -150.5Q158 -157 170 -162L225 -180Z" glyph-name="p" horiz-adv-x="551" unicode="p" /><glyph d="M400 -204H113L117 -181L164 -161Q187 -151 195.5 -140Q204 -129 208 -103L239 99H189Q114 99 71 144.5Q28 190 28 267Q28 387 101.5 468.5Q175 550 284 550H595L585 490H542L464 0H417L495 490H432L341 -80Q339 -97 337.5 -108.5Q336 -120 336 -124Q336 -138 341.5 -146Q347 -154 362 -161L403 -180Z" glyph-name="paragraph" horiz-adv-x="594" unicode="&#182;" /><glyph d="M150 121Q150 24 168.5 -62Q187 -148 221 -202H184Q106 -137 65.5 -44Q25 49 25 162Q25 308 106.5 452Q188 596 332 698H371Q267 599 208.5 445Q150 291 150 121Z" glyph-name="parenleft" horiz-adv-x="308" unicode="(" /><glyph d="M145 375Q145 472 126.5 558Q108 644 74 698H111Q189 633 229.5 540Q270 447 270 334Q270 188 188.5 44Q107 -100 -37 -202H-76Q28 -103 86.5 51Q145 205 145 375Z" glyph-name="parenright" horiz-adv-x="308" unicode=")" /><glyph d="M468 347Q468 186 390.5 86Q313 -14 194 -14Q112 -14 60 40.5Q8 95 8 179Q8 290 63 357Q118 424 209 424Q254 424 291 397.5Q328 371 340 331Q341 343 341.5 355.5Q342 368 342 375Q342 487 295 558Q248 629 154 659L158 682Q298 671 383 579Q468 487 468 347ZM131 139Q131 85 146 55Q161 25 189 25Q241 25 282 101Q323 177 335 296Q317 315 299.5 322.5Q282 330 256 330Q200 330 165.5 277.5Q131 225 131 139Z" glyph-name="partialdiff" horiz-adv-x="489" unicode="&#8706;" /><glyph d="M535 360Q587 360 616.5 325Q646 290 646 228Q646 132 597.5 63.5Q549 -5 482 -5Q430 -5 400.5 30Q371 65 371 127Q371 223 419.5 291.5Q468 360 535 360ZM536 334Q507 334 480.5 258.5Q454 183 454 94Q454 58 461 39.5Q468 21 481 21Q510 21 536.5 96.5Q563 172 563 261Q563 297 556 315.5Q549 334 536 334ZM217 650Q269 650 298.5 615Q328 580 328 518Q328 422 279.5 353.5Q231 285 164 285Q112 285 82.5 320Q53 355 53 417Q53 513 101.5 581.5Q150 650 217 650ZM218 624Q189 624 162.5 548.5Q136 473 136 384Q136 348 143 329.5Q150 311 163 311Q192 311 218.5 386.5Q245 462 245 551Q245 587 238 605.5Q231 624 218 624ZM161 0H98L99 4L541 646H604V642Z" glyph-name="percent" horiz-adv-x="698" unicode="%" /><glyph d="M176 86Q176 47 150 20.5Q124 -6 86 -6Q56 -6 38 11Q20 28 20 57Q20 96 45.5 122.5Q71 149 109 149Q140 149 158 132Q176 115 176 86Z" glyph-name="period" horiz-adv-x="266" unicode="." /><glyph d="M181 327Q181 294 160 272Q139 250 107 250Q81 250 66 264.5Q51 279 51 304Q51 337 72 359Q93 381 125 381Q151 381 166 366.5Q181 352 181 327Z" glyph-name="periodcentered" horiz-adv-x="224" unicode="&#183;" /><glyph d="M191 365Q191 329 168.5 305.5Q146 282 111 282Q84 282 67.5 297.5Q51 313 51 340Q51 375 74 399Q97 423 131 423Q159 423 175 407.5Q191 392 191 365Z" glyph-name="periodcentered.case" horiz-adv-x="222" /><glyph d="M217 650Q269 650 298.5 615Q328 580 328 518Q328 422 279.5 353.5Q231 285 164 285Q112 285 82.5 320Q53 355 53 417Q53 513 101.5 581.5Q150 650 217 650ZM218 624Q189 624 162.5 548.5Q136 473 136 384Q136 348 143 329.5Q150 311 163 311Q192 311 218.5 386.5Q245 462 245 551Q245 587 238 605.5Q231 624 218 624ZM834 360Q886 360 915.5 325Q945 290 945 228Q945 132 896.5 63.5Q848 -5 781 -5Q729 -5 699.5 30Q670 65 670 127Q670 223 718.5 291.5Q767 360 834 360ZM835 334Q806 334 779.5 258.5Q753 183 753 94Q753 58 760 39.5Q767 21 780 21Q809 21 835.5 96.5Q862 172 862 261Q862 297 855 315.5Q848 334 835 334ZM535 360Q587 360 616.5 325Q646 290 646 228Q646 132 597.5 63.5Q549 -5 482 -5Q430 -5 400.5 30Q371 65 371 127Q371 223 419.5 291.5Q468 360 535 360ZM536 334Q507 334 480.5 258.5Q454 183 454 94Q454 58 461 39.5Q468 21 481 21Q510 21 536.5 96.5Q563 172 563 261Q563 297 556 315.5Q549 334 536 334ZM161 0H98L99 4L541 646H604V642Z" glyph-name="perthousand" horiz-adv-x="997" unicode="&#8240;" /><glyph d="M274 379 210 110Q196 52 160.5 20Q125 -12 75 -12Q39 -12 18.5 3.5Q-2 19 -2 46Q-2 70 14.5 87Q31 104 54 104Q76 104 89 88.5Q102 73 102 46Q102 37 102 34Q102 31 101 29Q124 36 139.5 58.5Q155 81 165 120L232 379H199Q131 379 106.5 367.5Q82 356 60 316H40Q56 391 103 434.5Q150 478 216 478H626L598 379H496Q473 297 455 212.5Q437 128 437 100Q437 74 450.5 61.5Q464 49 493 49Q514 49 536 58.5Q558 68 575 84L586 72Q557 30 518 8Q479 -14 434 -14Q387 -14 362 8Q337 30 337 73Q337 123 368.5 200.5Q400 278 461 379Z" glyph-name="pi" horiz-adv-x="643" unicode="&#960;" /><glyph d="M275 117H169L199 305H62L73 373H209L238 551H344L316 373H453L442 305H305Z" glyph-name="plus" horiz-adv-x="500" unicode="+" /><glyph d="M290 212H184L214 400H77L88 468H224L253 646H359L331 468H468L457 400H320ZM394 -1H14L25 67H405Z" glyph-name="plusminus" horiz-adv-x="500" unicode="&#177;" /><glyph d="M271 0H-13L-10 25L34 42Q56 51 64.5 62.5Q73 74 78 102L143 517Q146 536 148 550Q150 564 150 568Q150 582 144 589.5Q138 597 122 603L78 622L82 646H724L720 621L677 604Q655 595 646.5 583.5Q638 572 633 544L567 130Q564 115 562.5 100.5Q561 86 561 80Q561 65 567 57Q573 49 588 43L636 24L632 0H347L351 25L390 42Q411 51 419.5 62.5Q428 74 432 101L512 606H288L212 124Q210 107 208.5 95.5Q207 84 207 80Q207 66 212.5 58Q218 50 233 43L274 24Z" glyph-name="product" horiz-adv-x="703" unicode="&#8719;" /><glyph d="M728 387Q728 204 613.5 85Q499 -34 325 -34Q196 -34 115.5 47Q35 128 35 257Q35 440 149.5 559Q264 678 438 678Q567 678 647.5 597Q728 516 728 387ZM120 263Q120 159 178 98.5Q236 38 337 38Q473 38 558 132.5Q643 227 643 381Q643 485 585 545.5Q527 606 426 606Q290 606 205 511.5Q120 417 120 263ZM396 157H220L223 171L248 180Q260 184 265 191Q270 198 272 213L308 438Q309 440 309 442.5Q309 445 309 449Q309 457 306 461.5Q303 466 295 470L271 479L274 493H418Q476 493 508.5 467.5Q541 442 541 398Q541 348 501 317Q461 286 393 286H379L382 300Q417 306 438.5 334Q460 362 460 400Q460 432 443.5 450.5Q427 469 398 471H388L347 215Q346 212 346 209.5Q346 207 346 203Q346 195 349.5 191Q353 187 362 184L398 172Z" glyph-name="published" horiz-adv-x="753" /><glyph d="M266 -130 306 101Q276 46 240 17Q204 -12 166 -12Q102 -12 65.5 41Q29 94 29 187Q29 323 100.5 409.5Q172 496 288 496Q323 496 361 486.5Q399 477 436 459L461 502H490L394 -105Q392 -120 390.5 -129Q389 -138 389 -141Q389 -152 393.5 -158Q398 -164 411 -169L450 -184L447 -204H191L194 -184L233 -169Q250 -162 256.5 -154Q263 -146 266 -130ZM165 199Q165 137 179 103Q193 69 219 69Q245 69 273.5 104.5Q302 140 321 197L358 422Q344 438 324.5 448Q305 458 287 458Q232 458 198.5 387.5Q165 317 165 199Z" glyph-name="q" horiz-adv-x="523" unicode="q" /><glyph d="M182 195H143L170 364Q244 392 278.5 433Q313 474 313 535Q313 573 294 594Q275 615 241 615Q207 615 173.5 592.5Q140 570 103 522H84L101 635Q136 647 169.5 652.5Q203 658 241 658Q324 658 374.5 613.5Q425 569 425 495Q425 409 364.5 348.5Q304 288 193 262ZM152 143Q181 143 198.5 126Q216 109 216 81Q216 43 191.5 17.5Q167 -8 130 -8Q101 -8 83.5 9Q66 26 66 54Q66 92 90.5 117.5Q115 143 152 143Z" glyph-name="question" horiz-adv-x="444" unicode="?" /><glyph d="M246 285H285L258 116Q184 88 149.5 47Q115 6 115 -55Q115 -93 134 -114Q153 -135 187 -135Q221 -135 254.5 -112.5Q288 -90 325 -42H344L327 -155Q292 -167 258.5 -172.5Q225 -178 187 -178Q104 -178 53.5 -133.5Q3 -89 3 -15Q3 71 63.5 131.5Q124 192 235 218ZM276 337Q247 337 229.5 354Q212 371 212 399Q212 437 236.5 462.5Q261 488 298 488Q327 488 344.5 471Q362 454 362 426Q362 388 337.5 362.5Q313 337 276 337Z" glyph-name="questiondown" horiz-adv-x="444" unicode="&#191;" /><glyph d="M299 413H243L248 621L252 646H366L361 621ZM154 413H98L103 621L107 646H221L216 621Z" glyph-name="quotedbl" horiz-adv-x="365" unicode="&quot;" /><glyph d="M329 63Q329 -10 279.5 -64.5Q230 -119 155 -129L168 -57Q206 -50 228 -36.5Q250 -23 265 3Q233 3 214 19Q195 35 195 62Q195 96 213.5 115Q232 134 266 134Q294 134 311.5 114Q329 94 329 63ZM149 63Q149 -10 99.5 -64.5Q50 -119 -25 -129L-12 -57Q26 -50 48 -36.5Q70 -23 85 3Q53 3 34 19Q15 35 15 62Q15 96 33.5 115Q52 134 86 134Q114 134 131.5 114Q149 94 149 63Z" glyph-name="quotedblbase" horiz-adv-x="409" unicode="&#8222;" /><glyph d="M66 525Q66 597 115.5 650.5Q165 704 240 714L227 642Q191 637 167.5 623Q144 609 130 585Q162 585 181 569Q200 553 200 526Q200 492 181.5 473Q163 454 129 454Q100 454 83 473Q66 492 66 525ZM246 525Q246 597 295.5 650.5Q345 704 420 714L407 642Q371 637 347.5 623Q324 609 310 585Q342 585 361 569Q380 553 380 526Q380 492 361.5 473Q343 454 309 454Q280 454 263 473Q246 492 246 525Z" glyph-name="quotedblleft" horiz-adv-x="394" unicode="&#8220;" /><glyph d="M410 638Q410 565 360.5 510.5Q311 456 236 446L249 518Q287 525 309 538.5Q331 552 346 578Q314 578 295 594Q276 610 276 637Q276 671 294.5 690Q313 709 347 709Q375 709 392.5 689Q410 669 410 638ZM230 638Q230 565 180.5 510.5Q131 456 56 446L69 518Q107 525 129 538.5Q151 552 166 578Q134 578 115 594Q96 610 96 637Q96 671 114.5 690Q133 709 167 709Q195 709 212.5 689Q230 669 230 638Z" glyph-name="quotedblright" horiz-adv-x="384" unicode="&#8221;" /><glyph d="M66 525Q66 597 115.5 650.5Q165 704 240 714L227 642Q191 637 167.5 623Q144 609 130 585Q162 585 181 569Q200 553 200 526Q200 492 181.5 473Q163 454 129 454Q100 454 83 473Q66 492 66 525Z" glyph-name="quoteleft" horiz-adv-x="204" unicode="&#8216;" /><glyph d="M230 638Q230 565 180.5 510.5Q131 456 56 446L69 518Q107 525 129 538.5Q151 552 166 578Q134 578 115 594Q96 610 96 637Q96 671 114.5 690Q133 709 167 709Q195 709 212.5 689Q230 669 230 638Z" glyph-name="quoteright" horiz-adv-x="204" unicode="&#8217;" /><glyph d="M149 63Q149 -10 99.5 -64.5Q50 -119 -25 -129L-12 -57Q26 -50 48 -36.5Q70 -23 85 3Q53 3 34 19Q15 35 15 62Q15 96 33.5 115Q52 134 86 134Q114 134 131.5 114Q149 94 149 63Z" glyph-name="quotesinglbase" horiz-adv-x="229" unicode="&#8218;" /><glyph d="M154 413H98L103 621L107 646H221L216 621Z" glyph-name="quotesingle" horiz-adv-x="220" unicode="'" /><glyph d="M223 428Q223 422 221.5 409Q220 396 216 367L201 270Q250 400 289.5 445.5Q329 491 399 498L380 379Q307 372 270 337.5Q233 303 202 213L168 0H46L104 365Q107 382 109 396Q111 410 111 416Q111 427 107 432Q103 437 94 437Q80 437 62 413.5Q44 390 29 350L4 360Q33 430 69 461.5Q105 493 156 493Q188 493 205.5 476Q223 459 223 428Z" glyph-name="r" horiz-adv-x="396" unicode="r" /><glyph d="M223 428Q223 422 221.5 409Q220 396 216 367L201 270Q250 400 289.5 445.5Q329 491 399 498L380 379Q307 372 270 337.5Q233 303 202 213L168 0H46L104 365Q107 382 109 396Q111 410 111 416Q111 427 107 432Q103 437 94 437Q80 437 62 413.5Q44 390 29 350L4 360Q33 430 69 461.5Q105 493 156 493Q188 493 205.5 476Q223 459 223 428ZM449 698 278 557H238L301 706H451Z" glyph-name="racute" horiz-adv-x="396" unicode="&#341;" /><glyph d="M223 0H134L78 438H40L46 480H205L244 140L505 750H563L562 746Z" glyph-name="radical" horiz-adv-x="489" unicode="&#8730;" /><glyph d="M223 428Q223 422 221.5 409Q220 396 216 367L201 270Q250 400 289.5 445.5Q329 491 399 498L380 379Q307 372 270 337.5Q233 303 202 213L168 0H46L104 365Q107 382 109 396Q111 410 111 416Q111 427 107 432Q103 437 94 437Q80 437 62 413.5Q44 390 29 350L4 360Q33 430 69 461.5Q105 493 156 493Q188 493 205.5 476Q223 459 223 428ZM375 706H402L316 547H216L180 706H207L277 618Z" glyph-name="rcaron" horiz-adv-x="396" unicode="&#345;" /><glyph d="M223 428Q223 422 221.5 409Q220 396 216 367L201 270Q250 400 289.5 445.5Q329 491 399 498L380 379Q307 372 270 337.5Q233 303 202 213L168 0H46L104 365Q107 382 109 396Q111 410 111 416Q111 427 107 432Q103 437 94 437Q80 437 62 413.5Q44 390 29 350L4 360Q33 430 69 461.5Q105 493 156 493Q188 493 205.5 476Q223 459 223 428ZM148 -117Q148 -164 106 -198.5Q64 -233 -1 -239L7 -187Q43 -182 60.5 -175Q78 -168 90 -155Q65 -155 50.5 -143Q36 -131 36 -111Q36 -88 51.5 -74Q67 -60 92 -60Q118 -60 133 -75.5Q148 -91 148 -117Z" glyph-name="rcommaaccent" horiz-adv-x="396" unicode="&#343;" /><glyph d="M728 387Q728 204 613.5 85Q499 -34 325 -34Q196 -34 115.5 47Q35 128 35 257Q35 440 149.5 559Q264 678 438 678Q567 678 647.5 597Q728 516 728 387ZM120 263Q120 159 178 98.5Q236 38 337 38Q473 38 558 132.5Q643 227 643 381Q643 485 585 545.5Q527 606 426 606Q290 606 205 511.5Q120 417 120 263ZM372 471 349 321H360Q396 321 417.5 344Q439 367 439 405Q439 434 423.5 452.5Q408 471 383 471ZM341 180 363 170 361 157H209L211 170L236 180Q249 185 253.5 190.5Q258 196 260 211L296 439Q297 442 297 444.5Q297 447 297 451Q297 458 294.5 462Q292 466 282 470L260 480L262 493H404Q456 493 487 470Q518 447 518 408Q518 371 494.5 345.5Q471 320 428 311Q450 266 473.5 225Q497 184 509 170L507 157H426Q409 183 391 224Q373 265 364 298H345L333 221Q331 214 330.5 209Q330 204 330 198Q330 191 332.5 187Q335 183 341 180Z" glyph-name="registered" horiz-adv-x="753" unicode="&#174;" /><glyph d="M366 645Q366 596 335.5 566Q305 536 256 536Q219 536 196.5 556.5Q174 577 174 611Q174 660 204.5 690Q235 720 285 720Q322 720 344 699.5Q366 679 366 645ZM232 618Q232 601 241 591.5Q250 582 265 582Q284 582 296.5 597.5Q309 613 309 638Q309 655 300 664.5Q291 674 276 674Q257 674 244.5 658.5Q232 643 232 618Z" glyph-name="ring" horiz-adv-x="440" unicode="&#730;" /><glyph d="M398 792Q398 744 366 714Q334 684 282 684Q241 684 219 705Q197 726 197 764Q197 812 228.5 842Q260 872 312 872Q353 872 375.5 851Q398 830 398 792ZM254 768Q254 749 264 738.5Q274 728 291 728Q314 728 327 744Q340 760 340 788Q340 807 330.5 817.5Q321 828 304 828Q280 828 267 812Q254 796 254 768Z" glyph-name="ring.case" horiz-adv-x="440" /><glyph d="M155 -14Q107 -14 70 -7Q33 0 -3 17L14 136H23Q53 82 89.5 53Q126 24 166 24Q196 24 215 43.5Q234 63 234 94Q234 122 219.5 141.5Q205 161 169 181L151 191Q96 220 70 257Q44 294 44 341Q44 412 93 455Q142 498 222 498Q258 498 294 492Q330 486 362 475L344 363H335Q314 405 278.5 432.5Q243 460 209 460Q178 460 160 442Q142 424 142 394Q142 363 158 342Q174 321 214 298L244 281Q293 253 314.5 220.5Q336 188 336 142Q336 74 284.5 30Q233 -14 155 -14Z" glyph-name="s" horiz-adv-x="383" unicode="s" /><glyph d="M155 -14Q107 -14 70 -7Q33 0 -3 17L14 136H23Q53 82 89.5 53Q126 24 166 24Q196 24 215 43.5Q234 63 234 94Q234 122 219.5 141.5Q205 161 169 181L151 191Q96 220 70 257Q44 294 44 341Q44 412 93 455Q142 498 222 498Q258 498 294 492Q330 486 362 475L344 363H335Q314 405 278.5 432.5Q243 460 209 460Q178 460 160 442Q142 424 142 394Q142 363 158 342Q174 321 214 298L244 281Q293 253 314.5 220.5Q336 188 336 142Q336 74 284.5 30Q233 -14 155 -14ZM407 698 236 557H196L259 706H409Z" glyph-name="sacute" horiz-adv-x="383" unicode="&#347;" /><glyph d="M155 -14Q107 -14 70 -7Q33 0 -3 17L14 136H23Q53 82 89.5 53Q126 24 166 24Q196 24 215 43.5Q234 63 234 94Q234 122 219.5 141.5Q205 161 169 181L151 191Q96 220 70 257Q44 294 44 341Q44 412 93 455Q142 498 222 498Q258 498 294 492Q330 486 362 475L344 363H335Q314 405 278.5 432.5Q243 460 209 460Q178 460 160 442Q142 424 142 394Q142 363 158 342Q174 321 214 298L244 281Q293 253 314.5 220.5Q336 188 336 142Q336 74 284.5 30Q233 -14 155 -14ZM333 706H360L274 547H174L138 706H165L235 618Z" glyph-name="scaron" horiz-adv-x="383" unicode="&#353;" /><glyph d="M237 -134Q237 -174 210 -196.5Q183 -219 135 -219Q109 -219 86 -208Q63 -197 50 -179L53 -161Q69 -172 80.5 -176Q92 -180 106 -180Q128 -180 139 -168.5Q150 -157 150 -134Q150 -115 138 -102.5Q126 -90 103 -87L133 -14Q94 -13 62 -5.5Q30 2 -3 17L14 130H23Q54 78 90.5 51Q127 24 166 24Q196 24 215 43.5Q234 63 234 94Q234 122 219.5 141.5Q205 161 169 181L151 191Q96 220 70 257Q44 294 44 341Q44 412 93 455Q142 498 222 498Q258 498 294 492Q330 486 362 475L345 368H336Q311 409 276.5 434.5Q242 460 209 460Q178 460 160 442Q142 424 142 394Q142 363 158 342Q174 321 214 298L244 281Q293 253 314.5 220.5Q336 188 336 142Q336 76 288 32.5Q240 -11 165 -14L144 -57Q186 -57 211.5 -78Q237 -99 237 -134Z" glyph-name="scedilla" horiz-adv-x="383" unicode="&#351;" /><glyph d="M155 -14Q107 -14 70 -7Q33 0 -3 17L14 136H23Q53 82 89.5 53Q126 24 166 24Q196 24 215 43.5Q234 63 234 94Q234 122 219.5 141.5Q205 161 169 181L151 191Q96 220 70 257Q44 294 44 341Q44 412 93 455Q142 498 222 498Q258 498 294 492Q330 486 362 475L344 363H335Q314 405 278.5 432.5Q243 460 209 460Q178 460 160 442Q142 424 142 394Q142 363 158 342Q174 321 214 298L244 281Q293 253 314.5 220.5Q336 188 336 142Q336 74 284.5 30Q233 -14 155 -14ZM142 545H115L203 704H302L337 545H310L241 633Z" glyph-name="scircumflex" horiz-adv-x="383" unicode="&#349;" /><glyph d="M155 -14Q107 -14 70 -7Q33 0 -3 17L14 136H23Q53 82 89.5 53Q126 24 166 24Q196 24 215 43.5Q234 63 234 94Q234 122 219.5 141.5Q205 161 169 181L151 191Q96 220 70 257Q44 294 44 341Q44 412 93 455Q142 498 222 498Q258 498 294 492Q330 486 362 475L344 363H335Q314 405 278.5 432.5Q243 460 209 460Q178 460 160 442Q142 424 142 394Q142 363 158 342Q174 321 214 298L244 281Q293 253 314.5 220.5Q336 188 336 142Q336 74 284.5 30Q233 -14 155 -14ZM205 -117Q205 -164 163 -198.5Q121 -233 56 -239L64 -187Q100 -182 117.5 -175Q135 -168 147 -155Q122 -155 107.5 -143Q93 -131 93 -111Q93 -88 108.5 -74Q124 -60 149 -60Q175 -60 190 -75.5Q205 -91 205 -117Z" glyph-name="scommaaccent" horiz-adv-x="383" unicode="&#537;" /><glyph d="M201 196 239 172Q289 140 312.5 94.5Q336 49 336 -17Q353 24 359.5 56Q366 88 366 124Q366 184 339 228.5Q312 273 249 315L218 336Q182 361 162 401Q142 441 142 489Q142 498 144 513.5Q146 529 150 548Q132 517 119.5 467Q107 417 107 378Q107 317 130.5 271.5Q154 226 201 196ZM430 203Q430 25 344 -95Q258 -215 131 -215Q83 -215 43 -205.5Q3 -196 -23 -179L2 -21H20L31 -67Q44 -124 70 -150.5Q96 -177 139 -177Q197 -177 227.5 -145.5Q258 -114 258 -55Q258 -21 240.5 9.5Q223 40 191 61L169 76Q105 118 72.5 178.5Q40 239 40 315Q40 386 57.5 452Q75 518 109 572Q149 639 205.5 675.5Q262 712 325 712Q367 712 405 706Q443 700 470 689L446 535H425L415 568Q398 623 371 648.5Q344 674 303 674Q251 674 221.5 644Q192 614 192 561Q192 525 214 493.5Q236 462 281 432L313 411Q372 372 401 321Q430 270 430 203Z" glyph-name="section" horiz-adv-x="477" unicode="&#167;" /><glyph d="M172 67Q172 -14 117.5 -73Q63 -132 -24 -145L-13 -73Q33 -65 59 -49Q85 -33 100 -4Q63 -4 42.5 13Q22 30 22 60Q22 98 44.5 121.5Q67 145 104 145Q136 145 154 124Q172 103 172 67ZM220 366Q220 327 194 300.5Q168 274 130 274Q100 274 82 291Q64 308 64 337Q64 376 89.5 402.5Q115 429 153 429Q184 429 202 412Q220 395 220 366Z" glyph-name="semicolon" horiz-adv-x="266" unicode=";" /><glyph d="M134 0H4L6 12Q134 148 226.5 275Q319 402 380 526H61L80 646H450L434 548Q384 431 297.5 274Q211 117 134 0Z" glyph-name="seven" horiz-adv-x="440" unicode="7" /><glyph d="M320 412Q388 412 426.5 366Q465 320 465 238Q465 127 395 56.5Q325 -14 221 -14Q129 -14 79 48.5Q29 111 29 223Q29 407 139.5 529.5Q250 652 416 652Q434 652 450.5 651Q467 650 475 649L471 621Q346 601 278 534.5Q210 468 179 335Q204 375 238 393.5Q272 412 320 412ZM174 299Q167 261 164 226.5Q161 192 161 160Q161 96 178.5 60.5Q196 25 228 25Q272 25 300.5 78.5Q329 132 329 214Q329 264 307.5 295Q286 326 251 326Q226 326 209 320Q192 314 174 299Z" glyph-name="six" horiz-adv-x="515" unicode="6" /><glyph d="M-26 -250H-80L-78 -237L427 750H481L479 737Z" glyph-name="slash" horiz-adv-x="419" unicode="/" /><glyph glyph-name="space" horiz-adv-x="185" unicode=" " /><glyph d="M438 154H463Q447 55 407.5 9Q368 -37 299 -37Q275 -37 251.5 -34Q228 -31 185 -21Q131 -8 97 -4Q63 0 25 0H-28L-16 77Q48 91 82 120.5Q116 150 135 206Q139 219 143.5 251Q148 283 151 324H64L76 370H155Q156 395 157 418Q158 441 158 458Q158 544 220.5 601Q283 658 374 658Q411 658 446 652Q481 646 513 635L491 500H472L464 523Q446 575 426.5 596Q407 617 375 617Q331 617 309 588Q287 559 287 503Q287 469 286 436Q285 403 282 370H414L404 324H277Q270 277 261.5 243.5Q253 210 243 192Q220 151 186 127.5Q152 104 95 90Q113 93 126.5 94Q140 95 155 95Q186 95 213.5 92Q241 89 279 80Q302 75 314 73.5Q326 72 337 72Q379 72 403.5 91.5Q428 111 438 154Z" glyph-name="sterling" horiz-adv-x="500" unicode="&#163;" /><glyph d="M448 0H-3L1 28L258 300L89 620L93 646H544L515 468H496L470 544Q458 579 440.5 592Q423 605 391 605H231L364 356L360 335L135 109H333Q371 109 392.5 122.5Q414 136 442 181L461 209H481Z" glyph-name="summation" horiz-adv-x="563" unicode="&#8721;" /><glyph d="M139 -12Q96 -12 70.5 14Q45 40 45 84Q45 99 48.5 130.5Q52 162 59 205L97 435H43L48 467L73 478Q95 488 104 497.5Q113 507 121 529L144 592H242L223 478H343L336 435H217L173 167Q168 140 165.5 116Q163 92 163 81Q163 63 170.5 55.5Q178 48 194 48Q218 48 239.5 71.5Q261 95 282 143L308 134Q276 55 237.5 21.5Q199 -12 139 -12Z" glyph-name="t" horiz-adv-x="333" unicode="t" /><glyph d="M282 143 308 134Q276 55 237.5 21.5Q199 -12 139 -12Q96 -12 70.5 14Q45 40 45 84Q45 99 48.5 130.5Q52 162 59 205L67 253H5L9 288H73L97 435H43L48 467L73 478Q95 488 104 497.5Q113 507 121 529L144 592H242L223 478H343L336 435H217L193 288H288L284 253H187L173 167Q168 140 165.5 116Q163 92 163 81Q163 63 170.5 55.5Q178 48 194 48Q218 48 239.5 71.5Q261 95 282 143Z" glyph-name="tbar" horiz-adv-x="333" unicode="&#359;" /><glyph d="M139 -12Q96 -12 70.5 14Q45 40 45 84Q45 99 48.5 130.5Q52 162 59 205L97 435H43L48 467L73 478Q95 488 104 497.5Q113 507 121 529L144 592H242L223 478H343L336 435H217L173 167Q168 140 165.5 116Q163 92 163 81Q163 63 170.5 55.5Q178 48 194 48Q218 48 239.5 71.5Q261 95 282 143L308 134Q276 55 237.5 21.5Q199 -12 139 -12ZM293 518H273L322 706H424L423 702Z" glyph-name="tcaron" horiz-adv-x="333" unicode="&#357;" /><glyph d="M221 24Q276 24 310.5 96.5Q345 169 345 287Q345 350 331.5 385.5Q318 421 294 421Q268 421 236 371.5Q204 322 179 240L151 67Q162 46 180 35Q198 24 221 24ZM481 296Q481 160 411.5 73.5Q342 -13 232 -13Q206 -13 184 -9.5Q162 -6 141 1L126 -95Q124 -105 123 -113Q122 -121 122 -131Q122 -144 127 -150.5Q132 -157 144 -162L199 -180L196 -204H-75L-71 -182L-34 -167Q-18 -160 -10.5 -149.5Q-3 -139 0 -119L106 574Q108 584 108.5 591.5Q109 599 109 604Q109 622 102.5 632.5Q96 643 79 653L54 668L57 689L180 706H252Q244 673 237.5 639.5Q231 606 226 576L187 341Q221 420 260.5 459Q300 498 345 498Q410 498 445.5 445Q481 392 481 296Z" glyph-name="thorn" horiz-adv-x="525" unicode="&#254;" /><glyph d="M412 181Q412 88 352 37.5Q292 -13 180 -13Q128 -13 81.5 6.5Q35 26 -2 63L2 89Q44 64 73 55Q102 46 137 46Q197 46 234 82.5Q271 119 271 179Q271 237 240 273Q209 309 151 319L155 346Q222 356 259 401Q296 446 296 517Q296 566 276 592Q256 618 218 618Q185 618 160 599Q135 580 96 526H78L95 634Q132 648 165.5 654Q199 660 239 660Q327 660 379 618.5Q431 577 431 507Q431 435 377 390Q323 345 228 336Q306 334 359 289.5Q412 245 412 181Z" glyph-name="three" horiz-adv-x="492" unicode="3" /><glyph d="M170 0H107L108 4L550 646H613V642ZM574 0H409L411 16L437 25Q449 30 454.5 37Q460 44 463 59L466 80H339L347 127L513 351H584L550 133H585L576 80H541L538 59Q537 56 537 53.5Q537 51 537 47Q537 38 540.5 33Q544 28 553 25L576 16ZM500 294 391 133H475ZM160 478Q209 477 239.5 453.5Q270 430 270 394Q270 341 234.5 313Q199 285 131 285Q102 285 74 297Q46 309 32 327L35 342Q57 329 73.5 324.5Q90 320 112 320Q145 320 164 340.5Q183 361 183 397Q183 425 168 442.5Q153 460 125 465L127 484Q160 493 177.5 513.5Q195 534 195 563Q195 587 181 602Q167 617 144 617Q126 617 112.5 613.5Q99 610 85 603L87 619Q107 638 130 647Q153 656 183 656Q225 656 251.5 633.5Q278 611 278 576Q278 535 248.5 510.5Q219 486 160 478Z" glyph-name="threequarters" horiz-adv-x="659" unicode="&#190;" /><glyph d="M160 478Q209 477 239.5 453.5Q270 430 270 394Q270 341 234.5 313Q199 285 131 285Q102 285 74 297Q46 309 32 327L35 342Q57 329 73.5 324.5Q90 320 112 320Q145 320 164 340.5Q183 361 183 397Q183 425 168 442.5Q153 460 125 465L127 484Q160 493 177.5 513.5Q195 534 195 563Q195 587 181 602Q167 617 144 617Q126 617 112.5 613.5Q99 610 85 603L87 619Q107 638 130 647Q153 656 183 656Q225 656 251.5 633.5Q278 611 278 576Q278 535 248.5 510.5Q219 486 160 478Z" glyph-name="threesuperior" horiz-adv-x="291" unicode="&#179;" /><glyph d="M175 575H153Q162 635 183 664.5Q204 694 238 694Q250 694 261 689.5Q272 685 289 671Q303 661 310.5 657.5Q318 654 325 654Q341 654 351 666Q361 678 366 704H390Q382 639 360 607Q338 575 303 575Q291 575 280 579.5Q269 584 253 597Q239 608 231.5 611.5Q224 615 216 615Q202 615 192 605Q182 595 175 575Z" glyph-name="tilde" horiz-adv-x="440" unicode="&#732;" /><glyph d="M190 706H170Q178 762 201.5 791.5Q225 821 262 821Q270 821 279 818Q288 815 305 806Q322 797 331.5 794Q341 791 350 791Q367 791 378.5 800Q390 809 398 827H421Q411 768 386 737.5Q361 707 321 707Q307 707 295.5 710.5Q284 714 267 725Q255 733 248.5 735.5Q242 738 235 738Q221 738 209.5 730Q198 722 190 706Z" glyph-name="tilde.case" horiz-adv-x="440" /><glyph d="M247 365 271 356 269 342H96L98 356L126 365Q140 369 146 375.5Q152 382 154 398L190 625H179Q156 625 140.5 614.5Q125 604 104 572L91 552H78L93 646H370L355 552H343L336 572Q325 603 312.5 614Q300 625 277 625H265L229 398Q228 396 228 394.5Q228 393 228 389Q228 380 232 375Q236 370 247 365ZM471 342H352L355 356L380 367Q392 371 397 377.5Q402 384 404 398L437 578Q438 583 439 591Q440 599 440 600Q440 607 437 611.5Q434 616 427 620L403 634L405 646H526L575 440L686 646H807L805 634L782 626Q770 622 765.5 616Q761 610 759 596L727 393Q726 391 726 388.5Q726 386 726 382Q726 375 729 371Q732 367 740 364L761 356L759 342H608L610 356L633 365Q645 370 649 375Q653 380 655 393L685 583L547 343H525L462 583L432 398Q431 396 431 393.5Q431 391 431 387Q431 380 433.5 376.5Q436 373 445 368L473 356Z" glyph-name="trademark" horiz-adv-x="805" unicode="&#8482;" /><glyph d="M398 0H-13L2 95L106 169Q204 238 255.5 321Q307 404 307 492Q307 547 284 579Q261 611 221 611Q188 611 157.5 591.5Q127 572 81 522H69L86 628Q129 644 168.5 652Q208 660 247 660Q337 660 392 610.5Q447 561 447 481Q447 379 376.5 299Q306 219 156 149L94 120H417Z" glyph-name="two" horiz-adv-x="484" unicode="2" /><glyph d="M260 293H30L38 344L101 389Q155 427 181.5 467.5Q208 508 208 551Q208 577 192 594Q176 611 151 611Q132 611 116 605.5Q100 600 76 586L78 603Q99 627 128 640.5Q157 654 186 654Q240 654 268 628.5Q296 603 296 556Q296 500 258.5 460Q221 420 131 379L100 365H271Z" glyph-name="twosuperior" horiz-adv-x="298" unicode="&#178;" /><glyph d="M156 -13Q108 -13 80.5 14.5Q53 42 53 90Q53 105 55 125Q57 145 61 162L106 365Q109 380 111 393Q113 406 113 416Q113 427 109 432Q105 437 96 437Q82 437 64 413.5Q46 390 31 350L6 360Q34 429 71.5 461Q109 493 162 493Q194 493 211.5 476Q229 459 229 428Q229 417 227.5 402Q226 387 222 367L185 177Q181 155 178.5 135.5Q176 116 176 108Q176 86 184.5 75Q193 64 210 64Q252 64 289 130Q326 196 364 336L388 478H509L451 113Q448 95 447 87Q446 79 446 74Q446 59 451.5 52Q457 45 468 45Q484 45 499 66Q514 87 528 130L555 122Q530 51 496 20.5Q462 -10 410 -10Q374 -10 355.5 10.5Q337 31 337 71Q337 78 338 89Q339 100 341 111L359 210Q311 92 263 39.5Q215 -13 156 -13Z" glyph-name="u" horiz-adv-x="571" unicode="u" /><glyph d="M156 -13Q108 -13 80.5 14.5Q53 42 53 90Q53 105 55 125Q57 145 61 162L106 365Q109 380 111 393Q113 406 113 416Q113 427 109 432Q105 437 96 437Q82 437 64 413.5Q46 390 31 350L6 360Q34 429 71.5 461Q109 493 162 493Q194 493 211.5 476Q229 459 229 428Q229 417 227.5 402Q226 387 222 367L185 177Q181 155 178.5 135.5Q176 116 176 108Q176 86 184.5 75Q193 64 210 64Q252 64 289 130Q326 196 364 336L388 478H509L451 113Q448 95 447 87Q446 79 446 74Q446 59 451.5 52Q457 45 468 45Q484 45 499 66Q514 87 528 130L555 122Q530 51 496 20.5Q462 -10 410 -10Q374 -10 355.5 10.5Q337 31 337 71Q337 78 338 89Q339 100 341 111L359 210Q311 92 263 39.5Q215 -13 156 -13ZM497 698 326 557H286L349 706H499Z" glyph-name="uacute" horiz-adv-x="571" unicode="&#250;" /><glyph d="M156 -13Q108 -13 80.5 14.5Q53 42 53 90Q53 105 55 125Q57 145 61 162L106 365Q109 380 111 393Q113 406 113 416Q113 427 109 432Q105 437 96 437Q82 437 64 413.5Q46 390 31 350L6 360Q34 429 71.5 461Q109 493 162 493Q194 493 211.5 476Q229 459 229 428Q229 417 227.5 402Q226 387 222 367L185 177Q181 155 178.5 135.5Q176 116 176 108Q176 86 184.5 75Q193 64 210 64Q252 64 289 130Q326 196 364 336L388 478H509L451 113Q448 95 447 87Q446 79 446 74Q446 59 451.5 52Q457 45 468 45Q484 45 499 66Q514 87 528 130L555 122Q530 51 496 20.5Q462 -10 410 -10Q374 -10 355.5 10.5Q337 31 337 71Q337 78 338 89Q339 100 341 111L359 210Q311 92 263 39.5Q215 -13 156 -13ZM420 696H441Q429 625 399 591Q369 557 318 557Q276 557 255.5 579.5Q235 602 235 649Q235 661 236 673Q237 685 239 696H261Q263 661 280 643.5Q297 626 329 626Q360 626 382.5 643Q405 660 420 696Z" glyph-name="ubreve" horiz-adv-x="571" unicode="&#365;" /><glyph d="M156 -13Q108 -13 80.5 14.5Q53 42 53 90Q53 105 55 125Q57 145 61 162L106 365Q109 380 111 393Q113 406 113 416Q113 427 109 432Q105 437 96 437Q82 437 64 413.5Q46 390 31 350L6 360Q34 429 71.5 461Q109 493 162 493Q194 493 211.5 476Q229 459 229 428Q229 417 227.5 402Q226 387 222 367L185 177Q181 155 178.5 135.5Q176 116 176 108Q176 86 184.5 75Q193 64 210 64Q252 64 289 130Q326 196 364 336L388 478H509L451 113Q448 95 447 87Q446 79 446 74Q446 59 451.5 52Q457 45 468 45Q484 45 499 66Q514 87 528 130L555 122Q530 51 496 20.5Q462 -10 410 -10Q374 -10 355.5 10.5Q337 31 337 71Q337 78 338 89Q339 100 341 111L359 210Q311 92 263 39.5Q215 -13 156 -13ZM232 545H205L293 704H392L427 545H400L331 633Z" glyph-name="ucircumflex" horiz-adv-x="571" unicode="&#251;" /><glyph d="M156 -13Q108 -13 80.5 14.5Q53 42 53 90Q53 105 55 125Q57 145 61 162L106 365Q109 380 111 393Q113 406 113 416Q113 427 109 432Q105 437 96 437Q82 437 64 413.5Q46 390 31 350L6 360Q34 429 71.5 461Q109 493 162 493Q194 493 211.5 476Q229 459 229 428Q229 417 227.5 402Q226 387 222 367L185 177Q181 155 178.5 135.5Q176 116 176 108Q176 86 184.5 75Q193 64 210 64Q252 64 289 130Q326 196 364 336L388 478H509L451 113Q448 95 447 87Q446 79 446 74Q446 59 451.5 52Q457 45 468 45Q484 45 499 66Q514 87 528 130L555 122Q530 51 496 20.5Q462 -10 410 -10Q374 -10 355.5 10.5Q337 31 337 71Q337 78 338 89Q339 100 341 111L359 210Q311 92 263 39.5Q215 -13 156 -13ZM346 623Q346 658 368 680.5Q390 703 425 703Q451 703 466.5 687Q482 671 482 645Q482 610 459.5 587.5Q437 565 403 565Q378 565 362 581Q346 597 346 623ZM172 623Q172 658 194 680.5Q216 703 251 703Q277 703 293 687Q309 671 309 645Q309 610 286.5 587.5Q264 565 230 565Q205 565 188.5 581.5Q172 598 172 623Z" glyph-name="udieresis" horiz-adv-x="571" unicode="&#252;" /><glyph d="M156 -13Q108 -13 80.5 14.5Q53 42 53 90Q53 105 55 125Q57 145 61 162L106 365Q109 380 111 393Q113 406 113 416Q113 427 109 432Q105 437 96 437Q82 437 64 413.5Q46 390 31 350L6 360Q34 429 71.5 461Q109 493 162 493Q194 493 211.5 476Q229 459 229 428Q229 417 227.5 402Q226 387 222 367L185 177Q181 155 178.5 135.5Q176 116 176 108Q176 86 184.5 75Q193 64 210 64Q252 64 289 130Q326 196 364 336L388 478H509L451 113Q448 95 447 87Q446 79 446 74Q446 59 451.5 52Q457 45 468 45Q484 45 499 66Q514 87 528 130L555 122Q530 51 496 20.5Q462 -10 410 -10Q374 -10 355.5 10.5Q337 31 337 71Q337 78 338 89Q339 100 341 111L359 210Q311 92 263 39.5Q215 -13 156 -13ZM334 557H294L161 698V706H301Z" glyph-name="ugrave" horiz-adv-x="571" unicode="&#249;" /><glyph d="M156 -13Q108 -13 80.5 14.5Q53 42 53 90Q53 105 55 125Q57 145 61 162L106 365Q109 380 111 393Q113 406 113 416Q113 427 109 432Q105 437 96 437Q82 437 64 413.5Q46 390 31 350L6 360Q34 429 71.5 461Q109 493 162 493Q194 493 211.5 476Q229 459 229 428Q229 417 227.5 402Q226 387 222 367L185 177Q181 155 178.5 135.5Q176 116 176 108Q176 86 184.5 75Q193 64 210 64Q252 64 289 130Q326 196 364 336L388 478H509L451 113Q448 95 447 87Q446 79 446 74Q446 59 451.5 52Q457 45 468 45Q484 45 499 66Q514 87 528 130L555 122Q530 51 496 20.5Q462 -10 410 -10Q374 -10 355.5 10.5Q337 31 337 71Q337 78 338 89Q339 100 341 111L359 210Q311 92 263 39.5Q215 -13 156 -13ZM387 557H350L473 704H575L574 700ZM308 557H272L331 704H422L421 700Z" glyph-name="uhungarumlaut" horiz-adv-x="571" unicode="&#369;" /><glyph d="M156 -13Q108 -13 80.5 14.5Q53 42 53 90Q53 105 55 125Q57 145 61 162L106 365Q109 380 111 393Q113 406 113 416Q113 427 109 432Q105 437 96 437Q82 437 64 413.5Q46 390 31 350L6 360Q34 429 71.5 461Q109 493 162 493Q194 493 211.5 476Q229 459 229 428Q229 417 227.5 402Q226 387 222 367L185 177Q181 155 178.5 135.5Q176 116 176 108Q176 86 184.5 75Q193 64 210 64Q252 64 289 130Q326 196 364 336L388 478H509L451 113Q448 95 447 87Q446 79 446 74Q446 59 451.5 52Q457 45 468 45Q484 45 499 66Q514 87 528 130L555 122Q530 51 496 20.5Q462 -10 410 -10Q374 -10 355.5 10.5Q337 31 337 71Q337 78 338 89Q339 100 341 111L359 210Q311 92 263 39.5Q215 -13 156 -13ZM429 596H220L228 647H437Z" glyph-name="umacron" horiz-adv-x="571" unicode="&#363;" /><glyph d="M421 -146H-70L-63 -100H428Z" glyph-name="underscore" horiz-adv-x="489" unicode="_" /><glyph glyph-name="uni00A0" horiz-adv-x="218" unicode="&#160;" /><glyph d="M207 234H40L48 288H215Z" glyph-name="uni00AD" horiz-adv-x="264" unicode="&#173;" /><glyph d="M319 -133Q319 -173 291 -196Q263 -219 212 -219Q187 -219 164 -208.5Q141 -198 127 -181L129 -163Q143 -170 154.5 -173Q166 -176 178 -176Q202 -176 215.5 -164.5Q229 -153 229 -132Q229 -115 216.5 -102Q204 -89 184 -85L214 0H76L80 24L130 43Q160 54 171.5 68Q183 82 188 112L266 608H244Q197 608 167 586Q137 564 101 501L72 450H46L78 646H605L576 450H552L537 501Q518 565 495 586.5Q472 608 427 608H399L324 136Q322 124 320.5 111Q319 98 319 91Q319 74 327.5 63.5Q336 53 357 45L410 24L406 0H258L231 -57Q272 -58 295.5 -78.5Q319 -99 319 -133Z" glyph-name="uni0162" horiz-adv-x="572" unicode="&#354;" /><glyph d="M215 -134Q215 -174 188 -196.5Q161 -219 113 -219Q87 -219 64 -208Q41 -197 28 -179L31 -161Q47 -172 58.5 -176Q70 -180 84 -180Q106 -180 117 -168.5Q128 -157 128 -134Q128 -115 116 -102.5Q104 -90 81 -87L113 -9Q81 -1 63 23Q45 47 45 84Q45 99 48.5 130.5Q52 162 59 205L97 435H43L48 467L73 478Q95 488 104 497.5Q113 507 121 529L144 592H242L223 478H343L336 435H217L173 167Q168 140 165.5 116Q163 92 163 81Q163 63 170.5 55.5Q178 48 194 48Q218 48 239.5 71.5Q261 95 282 143L308 134Q277 55 238.5 21.5Q200 -12 143 -12L122 -57Q164 -57 189.5 -78Q215 -99 215 -134Z" glyph-name="uni0163" horiz-adv-x="333" unicode="&#355;" /><glyph d="M490 208H512L478 0H-19L-12 42L185 304H100L107 349H219L412 606H276Q227 606 197.5 590Q168 574 139 531L91 460H70L99 646H578L572 604L378 349H475L467 304H344L144 40H284Q337 40 373.5 60.5Q410 81 439 127Z" glyph-name="uni01B5" horiz-adv-x="562" unicode="&#437;" /><glyph d="M355 156H378Q373 67 339.5 22Q306 -23 245 -23Q230 -23 213.5 -20.5Q197 -18 164 -11Q126 -2 103.5 1Q81 4 59 4Q42 4 23.5 2Q5 0 -14 -3L-10 26L162 226H63L69 261H192L288 373H142Q114 373 98.5 362Q83 351 62 319H42L67 478H403L398 447L242 261H339L333 226H212L105 98Q117 101 130 102.5Q143 104 157 104Q169 104 182.5 102Q196 100 221 94Q244 89 255 87.5Q266 86 275 86Q310 86 328 102Q346 118 355 156Z" glyph-name="uni01B6" horiz-adv-x="409" unicode="&#438;" /><glyph d="M357 45 410 24 406 0H76L80 24L130 43Q160 54 171.5 68Q183 82 188 112L266 608H244Q197 608 167 586Q137 564 101 501L72 450H46L78 646H605L576 450H552L537 501Q518 564 495 586Q472 608 427 608H399L324 136Q322 124 320.5 111Q319 98 319 91Q319 74 327.5 63.5Q336 53 357 45ZM286 -116Q286 -164 239.5 -200.5Q193 -237 126 -243L136 -184Q179 -182 197 -176Q215 -170 227 -156Q200 -156 182.5 -143.5Q165 -131 165 -111Q165 -88 181 -74Q197 -60 225 -60Q251 -60 268.5 -75.5Q286 -91 286 -116Z" glyph-name="uni021A" horiz-adv-x="572" unicode="&#538;" /><glyph d="M139 -12Q96 -12 70.5 14Q45 40 45 84Q45 99 48.5 130.5Q52 162 59 205L97 435H43L48 467L73 478Q95 488 104 497.5Q113 507 121 529L144 592H242L223 478H343L336 435H217L173 167Q168 140 165.5 116Q163 92 163 81Q163 63 170.5 55.5Q178 48 194 48Q218 48 239.5 71.5Q261 95 282 143L308 134Q276 55 237.5 21.5Q199 -12 139 -12ZM155 -117Q155 -164 113 -198.5Q71 -233 6 -239L14 -187Q50 -182 67.5 -175Q85 -168 97 -155Q72 -155 57.5 -143Q43 -131 43 -111Q43 -88 58.5 -74Q74 -60 99 -60Q125 -60 140 -75.5Q155 -91 155 -117Z" glyph-name="uni021B" horiz-adv-x="333" unicode="&#539;" /><glyph d="M316 593Q316 571 300.5 557.5Q285 544 260 544Q238 544 225.5 557.5Q213 571 213 595Q213 643 251 678Q289 713 348 720L341 672Q313 668 294.5 659Q276 650 264 634Q290 634 303 623.5Q316 613 316 593Z" glyph-name="uni0312" horiz-adv-x="440" unicode="&#786;" /><glyph d="M285 777Q310 777 324 766Q338 755 338 735Q338 715 322.5 701.5Q307 688 282 688Q259 688 246 702Q233 716 233 742Q233 790 272 825.5Q311 861 372 868L363 812Q334 809 316.5 801.5Q299 794 285 777Z" glyph-name="uni0312.case" horiz-adv-x="440" /><glyph d="M463 0H10L16 33L312 652H369L469 33ZM285 511 76 52H341Z" glyph-name="uni0394" horiz-adv-x="566" unicode="&#916;" /><glyph d="M312 0H14L38 151H52L63 109Q72 74 90 63.5Q108 53 161 53H242Q179 76 143.5 137.5Q108 199 108 287Q108 443 204 550.5Q300 658 440 658Q547 658 611 587.5Q675 517 675 399Q675 268 614.5 178Q554 88 441 53H522Q577 53 601 64Q625 75 645 109L669 151H682L658 0H360L364 23Q456 65 504 168.5Q552 272 552 430Q552 523 522.5 570Q493 617 435 617Q346 617 292 515.5Q238 414 238 246Q238 160 256.5 107.5Q275 55 316 23Z" glyph-name="uni03A9" horiz-adv-x="764" unicode="&#937;" /><glyph d="M158 -13H148Q122 -89 67 -136Q12 -183 -86 -212L-82 -183Q-24 -131 2 -78Q28 -25 51 88L108 365Q111 380 113 393Q115 406 115 416Q115 427 111 432Q107 437 98 437Q84 437 66 413.5Q48 390 33 350L8 360Q36 429 73.5 461Q111 493 164 493Q196 493 213.5 476Q231 459 231 428Q231 417 229.5 402Q228 387 224 367L187 177Q183 155 180.5 135.5Q178 116 178 108Q178 86 186.5 75Q195 64 212 64Q254 64 291 130Q328 196 366 336L390 478H511L453 113Q450 95 449 87Q448 79 448 74Q448 59 453.5 52Q459 45 470 45Q486 45 501 66Q516 87 530 130L557 122Q532 51 498 20.5Q464 -10 412 -10Q376 -10 357.5 10.5Q339 31 339 71Q339 78 340 89Q341 100 343 111L361 210Q313 92 265 39.5Q217 -13 158 -13Z" glyph-name="uni03BC" horiz-adv-x="579" unicode="&#956;" /><glyph d="M159 0H-31L-28 24Q-3 43 17 61.5Q37 80 56 101L234 302L117 552Q109 569 96 587.5Q83 606 71 616L60 624L63 646H325L321 621L292 611Q275 606 266.5 598Q258 590 258 580Q258 571 260.5 562Q263 553 268 541L332 395L455 550Q467 565 471.5 573.5Q476 582 476 589Q476 597 471 603Q466 609 455 613L428 622L432 646H621L618 624Q591 604 567.5 584Q544 564 528 547L350 358L466 114Q483 78 496 60.5Q509 43 524 32L534 25L530 0H264L268 25L307 35Q320 39 327 46Q334 53 334 63Q334 68 332.5 74.5Q331 81 325 94L252 266L131 107Q116 87 110.5 77Q105 67 105 62Q105 53 110 47.5Q115 42 128 37L162 24ZM470 783Q470 749 447.5 726.5Q425 704 390 704Q363 704 346.5 719Q330 734 330 760Q330 795 352.5 817Q375 839 410 839Q437 839 453.5 823.5Q470 808 470 783Z" glyph-name="uni1E8A" horiz-adv-x="588" unicode="&#7818;" /><glyph d="M340 -11Q305 -11 281.5 6.5Q258 24 240 61Q230 82 215 118.5Q200 155 186 191Q147 148 132 110Q117 72 110 0H4Q9 44 48 94Q87 144 175 221Q148 296 134 333.5Q120 371 110 397Q105 411 100 417Q95 423 89 423Q78 423 69.5 407Q61 391 52 356L25 363Q40 429 67 460.5Q94 492 137 492Q170 492 191.5 473.5Q213 455 233 407Q242 385 252.5 359Q263 333 279 291Q313 331 329 368Q345 405 345 444Q345 449 344.5 460Q344 471 343 478H447Q445 429 407.5 378Q370 327 289 263Q305 222 323.5 176Q342 130 352 106Q368 70 375 61.5Q382 53 392 53Q404 53 415 73.5Q426 94 434 132L461 124Q444 50 416.5 19.5Q389 -11 340 -11ZM213 623Q213 659 235.5 681.5Q258 704 294 704Q321 704 337 688Q353 672 353 645Q353 610 330 587Q307 564 272 564Q245 564 229 580Q213 596 213 623Z" glyph-name="uni1E8B" horiz-adv-x="492" unicode="&#7819;" /><glyph d="M217 650Q269 650 298.5 615Q328 580 328 518Q328 422 279.5 353.5Q231 285 164 285Q112 285 82.5 320Q53 355 53 417Q53 513 101.5 581.5Q150 650 217 650ZM218 624Q189 624 162.5 548.5Q136 473 136 384Q136 348 143 329.5Q150 311 163 311Q192 311 218.5 386.5Q245 462 245 551Q245 587 238 605.5Q231 624 218 624Z" glyph-name="uni2070" horiz-adv-x="325" unicode="&#8304;" /><glyph d="M271 297H106L108 313L134 322Q146 327 151.5 334Q157 341 160 356L163 377H36L44 424L210 648H281L247 430H282L273 377H238L235 356Q234 353 234 350.5Q234 348 234 344Q234 335 237.5 330Q241 325 250 322L273 313ZM197 591 88 430H172Z" glyph-name="uni2074" horiz-adv-x="305" unicode="&#8308;" /><glyph d="M160 -13Q102 -13 73.5 15Q45 43 45 101Q45 112 46 125Q47 138 50 155L57 202L18 179L24 222L65 248L91 415Q110 533 162.5 595.5Q215 658 295 658Q349 658 380 629Q411 600 411 550Q411 474 358 411.5Q305 349 181 275L161 151Q158 131 157.5 123.5Q157 116 157 111Q157 82 168.5 68.5Q180 55 205 55Q235 55 260 66Q285 77 320 106L315 71Q278 26 242 6.5Q206 -13 160 -13ZM215 492 189 331Q239 372 270.5 441Q302 510 302 577Q302 599 295 610Q288 621 274 621Q252 621 240 596Q228 571 215 492Z" glyph-name="uni2113" horiz-adv-x="406" unicode="&#8467;" /><glyph d="M389 -218Q352 -218 331 -199.5Q310 -181 310 -148Q310 -107 340 -70Q370 -33 423 -10H410Q374 -10 355.5 10.5Q337 31 337 71Q337 78 338 89Q339 100 341 111L359 210Q311 92 263 39.5Q215 -13 156 -13Q108 -13 80.5 14.5Q53 42 53 90Q53 105 55 125Q57 145 61 162L106 365Q109 380 111 393Q113 406 113 416Q113 427 109 432Q105 437 96 437Q82 437 64 413.5Q46 390 31 350L6 360Q34 429 71.5 461Q109 493 162 493Q194 493 211.5 476Q229 459 229 428Q229 417 227.5 402Q226 387 222 367L185 177Q181 155 178.5 135.5Q176 116 176 108Q176 86 184.5 75Q193 64 210 64Q252 64 289 130Q326 196 364 336L388 478H509L451 113Q448 95 447 87Q446 79 446 74Q446 59 451.5 52Q457 45 468 45Q484 45 499 66Q514 87 528 130L555 122Q543 85 526.5 58.5Q510 32 489 15Q438 -27 416.5 -59.5Q395 -92 395 -126Q395 -146 406 -157Q417 -168 436 -168Q453 -168 466.5 -163.5Q480 -159 499 -146L496 -169Q474 -194 447 -206Q420 -218 389 -218Z" glyph-name="uogonek" horiz-adv-x="571" unicode="&#371;" /><glyph d="M156 -13Q108 -13 80.5 14.5Q53 42 53 90Q53 105 55 125Q57 145 61 162L106 365Q109 380 111 393Q113 406 113 416Q113 427 109 432Q105 437 96 437Q82 437 64 413.5Q46 390 31 350L6 360Q34 429 71.5 461Q109 493 162 493Q194 493 211.5 476Q229 459 229 428Q229 417 227.5 402Q226 387 222 367L185 177Q181 155 178.5 135.5Q176 116 176 108Q176 86 184.5 75Q193 64 210 64Q252 64 289 130Q326 196 364 336L388 478H509L451 113Q448 95 447 87Q446 79 446 74Q446 59 451.5 52Q457 45 468 45Q484 45 499 66Q514 87 528 130L555 122Q530 51 496 20.5Q462 -10 410 -10Q374 -10 355.5 10.5Q337 31 337 71Q337 78 338 89Q339 100 341 111L359 210Q311 92 263 39.5Q215 -13 156 -13ZM422 645Q422 596 391.5 566Q361 536 312 536Q275 536 252.5 556.5Q230 577 230 611Q230 660 260.5 690Q291 720 341 720Q378 720 400 699.5Q422 679 422 645ZM288 618Q288 601 297 591.5Q306 582 321 582Q340 582 352.5 597.5Q365 613 365 638Q365 655 356 664.5Q347 674 332 674Q313 674 300.5 658.5Q288 643 288 618Z" glyph-name="uring" horiz-adv-x="571" unicode="&#367;" /><glyph d="M156 -13Q108 -13 80.5 14.5Q53 42 53 90Q53 105 55 125Q57 145 61 162L106 365Q109 380 111 393Q113 406 113 416Q113 427 109 432Q105 437 96 437Q82 437 64 413.5Q46 390 31 350L6 360Q34 429 71.5 461Q109 493 162 493Q194 493 211.5 476Q229 459 229 428Q229 417 227.5 402Q226 387 222 367L185 177Q181 155 178.5 135.5Q176 116 176 108Q176 86 184.5 75Q193 64 210 64Q252 64 289 130Q326 196 364 336L388 478H509L451 113Q448 95 447 87Q446 79 446 74Q446 59 451.5 52Q457 45 468 45Q484 45 499 66Q514 87 528 130L555 122Q530 51 496 20.5Q462 -10 410 -10Q374 -10 355.5 10.5Q337 31 337 71Q337 78 338 89Q339 100 341 111L359 210Q311 92 263 39.5Q215 -13 156 -13ZM231 575H209Q218 635 239 664.5Q260 694 294 694Q306 694 317 689.5Q328 685 345 671Q359 661 366.5 657.5Q374 654 381 654Q397 654 407 666Q417 678 422 704H446Q438 639 416 607Q394 575 359 575Q347 575 336 579.5Q325 584 309 597Q295 608 287.5 611.5Q280 615 272 615Q258 615 248 605Q238 595 231 575Z" glyph-name="utilde" horiz-adv-x="571" unicode="&#361;" /><glyph d="M188 -2H142Q134 115 118.5 223Q103 331 82 407Q79 419 74.5 424Q70 429 64 429Q52 429 41.5 411Q31 393 18 350L-7 359Q18 434 47.5 463Q77 492 128 492Q156 492 174.5 476Q193 460 205 425Q221 372 234 278Q247 184 249 105Q311 183 335 251Q359 319 359 411Q359 428 356.5 445.5Q354 463 350 478H453Q454 466 455 453Q456 440 456 433Q456 343 398.5 250.5Q341 158 188 -2Z" glyph-name="v" horiz-adv-x="490" unicode="v" /></font>
</defs>
</svg>
